<svg width="192" height="66" viewBox="0 0 192 66" fill="none" xmlns="http://www.w3.org/2000/svg">
<g filter="url(#filter0_b_2001_233)">
<rect x="32" y="14.2561" width="160" height="38" fill="url(#paint0_linear_2001_233)"/>
</g>
<g opacity="0.47">
<path d="M31.974 65.628L59.689 37.9128L31.9738 10.1978L4.25881 37.913L31.974 65.628Z" fill="#2998FF"/>
<path d="M31.9741 65.0658L59.127 37.9128L31.974 10.76L4.82115 37.913L31.9741 65.0658Z" stroke="#3E8BFF"/>
</g>
<path d="M31.9729 4.20483L59.688 31.9199L31.9729 59.635L4.25782 31.9199L31.9729 4.20483Z" fill="url(#paint1_linear_2001_233)"/>
<path d="M31.9783 59.0784L59.1311 31.9254L31.9781 4.77258L4.8253 31.9256L31.9783 59.0784Z" stroke="#3E8BFF"/>
<path d="M63.9999 31.9602C63.9999 32.1987 63.9204 32.3577 63.6818 32.5167L56.4471 39.7515C56.2085 39.99 55.8905 39.99 55.652 39.7515C55.4135 39.513 55.4135 39.195 55.652 38.9565L62.5688 32.0396L55.652 25.1229C55.4135 24.8844 55.493 24.4869 55.7315 24.3279C55.97 24.1689 56.2881 24.1689 56.5266 24.3279L63.7613 31.5626C63.9203 31.4831 63.9999 31.7216 63.9999 31.9602Z" fill="#7EC1FF"/>
<path d="M31.9604 0C32.199 0 32.358 0.0795225 32.4375 0.318032L39.6723 7.5528C39.9108 7.79131 39.9108 8.10932 39.6723 8.34783C39.4338 8.58634 39.1157 8.58634 38.8772 8.34783L31.9604 1.431L25.0437 8.34783C24.8052 8.58634 24.4077 8.50685 24.2486 8.26834C24.0896 8.02983 24.0896 7.71182 24.2486 7.47331L31.4834 0.238451C31.5629 0.0794449 31.7219 0 31.9604 0Z" fill="#7EC1FF"/>
<path d="M31.9602 63.8409C31.7217 63.8409 31.5627 63.7615 31.4036 63.523L24.1689 56.2881C23.9304 56.0496 23.9304 55.7316 24.1689 55.4931C24.4074 55.2546 24.7254 55.2546 24.9639 55.4931L31.8807 62.4099L38.7974 55.4931C39.036 55.2546 39.4335 55.3342 39.5925 55.5727C39.7515 55.8112 39.7515 56.1292 39.5925 56.3677L32.3577 63.6025C32.3577 63.7615 32.1987 63.8409 31.9602 63.8409Z" fill="#7EC1FF"/>
<path d="M8.34782 25.0434L1.43105 31.9601L8.34782 38.877C8.58633 39.1155 8.58633 39.513 8.34782 39.672C8.10931 39.9105 7.7913 39.9105 7.55279 39.672L0.31801 32.4371C-2.70109e-06 32.2781 -0.0795022 31.8806 0.0795041 31.6421C0.159007 31.5626 0.238507 31.4831 0.31801 31.4036L7.55279 24.1689C7.7913 23.9304 8.10931 23.9303 8.34782 24.0893C8.58633 24.4073 8.58633 24.7254 8.34782 25.0434Z" fill="#7EC1FF"/>
<path d="M40.4937 43.4607H25.5046C24.9527 43.4607 24.5054 43.0134 24.5054 42.4615V38.964H22.5068V34.967H24.5054V30.9699H22.5068V26.9728H24.5054V23.4753C24.5054 22.9234 24.9527 22.4761 25.5046 22.4761H40.4937C41.0456 22.4761 41.4929 22.9234 41.4929 23.4753V42.4615C41.493 43.0134 41.0456 43.4607 40.4937 43.4607ZM34.4981 27.4724H27.5032V28.4717H34.4981V27.4724H34.4981ZM38.4951 32.4688H27.5032V33.468H38.4951V32.4688ZM38.4951 37.4651H27.5032V38.4644H38.4951V37.4651Z" fill="#99CDFF"/>
<defs>
<filter id="filter0_b_2001_233" x="22" y="4.2561" width="180" height="58" filterUnits="userSpaceOnUse" color-interpolation-filters="sRGB">
<feFlood flood-opacity="0" result="BackgroundImageFix"/>
<feGaussianBlur in="BackgroundImageFix" stdDeviation="5"/>
<feComposite in2="SourceAlpha" operator="in" result="effect1_backgroundBlur_2001_233"/>
<feBlend mode="normal" in="SourceGraphic" in2="effect1_backgroundBlur_2001_233" result="shape"/>
</filter>
<linearGradient id="paint0_linear_2001_233" x1="57.7534" y1="33.2561" x2="192" y2="33.2561" gradientUnits="userSpaceOnUse">
<stop stop-color="#2C82D2"/>
<stop offset="1" stop-color="#7EC1FF" stop-opacity="0"/>
</linearGradient>
<linearGradient id="paint1_linear_2001_233" x1="46.1996" y1="18.8803" x2="44.4002" y2="56.9464" gradientUnits="userSpaceOnUse">
<stop stop-color="#025068"/>
<stop offset="0.486" stop-color="#071638"/>
<stop offset="1" stop-color="#022B68"/>
</linearGradient>
</defs>
</svg>
