<svg width="192" height="66" viewBox="0 0 192 66" fill="none" xmlns="http://www.w3.org/2000/svg">
<rect x="32" y="13" width="160" height="38" fill="url(#paint0_linear_2004_269)"/>
<g opacity="0.47">
<path d="M31.9744 65.628L59.6895 37.9128L31.9743 10.1978L4.2593 37.913L31.9744 65.628Z" fill="#2998FF"/>
<path d="M31.9741 65.0658L59.127 37.9128L31.974 10.76L4.82115 37.913L31.9741 65.0658Z" stroke="#3E8BFF"/>
</g>
<path d="M31.9727 4.20483L59.6877 31.9199L31.9727 59.635L4.25758 31.9199L31.9727 4.20483Z" fill="url(#paint1_linear_2004_269)"/>
<path d="M31.978 59.0784L59.1309 31.9254L31.9779 4.77258L4.82505 31.9256L31.978 59.0784Z" stroke="#3E8BFF"/>
<path d="M63.9999 31.9602C63.9999 32.1987 63.9204 32.3577 63.6818 32.5167L56.4471 39.7515C56.2085 39.99 55.8905 39.99 55.652 39.7515C55.4135 39.513 55.4135 39.195 55.652 38.9565L62.5688 32.0396L55.652 25.1229C55.4135 24.8844 55.493 24.4869 55.7315 24.3279C55.97 24.1689 56.2881 24.1689 56.5266 24.3279L63.7613 31.5626C63.9203 31.4831 63.9999 31.7216 63.9999 31.9602Z" fill="#7EC1FF"/>
<path d="M31.9604 0C32.199 0 32.358 0.0795225 32.4375 0.318032L39.6723 7.5528C39.9108 7.79131 39.9108 8.10932 39.6723 8.34783C39.4338 8.58634 39.1157 8.58634 38.8772 8.34783L31.9604 1.431L25.0437 8.34783C24.8052 8.58634 24.4077 8.50685 24.2486 8.26834C24.0896 8.02983 24.0896 7.71182 24.2486 7.47331L31.4834 0.238451C31.5629 0.0794449 31.7219 0 31.9604 0Z" fill="#7EC1FF"/>
<path d="M31.9604 63.8409C31.7219 63.8409 31.5629 63.7615 31.4039 63.523L24.1691 56.2881C23.9306 56.0496 23.9306 55.7316 24.1691 55.4931C24.4076 55.2546 24.7256 55.2546 24.9641 55.4931L31.8809 62.4099L38.7977 55.4931C39.0362 55.2546 39.4337 55.3342 39.5927 55.5727C39.7517 55.8112 39.7517 56.1292 39.5927 56.3677L32.3579 63.6025C32.3579 63.7615 32.1989 63.8409 31.9604 63.8409Z" fill="#7EC1FF"/>
<path d="M8.34782 25.0434L1.43105 31.9601L8.34782 38.877C8.58633 39.1155 8.58633 39.513 8.34782 39.672C8.10931 39.9105 7.7913 39.9105 7.55279 39.672L0.31801 32.4371C-2.70109e-06 32.2781 -0.0795022 31.8806 0.0795041 31.6421C0.159007 31.5626 0.238507 31.4831 0.31801 31.4036L7.55279 24.1689C7.7913 23.9304 8.10931 23.9303 8.34782 24.0893C8.58633 24.4073 8.58633 24.7254 8.34782 25.0434Z" fill="#7EC1FF"/>
<g filter="url(#filter0_dd_2004_269)">
<path d="M26.9498 28.9049C27.0768 28.889 27.2052 28.9199 27.3111 28.9916C27.4171 29.0633 27.4933 29.1711 27.5258 29.2949L27.5328 29.3779C27.5316 29.4869 27.4933 29.5922 27.4242 29.6765C27.3551 29.7608 27.2594 29.8191 27.1528 29.8419L26.8768 29.9229C23.7339 30.8618 23.5069 31.4238 23.5069 31.5728C23.5309 32.2558 27.1558 33.0468 30.0698 33.6678C30.5008 33.7618 30.9368 33.8558 31.3738 33.9528L32.0297 34.0978C36.6257 35.1288 41.1956 36.3848 41.9126 38.6027C42.2226 39.6107 41.7016 40.7427 40.3716 41.8967C40.3431 41.9323 40.3061 41.9603 40.264 41.9781C40.2219 41.9959 40.1761 42.003 40.1306 41.9987H21.7469C21.6742 41.9991 21.6032 41.9773 21.5433 41.9362C21.4835 41.8951 21.4376 41.8366 21.4119 41.7687L21.3969 41.6987C21.3924 41.6418 21.4059 41.5849 21.4355 41.5361C21.4651 41.4872 21.5093 41.449 21.5619 41.4267L21.7819 41.3167C23.8429 40.2807 25.8678 39.1587 25.8448 38.3827C25.8448 37.7128 24.2628 36.9928 22.1139 36.0068L21.4299 35.6778C18.2629 34.2078 17.8309 32.8878 18.0469 32.0598C18.4669 30.3538 21.9589 29.1099 26.9498 28.9049ZM34.4097 18C36.0243 18.0003 37.5726 18.6418 38.7142 19.7834C39.8559 20.9251 40.4974 22.4734 40.4976 24.0879C40.4976 27.4549 36.0097 33.2208 34.4087 33.2208C32.8417 33.2208 28.4918 27.6749 28.3248 24.2849L28.3198 24.0889C28.3198 23.2892 28.4773 22.4974 28.7834 21.7586C29.0894 21.0198 29.538 20.3485 30.1036 19.7831C30.6691 19.2176 31.3404 18.7691 32.0793 18.4632C32.8181 18.1573 33.61 17.9999 34.4097 18ZM34.4097 21.043C33.8151 21.0426 33.2334 21.2164 32.7363 21.5429C32.2393 21.8693 31.8488 22.3342 31.6129 22.88C31.377 23.4259 31.3061 24.0289 31.409 24.6146C31.5118 25.2002 31.7839 25.743 32.1916 26.1758C32.5994 26.6087 33.1249 26.9126 33.7034 27.0502C34.2819 27.1878 34.8881 27.153 35.447 26.9502C36.006 26.7473 36.4933 26.3851 36.8488 25.9085C37.2043 25.4318 37.4125 24.8615 37.4477 24.2679L37.4527 24.0879C37.4527 23.2806 37.132 22.5064 36.5611 21.9355C35.9903 21.3647 35.216 21.044 34.4087 21.044L34.4097 21.043Z" fill="#99CDFF"/>
</g>
<defs>
<filter id="filter0_dd_2004_269" x="10.76" y="10.76" width="38.4795" height="38.4799" filterUnits="userSpaceOnUse" color-interpolation-filters="sRGB">
<feFlood flood-opacity="0" result="BackgroundImageFix"/>
<feColorMatrix in="SourceAlpha" type="matrix" values="0 0 0 0 0 0 0 0 0 0 0 0 0 0 0 0 0 0 127 0" result="hardAlpha"/>
<feOffset/>
<feGaussianBlur stdDeviation="1.06"/>
<feColorMatrix type="matrix" values="0 0 0 0 0.858824 0 0 0 0 0.933333 0 0 0 0 1 0 0 0 1 0"/>
<feBlend mode="normal" in2="BackgroundImageFix" result="effect1_dropShadow_2004_269"/>
<feColorMatrix in="SourceAlpha" type="matrix" values="0 0 0 0 0 0 0 0 0 0 0 0 0 0 0 0 0 0 127 0" result="hardAlpha"/>
<feOffset/>
<feGaussianBlur stdDeviation="3.62"/>
<feColorMatrix type="matrix" values="0 0 0 0 0.858824 0 0 0 0 0.933333 0 0 0 0 1 0 0 0 1 0"/>
<feBlend mode="normal" in2="effect1_dropShadow_2004_269" result="effect2_dropShadow_2004_269"/>
<feBlend mode="normal" in="SourceGraphic" in2="effect2_dropShadow_2004_269" result="shape"/>
</filter>
<linearGradient id="paint0_linear_2004_269" x1="57.7534" y1="32" x2="192" y2="32" gradientUnits="userSpaceOnUse">
<stop stop-color="#2C82D2"/>
<stop offset="1" stop-color="#7EC1FF" stop-opacity="0"/>
</linearGradient>
<linearGradient id="paint1_linear_2004_269" x1="46.1993" y1="18.8803" x2="44.3999" y2="56.9464" gradientUnits="userSpaceOnUse">
<stop stop-color="#025068"/>
<stop offset="0.486" stop-color="#071638"/>
<stop offset="1" stop-color="#022B68"/>
</linearGradient>
</defs>
</svg>
