<svg width="192" height="67" viewBox="0 0 192 67" fill="none" xmlns="http://www.w3.org/2000/svg">
<g filter="url(#filter0_b_2002_234)">
<rect x="32" y="13.8842" width="160" height="38" fill="url(#paint0_linear_2002_234)"/>
</g>
<g opacity="0.47">
<path d="M31.974 66.5121L59.689 38.797L31.9738 11.082L4.25881 38.7971L31.974 66.5121Z" fill="#3D454D"/>
<path d="M31.9741 65.95L59.127 38.797L31.974 11.6442L4.82115 38.7971L31.9741 65.95Z" stroke="#3D454D"/>
</g>
<path d="M32 5L59.7151 32.7151L32 60.4302L4.28492 32.7151L32 5Z" fill="#516477"/>
<path d="M31.9785 59.9625L59.1313 32.8096L31.9784 5.65674L4.82554 32.8097L31.9785 59.9625Z" stroke="#3D454D"/>
<path d="M63.9999 32.8443C63.9999 33.0828 63.9204 33.2419 63.6818 33.4009L56.4471 40.6357C56.2085 40.8742 55.8905 40.8742 55.652 40.6357C55.4135 40.3971 55.4135 40.0791 55.652 39.8406L62.5688 32.9238L55.652 26.0071C55.4135 25.7685 55.493 25.371 55.7315 25.212C55.97 25.053 56.2881 25.053 56.5266 25.212L63.7613 32.4468C63.9203 32.3673 63.9999 32.6058 63.9999 32.8443Z" fill="#3D454D"/>
<path d="M31.9604 0.884155C32.199 0.884155 32.358 0.963678 32.4375 1.20219L39.6723 8.43695C39.9108 8.67546 39.9108 8.99347 39.6723 9.23198C39.4338 9.47049 39.1157 9.47049 38.8772 9.23198L31.9604 2.31515L25.0437 9.23198C24.8052 9.47049 24.4077 9.39101 24.2486 9.1525C24.0896 8.91399 24.0896 8.59598 24.2486 8.35747L31.4834 1.12261C31.5629 0.9636 31.7219 0.884155 31.9604 0.884155Z" fill="#3D454D"/>
<path d="M31.9602 64.7251C31.7217 64.7251 31.5627 64.6456 31.4036 64.4071L24.1689 57.1723C23.9304 56.9338 23.9304 56.6158 24.1689 56.3772C24.4074 56.1387 24.7254 56.1387 24.9639 56.3772L31.8807 63.2941L38.7974 56.3772C39.036 56.1387 39.4335 56.2183 39.5925 56.4568C39.7515 56.6953 39.7515 57.0133 39.5925 57.2519L32.3577 64.4866C32.3577 64.6456 32.1987 64.7251 31.9602 64.7251Z" fill="#3D454D"/>
<path d="M8.34782 25.9276L1.43105 32.8443L8.34782 39.7611C8.58633 39.9996 8.58633 40.3971 8.34782 40.5561C8.10931 40.7947 7.7913 40.7947 7.55279 40.5561L0.31801 33.3213C-2.70109e-06 33.1623 -0.0795022 32.7648 0.0795041 32.5263C0.159007 32.4467 0.238507 32.3673 0.31801 32.2878L7.55279 25.053C7.7913 24.8145 8.10931 24.8144 8.34782 24.9735C8.58633 25.2915 8.58633 25.6095 8.34782 25.9276Z" fill="#3D454D"/>
<path fill-rule="evenodd" clip-rule="evenodd" d="M37.9231 22H42.1538C42.3783 22 42.5935 22.0891 42.7522 22.2478C42.9109 22.4065 43 22.6217 43 22.8462V43.1538C43 43.3783 42.9109 43.5935 42.7522 43.7522C42.5935 43.9109 42.3783 44 42.1538 44H21.8462C21.6217 44 21.4065 43.9109 21.2478 43.7522C21.0891 43.5935 21 43.3783 21 43.1538V22.8462C21 22.6217 21.0891 22.4065 21.2478 22.2478C21.4065 22.0891 21.6217 22 21.8462 22H26.0769V25.9346H37.9231V22ZM26.3562 34.5823L31.2723 39.49L38.8454 31.9169L37.6523 30.7238L31.2723 37.1038L27.5577 33.3892L26.3562 34.5823ZM36.2307 22H27.7776V24.2423H36.2307V22Z" fill="#222C42"/>
<defs>
<filter id="filter0_b_2002_234" x="22" y="3.88416" width="180" height="58" filterUnits="userSpaceOnUse" color-interpolation-filters="sRGB">
<feFlood flood-opacity="0" result="BackgroundImageFix"/>
<feGaussianBlur in="BackgroundImageFix" stdDeviation="5"/>
<feComposite in2="SourceAlpha" operator="in" result="effect1_backgroundBlur_2002_234"/>
<feBlend mode="normal" in="SourceGraphic" in2="effect1_backgroundBlur_2002_234" result="shape"/>
</filter>
<linearGradient id="paint0_linear_2002_234" x1="57.7534" y1="32.8842" x2="192" y2="32.8842" gradientUnits="userSpaceOnUse">
<stop stop-color="white" stop-opacity="0.15"/>
<stop offset="1" stop-color="white" stop-opacity="0"/>
</linearGradient>
</defs>
</svg>
