<svg width="192" height="67" viewBox="0 0 192 67" fill="none" xmlns="http://www.w3.org/2000/svg">
<g filter="url(#filter0_b_2001_231)">
<rect x="32" y="13.6281" width="160" height="38" fill="url(#paint0_linear_2001_231)"/>
</g>
<g opacity="0.47">
<path d="M31.974 66.256L59.689 38.5409L31.9738 10.8259L4.25881 38.541L31.974 66.256Z" fill="#3D454D"/>
<path d="M31.9741 65.6939L59.127 38.5409L31.974 11.3881L4.82115 38.541L31.9741 65.6939Z" stroke="#3D454D"/>
</g>
<path d="M32 5L59.7151 32.7151L32 60.4302L4.28492 32.7151L32 5Z" fill="#516477"/>
<path d="M31.9785 59.7064L59.1313 32.5535L31.9784 5.40063L4.82554 32.5536L31.9785 59.7064Z" stroke="#3D454D"/>
<path d="M63.9999 32.5882C63.9999 32.8267 63.9204 32.9858 63.6818 33.1448L56.4471 40.3795C56.2085 40.6181 55.8905 40.6181 55.652 40.3795C55.4135 40.141 55.4135 39.823 55.652 39.5845L62.5688 32.6677L55.652 25.751C55.4135 25.5124 55.493 25.1149 55.7315 24.9559C55.97 24.7969 56.2881 24.7969 56.5266 24.9559L63.7613 32.1907C63.9203 32.1112 63.9999 32.3497 63.9999 32.5882Z" fill="#3D454D"/>
<path d="M31.9604 0.628052C32.199 0.628052 32.358 0.707574 32.4375 0.946084L39.6723 8.18085C39.9108 8.41936 39.9108 8.73737 39.6723 8.97588C39.4338 9.21439 39.1157 9.21439 38.8772 8.97588L31.9604 2.05905L25.0437 8.97588C24.8052 9.21439 24.4077 9.13491 24.2486 8.8964C24.0896 8.65789 24.0896 8.33987 24.2486 8.10137L31.4834 0.866503C31.5629 0.707497 31.7219 0.628052 31.9604 0.628052Z" fill="#3D454D"/>
<path d="M31.9602 64.469C31.7217 64.469 31.5627 64.3895 31.4036 64.151L24.1689 56.9162C23.9304 56.6777 23.9304 56.3597 24.1689 56.1211C24.4074 55.8826 24.7254 55.8826 24.9639 56.1211L31.8807 63.038L38.7974 56.1211C39.036 55.8826 39.4335 55.9622 39.5925 56.2007C39.7515 56.4392 39.7515 56.7572 39.5925 56.9958L32.3577 64.2305C32.3577 64.3895 32.1987 64.469 31.9602 64.469Z" fill="#3D454D"/>
<path d="M8.34782 25.6714L1.43105 32.5882L8.34782 39.505C8.58633 39.7435 8.58633 40.141 8.34782 40.3C8.10931 40.5386 7.7913 40.5386 7.55279 40.3L0.31801 33.0652C-2.70109e-06 32.9062 -0.0795022 32.5087 0.0795041 32.2701C0.159007 32.1906 0.238507 32.1112 0.31801 32.0317L7.55279 24.7969C7.7913 24.5584 8.10931 24.5583 8.34782 24.7174C8.58633 25.0354 8.58633 25.3534 8.34782 25.6714Z" fill="#3D454D"/>
<g clip-path="url(#clip0_2001_231)">
<path opacity="0.75" fill-rule="evenodd" clip-rule="evenodd" d="M44.0001 31.6033V31.6227H33.134V20.7372C39.1334 20.7372 44.0001 25.6006 44.0001 31.6033ZM31.3913 22.4992V33.3847H42.2574C42.2477 39.3777 37.3875 44.2314 31.3913 44.2314C25.395 44.2314 20.5348 39.3777 20.5251 33.3847V33.3653C20.5251 27.3659 25.3886 22.4992 31.3913 22.4992Z" fill="#121A30"/>
</g>
<defs>
<filter id="filter0_b_2001_231" x="22" y="3.62805" width="180" height="58" filterUnits="userSpaceOnUse" color-interpolation-filters="sRGB">
<feFlood flood-opacity="0" result="BackgroundImageFix"/>
<feGaussianBlur in="BackgroundImageFix" stdDeviation="5"/>
<feComposite in2="SourceAlpha" operator="in" result="effect1_backgroundBlur_2001_231"/>
<feBlend mode="normal" in="SourceGraphic" in2="effect1_backgroundBlur_2001_231" result="shape"/>
</filter>
<linearGradient id="paint0_linear_2001_231" x1="57.7534" y1="32.6281" x2="192" y2="32.6281" gradientUnits="userSpaceOnUse">
<stop stop-color="white" stop-opacity="0.15"/>
<stop offset="1" stop-color="white" stop-opacity="0"/>
</linearGradient>
<clipPath id="clip0_2001_231">
<rect width="24" height="24" fill="white" transform="translate(20 21)"/>
</clipPath>
</defs>
</svg>
