<svg width="192" height="66" viewBox="0 0 192 66" fill="none" xmlns="http://www.w3.org/2000/svg">
<rect x="32" y="13" width="160" height="38" fill="url(#paint0_linear_2001_231)"/>
<g opacity="0.47">
<path d="M31.974 65.628L59.689 37.9128L31.9738 10.1978L4.25881 37.913L31.974 65.628Z" fill="#3D454D"/>
<path d="M31.9741 65.0658L59.127 37.9128L31.974 10.76L4.82115 37.913L31.9741 65.0658Z" stroke="#3D454D"/>
</g>
<path d="M32 4.37195L59.7151 32.087L32 59.8021L4.28492 32.087L32 4.37195Z" fill="#516477"/>
<path d="M31.9783 59.0784L59.1311 31.9254L31.9781 4.77258L4.8253 31.9256L31.9783 59.0784Z" stroke="#3D454D"/>
<path d="M63.9999 31.9602C63.9999 32.1987 63.9204 32.3577 63.6818 32.5167L56.4471 39.7515C56.2085 39.99 55.8905 39.99 55.652 39.7515C55.4135 39.513 55.4135 39.195 55.652 38.9565L62.5688 32.0396L55.652 25.1229C55.4135 24.8844 55.493 24.4869 55.7315 24.3279C55.97 24.1689 56.2881 24.1689 56.5266 24.3279L63.7613 31.5626C63.9203 31.4831 63.9999 31.7216 63.9999 31.9602Z" fill="#3D454D"/>
<path d="M31.9604 0C32.199 0 32.358 0.0795225 32.4375 0.318032L39.6723 7.5528C39.9108 7.79131 39.9108 8.10932 39.6723 8.34783C39.4338 8.58634 39.1157 8.58634 38.8772 8.34783L31.9604 1.431L25.0437 8.34783C24.8052 8.58634 24.4077 8.50685 24.2486 8.26834C24.0896 8.02983 24.0896 7.71182 24.2486 7.47331L31.4834 0.238451C31.5629 0.0794449 31.7219 0 31.9604 0Z" fill="#3D454D"/>
<path d="M31.9602 63.8409C31.7217 63.8409 31.5627 63.7615 31.4036 63.523L24.1689 56.2881C23.9304 56.0496 23.9304 55.7316 24.1689 55.4931C24.4074 55.2546 24.7254 55.2546 24.9639 55.4931L31.8807 62.4099L38.7974 55.4931C39.036 55.2546 39.4335 55.3342 39.5925 55.5727C39.7515 55.8112 39.7515 56.1292 39.5925 56.3677L32.3577 63.6025C32.3577 63.7615 32.1987 63.8409 31.9602 63.8409Z" fill="#3D454D"/>
<path d="M8.34782 25.0434L1.43105 31.9601L8.34782 38.877C8.58633 39.1155 8.58633 39.513 8.34782 39.672C8.10931 39.9105 7.7913 39.9105 7.55279 39.672L0.31801 32.4371C-2.70109e-06 32.2781 -0.0795022 31.8806 0.0795041 31.6421C0.159007 31.5626 0.238507 31.4831 0.31801 31.4036L7.55279 24.1689C7.7913 23.9304 8.10931 23.9303 8.34782 24.0893C8.58633 24.4073 8.58633 24.7254 8.34782 25.0434Z" fill="#3D454D"/>
<path d="M26.9501 28.9049C27.077 28.889 27.2054 28.9199 27.3114 28.9916C27.4173 29.0633 27.4936 29.1711 27.526 29.2949L27.533 29.3779C27.5318 29.4869 27.4935 29.5922 27.4244 29.6765C27.3554 29.7608 27.2597 29.8191 27.1531 29.8419L26.8771 29.9229C23.7341 30.8618 23.5071 31.4238 23.5071 31.5728C23.5311 32.2558 27.1561 33.0468 30.07 33.6678C30.501 33.7618 30.937 33.8558 31.374 33.9528L32.03 34.0978C36.6259 35.1288 41.1959 36.3848 41.9129 38.6027C42.2229 39.6107 41.7019 40.7427 40.3719 41.8967C40.3433 41.9323 40.3063 41.9603 40.2642 41.9781C40.2222 41.9959 40.1764 42.003 40.1309 41.9987H21.7471C21.6745 41.9991 21.6035 41.9773 21.5436 41.9362C21.4837 41.8951 21.4378 41.8366 21.4121 41.7687L21.3971 41.6987C21.3926 41.6418 21.4061 41.5849 21.4357 41.5361C21.4653 41.4872 21.5096 41.449 21.5621 41.4267L21.7821 41.3167C23.8431 40.2807 25.8681 39.1587 25.8451 38.3827C25.8451 37.7128 24.2631 36.9928 22.1141 36.0068L21.4301 35.6778C18.2632 34.2078 17.8312 32.8878 18.0472 32.0598C18.4672 30.3538 21.9591 29.1099 26.9501 28.9049ZM34.41 18C36.0245 18.0003 37.5728 18.6418 38.7145 19.7834C39.8561 20.9251 40.4976 22.4734 40.4979 24.0879C40.4979 27.4549 36.0099 33.2208 34.409 33.2208C32.842 33.2208 28.492 27.6749 28.325 24.2849L28.32 24.0889C28.32 23.2892 28.4776 22.4974 28.7836 21.7586C29.0897 21.0198 29.5383 20.3485 30.1038 19.7831C30.6693 19.2176 31.3407 18.7691 32.0795 18.4632C32.8184 18.1573 33.6103 17.9999 34.41 18ZM34.41 21.043C33.8153 21.0426 33.2336 21.2164 32.7366 21.5429C32.2396 21.8693 31.849 22.3342 31.6131 22.88C31.3773 23.4259 31.3064 24.0289 31.4092 24.6146C31.5121 25.2002 31.7841 25.743 32.1919 26.1758C32.5996 26.6087 33.1252 26.9126 33.7037 27.0502C34.2822 27.1878 34.8883 27.153 35.4473 26.9502C36.0062 26.7473 36.4935 26.3851 36.8491 25.9085C37.2046 25.4318 37.4128 24.8615 37.4479 24.2679L37.4529 24.0879C37.4529 23.2806 37.1322 22.5064 36.5614 21.9355C35.9905 21.3647 35.2163 21.044 34.409 21.044L34.41 21.043Z" fill="#212C42"/>
<defs>
<linearGradient id="paint0_linear_2001_231" x1="57.7534" y1="32" x2="192" y2="32" gradientUnits="userSpaceOnUse">
<stop stop-color="white" stop-opacity="0.15"/>
<stop offset="1" stop-color="white" stop-opacity="0"/>
</linearGradient>
</defs>
</svg>
