<svg width="192" height="67" viewBox="0 0 192 67" fill="none" xmlns="http://www.w3.org/2000/svg">
<g filter="url(#filter0_b_2002_233)">
<rect x="32" y="13.2561" width="160" height="38" fill="url(#paint0_linear_2002_233)"/>
</g>
<g opacity="0.47">
<path d="M31.974 65.8841L59.689 38.1689L31.9738 10.4539L4.25881 38.1691L31.974 65.8841Z" fill="#3D454D"/>
<path d="M31.9741 65.3219L59.127 38.1689L31.974 11.0161L4.82115 38.1691L31.9741 65.3219Z" stroke="#3D454D"/>
</g>
<path d="M31.9729 4L59.688 31.7151L31.9729 59.4302L4.25782 31.7151L31.9729 4Z" fill="#516477"/>
<path d="M31.9785 59.3345L59.1313 32.1815L31.9784 5.02868L4.82554 32.1817L31.9785 59.3345Z" stroke="#3D454D"/>
<path d="M63.9999 32.2163C63.9999 32.4548 63.9204 32.6138 63.6818 32.7728L56.4471 40.0076C56.2085 40.2461 55.8905 40.2461 55.652 40.0076C55.4135 39.7691 55.4135 39.4511 55.652 39.2126L62.5688 32.2957L55.652 25.379C55.4135 25.1405 55.493 24.743 55.7315 24.584C55.97 24.425 56.2881 24.425 56.5266 24.584L63.7613 31.8187C63.9203 31.7392 63.9999 31.9777 63.9999 32.2163Z" fill="#3D454D"/>
<path d="M31.9604 0.256104C32.199 0.256104 32.358 0.335626 32.4375 0.574135L39.6723 7.8089C39.9108 8.04741 39.9108 8.36542 39.6723 8.60393C39.4338 8.84244 39.1157 8.84244 38.8772 8.60393L31.9604 1.6871L25.0437 8.60393C24.8052 8.84244 24.4077 8.76296 24.2486 8.52445C24.0896 8.28594 24.0896 7.96793 24.2486 7.72942L31.4834 0.494555C31.5629 0.335548 31.7219 0.256104 31.9604 0.256104Z" fill="#3D454D"/>
<path d="M31.9602 64.097C31.7217 64.097 31.5627 64.0176 31.4036 63.7791L24.1689 56.5442C23.9304 56.3057 23.9304 55.9877 24.1689 55.7492C24.4074 55.5107 24.7254 55.5107 24.9639 55.7492L31.8807 62.666L38.7974 55.7492C39.036 55.5107 39.4335 55.5903 39.5925 55.8288C39.7515 56.0673 39.7515 56.3853 39.5925 56.6238L32.3577 63.8586C32.3577 64.0176 32.1987 64.097 31.9602 64.097Z" fill="#3D454D"/>
<path d="M8.34782 25.2995L1.43105 32.2162L8.34782 39.1331C8.58633 39.3716 8.58633 39.7691 8.34782 39.9281C8.10931 40.1666 7.7913 40.1666 7.55279 39.9281L0.31801 32.6932C-2.70109e-06 32.5342 -0.0795022 32.1367 0.0795041 31.8982C0.159007 31.8187 0.238507 31.7393 0.31801 31.6597L7.55279 24.425C7.7913 24.1865 8.10931 24.1864 8.34782 24.3454C8.58633 24.6634 8.58633 24.9815 8.34782 25.2995Z" fill="#3D454D"/>
<path d="M40.4937 42.4607H25.5046C24.9527 42.4607 24.5054 42.0134 24.5054 41.4615V37.964H22.5068V33.967H24.5054V29.9699H22.5068V25.9728H24.5054V22.4753C24.5054 21.9234 24.9527 21.4761 25.5046 21.4761H40.4937C41.0456 21.4761 41.4929 21.9234 41.4929 22.4753V41.4615C41.493 42.0134 41.0456 42.4607 40.4937 42.4607ZM34.4981 26.4724H27.5032V27.4717H34.4981V26.4724H34.4981ZM38.4951 31.4688H27.5032V32.468H38.4951V31.4688ZM38.4951 36.4651H27.5032V37.4644H38.4951V36.4651Z" fill="#222C42"/>
<defs>
<filter id="filter0_b_2002_233" x="22" y="3.2561" width="180" height="58" filterUnits="userSpaceOnUse" color-interpolation-filters="sRGB">
<feFlood flood-opacity="0" result="BackgroundImageFix"/>
<feGaussianBlur in="BackgroundImageFix" stdDeviation="5"/>
<feComposite in2="SourceAlpha" operator="in" result="effect1_backgroundBlur_2002_233"/>
<feBlend mode="normal" in="SourceGraphic" in2="effect1_backgroundBlur_2002_233" result="shape"/>
</filter>
<linearGradient id="paint0_linear_2002_233" x1="57.7534" y1="32.2561" x2="192" y2="32.2561" gradientUnits="userSpaceOnUse">
<stop stop-color="white" stop-opacity="0.15"/>
<stop offset="1" stop-color="white" stop-opacity="0"/>
</linearGradient>
</defs>
</svg>
