<svg width="53" height="81" viewBox="0 0 53 81" fill="none" xmlns="http://www.w3.org/2000/svg">
<path fill-rule="evenodd" clip-rule="evenodd" d="M37.9996 10.343C37.9996 7.64296 40.0996 5.54297 42.7996 5.54297C45.4996 5.54297 47.5996 7.64296 47.5996 10.343C47.5996 13.043 45.4996 15.1429 42.7996 15.1429C40.1996 15.1429 37.9996 13.043 37.9996 10.343Z" fill="#EDC127"/>
<path d="M42.7999 20.043C38.8999 20.043 35.2999 17.7429 33.7999 14.1429C32.2999 10.5429 33.0999 6.24294 35.8999 3.44293C39.6999 -0.357065 45.8999 -0.357041 49.6999 3.34296C53.4999 7.14296 53.4999 13.3429 49.7999 17.1429C47.8999 19.0429 45.3999 20.143 42.7999 20.043ZM42.7999 2.04297C38.1999 2.04297 34.4999 5.84294 34.4999 10.4429C34.4999 15.0429 38.2999 18.7429 42.8999 18.7429C47.4999 18.7429 51.1999 14.9429 51.1999 10.4429C51.1999 5.74294 47.4999 2.04297 42.7999 2.04297Z" fill="#EDC127"/>
<path d="M3.49969 76.543H2.0997V44.543L2.29971 44.343L36.1997 16.543L37.1997 17.343L3.49969 45.043V76.543Z" fill="#EDC127"/>
<path fill-rule="evenodd" clip-rule="evenodd" d="M0 77.4429C0 75.7429 1.3 74.4429 3 74.4429C4.7 74.4429 6 75.7429 6 77.4429C6 79.1429 4.7 80.4429 3 80.4429C1.3 80.4429 0 79.0429 0 77.4429Z" fill="#EDC127"/>
</svg>
