<svg width="53" height="81" viewBox="0 0 53 81" fill="none" xmlns="http://www.w3.org/2000/svg">
<path fill-rule="evenodd" clip-rule="evenodd" d="M38.0103 10.351C38.0103 7.65101 40.1104 5.55103 42.8104 5.55103C45.5104 5.55103 47.6104 7.65101 47.6104 10.351C47.6104 13.051 45.5104 15.151 42.8104 15.151C40.2104 15.151 38.0103 13.051 38.0103 10.351Z" fill="#2CADFF"/>
<path d="M42.8101 20.051C38.9101 20.051 35.3101 17.751 33.8101 14.151C32.3101 10.551 33.1101 6.25099 35.9101 3.45099C39.7101 -0.349008 45.9101 -0.348984 49.7101 3.35102C53.5101 7.15102 53.5101 13.351 49.8101 17.151C47.9101 19.051 45.4101 20.151 42.8101 20.051ZM42.8101 2.05103C38.2101 2.05103 34.5101 5.85099 34.5101 10.451C34.5101 15.051 38.3101 18.751 42.9101 18.751C47.5101 18.751 51.2101 14.951 51.2101 10.451C51.2101 5.75099 47.5101 2.05103 42.8101 2.05103Z" fill="#2CADFF"/>
<path d="M3.50995 76.551H2.10995V44.551L2.30997 44.351L36.21 16.551L37.21 17.351L3.50995 45.051V76.551Z" fill="#2CADFF"/>
<path fill-rule="evenodd" clip-rule="evenodd" d="M0.0102539 77.4509C0.0102539 75.7509 1.31025 74.4509 3.01025 74.4509C4.71025 74.4509 6.01025 75.7509 6.01025 77.4509C6.01025 79.1509 4.71025 80.4509 3.01025 80.4509C1.31025 80.4509 0.0102539 79.0509 0.0102539 77.4509Z" fill="#2CADFF"/>
</svg>
