<svg width="19" height="21" viewBox="0 0 19 21" fill="none" xmlns="http://www.w3.org/2000/svg">
<path fill-rule="evenodd" clip-rule="evenodd" d="M3.24689 0.914746C3.39689 0.76709 3.55158 0.628809 3.71329 0.497559L7.95511 4.68628L12.9802 3.84411C13.0125 3.3516 13.2226 2.8857 13.5737 2.53456C13.9565 2.15172 14.4758 1.93665 15.0172 1.93665C15.5586 1.93665 16.0778 2.15172 16.4607 2.53456C16.8435 2.9174 17.0586 3.43664 17.0586 3.97805C17.0586 4.51947 16.8435 5.03871 16.4607 5.42154C16.1141 5.7681 15.6558 5.97718 15.1704 6.0137L14.3821 11.0328L18.507 15.1062C18.3758 15.2655 18.2352 15.4202 18.0852 15.5679C15.5419 18.079 11.234 18.0812 7.51338 15.8765C7.46535 16.3407 7.25928 16.7768 6.9263 17.1098C6.87072 17.1654 6.81226 17.2175 6.75127 17.2658C8.39667 17.7752 9.53872 19.0236 9.5047 20.4827C9.5047 20.5741 9.49767 20.6632 9.48595 20.7522L0.537512 20.7452C0.530481 20.6562 0.528137 20.5671 0.530481 20.4757C0.570493 18.8452 2.0672 17.4794 4.04538 17.1159C4.04336 17.1139 4.04134 17.1118 4.03932 17.1098C3.65648 16.727 3.44141 16.2077 3.44141 15.6663C3.44141 15.1249 3.65648 14.6057 4.03932 14.2228C4.25592 14.0062 4.51619 13.8433 4.79942 13.7427C0.831439 9.70477 0.125592 3.99668 3.24689 0.914746ZM13.5609 10.2219L14.2449 5.86774C14.1495 5.82874 14.057 5.78251 13.9683 5.7294L11.4699 8.15709L13.5609 10.2219ZM10.8027 7.4982L13.2959 5.07556C13.2335 4.97767 13.1797 4.87481 13.1349 4.76816L8.77711 5.498L10.8027 7.4982Z" fill="white"/>
</svg>
