<svg width="16" height="16" viewBox="0 0 16 16" fill="none" xmlns="http://www.w3.org/2000/svg">
<path d="M10.6663 7.49992H9.16634V5.33325V4.83325H8.66634H7.33301H6.83301V5.33325V7.49992H5.33301H4.1259L4.97945 8.35347L7.64612 11.0201L7.99967 11.3737L8.35323 11.0201L11.0199 8.35347L11.8734 7.49992H10.6663ZM7.99967 1.83325C11.4035 1.83325 14.1663 4.59606 14.1663 7.99992C14.1663 11.4038 11.4035 14.1666 7.99967 14.1666C4.59582 14.1666 1.83301 11.4038 1.83301 7.99992C1.83301 4.59606 4.59582 1.83325 7.99967 1.83325Z" stroke="white"/>
<path d="M8.25 8V8.5H8.75H9.79289L8 10.2929L6.20711 8.5H7.25H7.75V8V5.5H8.25V8Z" stroke="white"/>
<circle cx="8" cy="9.125" r="1.125" fill="white"/>
</svg>
