<svg width="24" height="24" viewBox="0 0 24 24" fill="none" xmlns="http://www.w3.org/2000/svg">
<path fill-rule="evenodd" clip-rule="evenodd" d="M2.20566 20.7804C2.07377 20.6413 2 20.4499 2 20.2499V16.5212H7.87688V20.2477C7.87688 20.663 7.55945 21 7.17049 21H2.70415C2.51638 21 2.33755 20.9217 2.20566 20.7804ZM2.70639 3H7.17273C7.56169 3 7.87912 3.337 7.87688 3.75226V15.2667H2V3.75009C2 3.337 2.31743 3 2.70639 3ZM3.73691 7.57012C3.73691 8.2115 4.27117 8.72895 4.92838 8.72895C5.58559 8.72895 6.11985 8.2115 6.11985 7.57012C6.11985 6.92874 5.58783 6.41128 4.92838 6.41128C4.26894 6.41128 3.73691 6.92874 3.73691 7.57012ZM9.2673 20.7804C9.13542 20.6413 9.06165 20.4499 9.06165 20.2499V16.5212H14.9385V20.2477C14.9385 20.663 14.6211 21 14.2321 21H9.7658C9.57803 21 9.39919 20.9217 9.2673 20.7804ZM9.76803 3H14.2344C14.6233 3 14.9408 3.337 14.9408 3.75226V15.2667H9.06165V3.75009C9.06165 3.337 9.37907 3 9.76803 3ZM10.7986 7.57012C10.7986 8.2115 11.3328 8.72895 11.99 8.72895C12.6472 8.72895 13.1815 8.21367 13.1815 7.57229C13.1815 6.93091 12.6472 6.41346 11.99 6.41346C11.3328 6.41346 10.7986 6.92874 10.7986 7.57012ZM16.3287 20.7804C16.1968 20.6413 16.1231 20.4499 16.1231 20.2499V16.5212H21.9999V20.2477C21.9999 20.663 21.6825 21 21.2936 21H16.8272C16.6394 21 16.4606 20.9217 16.3287 20.7804ZM16.8294 3H21.2958C21.687 3 22.0022 3.337 21.9999 3.75226V15.2667H16.1231V3.75009C16.1231 3.337 16.4405 3 16.8294 3ZM17.86 7.57012C17.86 8.2115 18.3942 8.72895 19.0514 8.72895C19.7086 8.72895 20.2429 8.2115 20.2429 7.57012C20.2429 6.92874 19.7109 6.41128 19.0514 6.41128C18.392 6.41128 17.86 6.92874 17.86 7.57012Z" fill="white"/>
</svg>
