<svg width="24" height="24" viewBox="0 0 24 24" fill="none" xmlns="http://www.w3.org/2000/svg">
<path d="M17.4438 11.759L21.6578 14.192V19.058L17.4438 21.491L13.2298 19.058V14.192L17.4438 11.759ZM6.6188 11.759L10.8328 14.192V19.058L6.6183 21.491L2.4043 19.058V14.192L6.6188 11.759ZM17.4438 15.058H14.7293V18.1915H17.4438H20.1578V15.058H17.4438ZM6.6183 15.058H3.9043V18.1915H6.6183H9.3323V15.058H6.6183ZM12.0313 2.38397L16.2453 4.81697V9.68297L12.0313 12.116L7.8173 9.68297V4.81697L12.0313 2.38397ZM12.0308 5.68297H9.3168V8.81647H12.0308H14.7448V5.68297H12.0308Z" fill="white"/>
</svg>
