<svg width="20" height="20" viewBox="0 0 20 20" fill="none" xmlns="http://www.w3.org/2000/svg">
<path d="M17.3353 12.665L20.0004 15.3246L15.3149 20.0002L10.6655 15.3246L13.336 12.665L15.3389 14.645L17.3353 12.665ZM17.3353 2.66788V10.6915L15.3149 12.6661L13.336 10.7046L8.66254 15.3366L11.3331 17.9962H1.34254C1.34254 17.9962 0.00181568 17.9842 0.00181568 16.661V9.87988V9.52206L-0.000366211 2.66242C-0.000366211 2.66242 0.0759973 1.33151 1.33927 1.33151H2.00254V3.64533C2.00254 3.64533 2.01891 4.66206 3.004 4.66424H4.996C4.996 4.66424 6.004 4.68606 6.004 3.64751V1.33151H11.3385V3.70751C11.3418 3.88206 11.4084 4.66751 12.3531 4.66533H14.3625C14.3625 4.66533 15.3302 4.65442 15.3335 3.66169V3.31915V2.12351V1.3326H15.988C15.988 1.3326 17.3353 1.23988 17.3353 2.66788ZM4.65672 -0.000488281V3.32678H3.32145V-0.000488281H4.65672ZM14.0036 -0.000488281V3.32678H12.6564V-0.000488281H14.0036Z" fill="white"/>
</svg>
