<svg width="18" height="18" viewBox="0 0 18 18" fill="none" xmlns="http://www.w3.org/2000/svg">
<path d="M16.6775 8.13852C18.0282 6.72207 18.3227 4.61397 17.6597 2.93313L15.2795 5.42955C14.6319 6.10898 13.5222 6.05638 12.8746 5.37698C12.2273 4.69756 12.1773 3.53474 12.8245 2.85534L15.2051 0.358882C13.6027 -0.337106 11.5866 -0.0337867 10.2362 1.38266C8.89892 2.78469 8.58247 4.85316 9.27362 6.58086L7.61919 8.31574L3.39255 3.88269L3.68085 3.22274L1.4299 1.64997L0 3.14926L1.4995 5.51097L2.17999 5.15433L6.40661 9.5881L1.49879 14.7351C1.18579 15.0637 1.18579 15.5954 1.49879 15.9232L3.00894 17.5075C3.3216 17.8353 3.82896 17.8353 4.14161 17.5075L9.0494 12.3597L9.74329 13.0874L9.55094 13.2898C9.2647 13.5896 9.19956 13.97 9.47314 14.2574L12.8002 17.7474C13.0734 18.0341 13.5722 18.1069 13.8585 17.8072L15.4053 16.1847C15.6912 15.885 15.672 15.3079 15.3984 15.0219L12.071 11.5319C11.7975 11.2452 11.384 11.3669 11.0978 11.6666L10.9562 11.8158L10.262 11.0881L12.0134 9.25089C13.5986 9.81506 15.4224 9.45483 16.6775 8.13852ZM4.00002 15.7748C3.66096 16.1307 3.11178 16.1307 2.77274 15.7748C2.43403 15.4196 2.43403 14.8432 2.77274 14.4873C3.11178 14.1321 3.66096 14.1321 4.00002 14.4873C4.33906 14.8432 4.33906 15.4196 4.00002 15.7748Z" fill="white"/>
</svg>
