<svg width="14" height="20" viewBox="0 0 14 20" fill="none" xmlns="http://www.w3.org/2000/svg">
<path d="M13.5963 8.45748L11.2904 7.26567C10.8286 8.1645 10.1411 8.92788 9.29535 9.48089L8.79012 8.18544C9.55925 7.61922 10.1299 6.82458 10.4208 5.91487C10.7116 5.00516 10.7078 4.02684 10.4098 3.11944C10.1118 2.21205 9.53491 1.42192 8.76136 0.861753C7.98781 0.30159 7.05713 0 6.10205 0C5.14698 0 4.21629 0.30159 3.44274 0.861753C2.66919 1.42192 2.09228 2.21205 1.79429 3.11944C1.49631 4.02684 1.49247 5.00516 1.78332 5.91487C2.07417 6.82458 2.64485 7.61922 3.41398 8.18544L0.34375 16.4764L2.76625 17.3832L4.4633 12.875C5.00062 12.9841 5.5473 13.0405 6.09557 13.0434C6.6885 13.0363 7.27903 12.9669 7.85739 12.8361L10.7074 20L13.1169 19.0414L10.2799 11.9164C11.6979 11.1101 12.8503 9.90817 13.5963 8.45748ZM6.09557 2.67975C6.4799 2.67975 6.85559 2.79372 7.17515 3.00724C7.4947 3.22076 7.74377 3.52424 7.89084 3.87931C8.03792 4.23438 8.0764 4.62509 8.00142 5.00203C7.92644 5.37897 7.74137 5.72521 7.46961 5.99697C7.19785 6.26873 6.85161 6.4538 6.47467 6.52878C6.09773 6.60376 5.70702 6.56528 5.35195 6.4182C4.99688 6.27113 4.6934 6.02206 4.47988 5.70251C4.26636 5.38296 4.15239 5.00726 4.15239 4.62293C4.15239 4.36775 4.20265 4.11507 4.30031 3.87931C4.39796 3.64355 4.54109 3.42934 4.72154 3.2489C4.90198 3.06845 5.11619 2.92532 5.35195 2.82767C5.58771 2.73001 5.84039 2.67975 6.09557 2.67975ZM6.09557 10.4525C5.86259 10.4662 5.62901 10.4662 5.39603 10.4525L5.87535 9.15703H6.38057L6.82103 10.4525C6.57944 10.4673 6.33716 10.4673 6.09557 10.4525Z" fill="white"/>
</svg>
