<svg width="24" height="24" viewBox="0 0 24 24" fill="none" xmlns="http://www.w3.org/2000/svg">
<path fill-rule="evenodd" clip-rule="evenodd" d="M12 8C12.923 8 13.8235 7.19059 13.8235 6C13.8235 4.80941 12.923 4 12 4C11.077 4 10.1765 4.80941 10.1765 6C10.1765 7.19059 11.077 8 12 8ZM13 9.8618C14.6267 9.40191 15.8235 7.84718 15.8235 6C15.8235 3.79086 14.1117 2 12 2C9.88835 2 8.17651 3.79086 8.17651 6C8.17651 7.84718 9.37334 9.40191 11 9.8618V11.3399L2 14.3992C2.68616 16.6085 4.02326 18.5338 5.81966 19.8992C7.61606 21.2646 9.77954 22 12 22C14.2205 22 16.384 21.2646 18.1804 19.8992C19.9768 18.5338 21.3139 16.6085 22 14.3992L13 11.3399V9.8618Z" fill="white"/>
<mask id="path-2-inside-1_780_897" fill="white">
<path d="M21.135 14.0902C20.5112 16.0986 19.2957 17.8489 17.6626 19.0902C16.0295 20.3315 14.0627 21 12.0441 21C10.0255 21 8.0587 20.3314 6.42561 19.0902C4.79252 17.8489 3.57697 16.0986 2.95319 14.0902L3.86312 13.7809C4.42447 15.5883 5.51835 17.1634 6.98798 18.2804C8.45761 19.3974 10.2275 19.9991 12.0441 19.9991C13.8607 19.9991 15.6306 19.3974 17.1002 18.2804C18.5699 17.1634 19.6637 15.5883 20.2251 13.7809L21.135 14.0902Z"/>
</mask>
<path d="M21.135 14.0902C20.5112 16.0986 19.2957 17.8489 17.6626 19.0902C16.0295 20.3315 14.0627 21 12.0441 21C10.0255 21 8.0587 20.3314 6.42561 19.0902C4.79252 17.8489 3.57697 16.0986 2.95319 14.0902L3.86312 13.7809C4.42447 15.5883 5.51835 17.1634 6.98798 18.2804C8.45761 19.3974 10.2275 19.9991 12.0441 19.9991C13.8607 19.9991 15.6306 19.3974 17.1002 18.2804C18.5699 17.1634 19.6637 15.5883 20.2251 13.7809L21.135 14.0902Z" stroke="#162936" stroke-width="4" mask="url(#path-2-inside-1_780_897)"/>
<path d="M11 12L12 11.5L13 12V18H11V12Z" fill="#162936"/>
</svg>
