<?xml version="1.0" standalone="no"?><!DOCTYPE svg PUBLIC "-//W3C//DTD SVG 1.1//EN" "http://www.w3.org/Graphics/SVG/1.1/DTD/svg11.dtd"><svg t="1721699056033" class="icon" viewBox="0 0 1024 1024" version="1.1" xmlns="http://www.w3.org/2000/svg" p-id="8225" width="32" height="32" xmlns:xlink="http://www.w3.org/1999/xlink"><path d="M128 266.666667v490.666666a53.393333 53.393333 0 0 0 53.333333 53.333334h661.333334a53.393333 53.393333 0 0 0 53.333333-53.333334V266.666667a53.393333 53.393333 0 0 0-53.333333-53.333334H181.333333a53.393333 53.393333 0 0 0-53.333333 53.333334z m725.333333 0v490.666666a10.666667 10.666667 0 0 1-10.666666 10.666667H181.333333a10.666667 10.666667 0 0 1-10.666666-10.666667V266.666667a10.666667 10.666667 0 0 1 10.666666-10.666667h661.333334a10.666667 10.666667 0 0 1 10.666666 10.666667z m-597.333333 608a21.333333 21.333333 0 0 1-21.333333 21.333333H96a53.393333 53.393333 0 0 1-53.333333-53.333333v-138.666667a21.333333 21.333333 0 0 1 42.666666 0v138.666667a10.666667 10.666667 0 0 0 10.666667 10.666666h138.666667a21.333333 21.333333 0 0 1 21.333333 21.333334zM42.666667 320V181.333333a53.393333 53.393333 0 0 1 53.333333-53.333333h138.666667a21.333333 21.333333 0 0 1 0 42.666667H96a10.666667 10.666667 0 0 0-10.666667 10.666666v138.666667a21.333333 21.333333 0 0 1-42.666666 0z m938.666666-138.666667v138.666667a21.333333 21.333333 0 0 1-42.666666 0V181.333333a10.666667 10.666667 0 0 0-10.666667-10.666666h-138.666667a21.333333 21.333333 0 0 1 0-42.666667h138.666667a53.393333 53.393333 0 0 1 53.333333 53.333333z m0 522.666667v138.666667a53.393333 53.393333 0 0 1-53.333333 53.333333h-138.666667a21.333333 21.333333 0 0 1 0-42.666667h138.666667a10.666667 10.666667 0 0 0 10.666667-10.666666v-138.666667a21.333333 21.333333 0 0 1 42.666666 0z" fill="#707070" p-id="8226"></path></svg>