<svg width="24" height="24" viewBox="0 0 24 24" fill="none" xmlns="http://www.w3.org/2000/svg">
<path d="M11.378 1.00234C15.2743 0.936567 17.405 2.26547 19.5019 3.95687C20.1238 4.45853 20.4758 5.22253 21.0492 5.76845L21.0278 5.81158L18.8142 6.95453C17.6603 4.91321 13.5748 2.69929 10.0671 3.69819C9.17616 3.93827 8.32271 4.30115 7.53107 4.7765L6.22011 3.37459C6.07831 3.23233 5.77916 3.03802 5.87622 2.85705L6.75737 2.3179C7.41256 1.97322 8.09555 1.68464 8.79907 1.45524C9.36647 1.26158 9.99977 1.18275 10.6259 1.06708L11.378 1.00234ZM10.7977 22.9995C9.55021 23.0183 8.33182 22.4995 7.44505 22.0722C4.41288 20.6113 2.45477 18.3261 1.38445 14.8907C0.388083 11.6924 1.49537 8.0224 2.80296 6.04874C3.1388 5.54134 3.46846 4.92712 3.94198 4.56067H3.98494L5.66132 6.35063L5.5753 6.43689L4.95211 7.25642C4.4521 8.04794 4.06164 8.90404 3.79147 9.80119C3.55644 10.5659 3.39199 11.7462 3.55504 12.6911C3.67297 13.3745 3.66521 13.925 3.85596 14.5026C4.62938 16.8454 6.0433 18.4418 8.00375 19.5921C8.52557 19.8983 9.17169 20.1165 9.78758 20.3037L10.7977 20.5199V23V22.9995ZM13.2263 22.9995L13.2478 20.4764C14.2739 20.4793 15.3257 19.9584 16.0201 19.549C18.3635 18.1677 19.7856 16.3388 20.4259 13.2302C20.6105 12.3341 20.5358 11.0193 20.3184 10.2328L19.9961 9.11141L22.2097 7.96847C22.4712 8.64762 22.6525 9.39161 22.833 10.1682C23.1325 11.4583 22.9966 13.3817 22.6826 14.5029C21.7304 17.9008 20.043 20.2071 17.2452 21.7275C16.1784 22.3069 14.7849 22.9826 13.2263 22.9995H13.2263ZM17.1163 8.42098C19.5112 8.35859 18.8324 11.8457 16.6435 10.9226L13.6346 13.1007C13.646 14.031 12.711 14.7827 11.7649 14.3516C10.978 13.9932 11.1921 13.7143 10.9482 13.187L7.40209 11.9362C6.59835 12.9777 4.6569 11.7819 5.27447 10.4266C5.85479 9.15257 7.87178 9.45879 7.832 11.1383L11.2276 12.3459C11.3408 12.1732 11.4934 12.03 11.6726 11.9282C11.8519 11.8263 12.0528 11.7688 12.2586 11.7604C12.4644 11.752 12.6692 11.7929 12.8562 11.8797C13.0431 11.9665 13.2068 12.0968 13.3336 12.2597L16.0416 10.2541C15.7002 9.00702 16.5326 8.48084 17.1163 8.42098ZM11.378 8.46411C12.0873 8.33473 12.727 8.70785 12.9254 9.49929C12.9887 9.74199 12.9737 9.99861 12.8825 10.2322C12.9148 10.2429 14.136 10.9839 14.1934 11.1379L13.4842 11.6555L12.3666 10.9007C11.8026 11.3301 11.3228 11.1471 10.841 10.8791L10.1102 11.5045L9.18611 11.181C9.57296 10.8288 10.3574 10.1458 10.3467 10.1243C10.0886 9.068 10.9482 8.58279 11.378 8.46411ZM17.1812 10.211C17.6569 10.3694 17.9768 9.58554 17.4822 9.32677C16.8157 9.10503 16.5302 9.99428 17.1808 10.211H17.1812ZM6.39252 10.5129C6.94411 10.3763 7.19486 11.3611 6.54294 11.4186C5.97694 11.4688 5.8064 10.6579 6.39205 10.5129H6.39252ZM15.6768 12.1088C16.0493 12.3603 16.4219 12.6119 16.7944 12.8636C17.0742 12.7852 17.3245 12.5669 17.7615 12.6475C18.6381 12.8099 19.2849 13.9173 18.6427 14.7825C18.0624 15.5639 16.7042 15.3932 16.343 14.5237C16.2214 14.2312 16.3421 13.7211 16.2356 13.51L14.9676 12.6475V12.6259L15.6768 12.1088ZM7.74645 12.4538L8.64912 12.7988L8.49861 12.9714L7.66052 13.7043C8.18983 15.4223 6.30182 16.281 5.40392 15.1061C4.76744 14.2736 5.28823 13.1122 6.19905 12.9279C6.56409 12.8541 6.83422 13.0048 7.0802 13.0572L7.74645 12.4538ZM12.1737 12.6699C11.6042 12.8748 11.8191 13.7159 12.4102 13.5757C13.0012 13.4355 12.7433 12.4648 12.1733 12.6695L12.1737 12.6699Z" fill="white"/>
</svg>
