<svg width="24" height="24" viewBox="0 0 24 24" fill="none" xmlns="http://www.w3.org/2000/svg">
<path d="M2.93311 4H21.0664V6.26667H2.93311V4Z" fill="white"/>
<path d="M4.06644 16.4667H19.9331L21.0664 21H2.93311L4.06644 16.4667Z" fill="white"/>
<rect x="10.8662" y="7.40002" width="2.26667" height="5.66667" fill="white"/>
<path d="M11.9994 15.3334L10.0365 12.7834L13.9624 12.7834L11.9994 15.3334Z" fill="white"/>
<rect x="16.5332" y="7.40002" width="2.26667" height="5.66667" fill="white"/>
<path d="M17.6664 15.3334L15.7034 12.7834L19.6294 12.7834L17.6664 15.3334Z" fill="white"/>
<rect x="5.19971" y="7.40002" width="2.26667" height="5.66667" fill="white"/>
<path d="M6.33294 15.3334L4.36995 12.7834L8.29593 12.7834L6.33294 15.3334Z" fill="white"/>
<circle cx="18.5" cy="5.5" r="5.5" fill="#162936"/>
<path d="M18.5 0.357178C16.0382 0.357178 14 2.39541 14 4.85718C14 7.31894 16.0382 9.35718 18.5 9.35718C20.9618 9.35718 23 7.34541 23 4.85718C23 2.36894 20.9882 0.357178 18.5 0.357178ZM20.4324 5.016C20.4588 5.25424 20.2735 5.43953 20.0618 5.43953H18.6588C18.5794 5.466 18.4735 5.43953 18.3412 5.43953H18.3147C18.0765 5.43953 17.8912 5.51894 17.8912 5.28071V2.73953C17.8912 2.5013 18.1029 2.316 18.3147 2.316C18.5529 2.316 18.7382 2.52777 18.7382 2.73953V4.566H20.0088C20.2471 4.566 20.4059 4.7513 20.4059 4.96306C20.4324 4.98953 20.4324 5.016 20.4324 5.016Z" fill="white"/>
</svg>
