<svg width="16" height="17" viewBox="0 0 16 17" fill="none" xmlns="http://www.w3.org/2000/svg">
<path d="M1 1H7.11075L7.70182 6.02409L1 7.54723V1Z" stroke="white" stroke-width="2"/>
<path d="M15 1H9.92936L10.4604 5.35483L15 4.39017V1Z" stroke="white" stroke-width="2"/>
<path fill-rule="evenodd" clip-rule="evenodd" d="M0 16.8H16V6L0 9.4311V16.8ZM10.1818 8.99998H13.8182C13.9182 8.99998 14 9.0964 14 9.21426V10.5C14 10.5676 13.973 10.6281 13.9312 10.6674L12.8016 11.9988L13.9469 13.3486C13.9653 13.3703 13.9795 13.3965 13.9885 13.4253L13.9891 13.4272L13.9907 13.4328L13.9923 13.4384L13.9927 13.4402C13.9974 13.4592 14 13.4793 14 13.5V14.7857C14 14.9035 13.9182 15 13.8182 15H10.1818C10.0818 15 10 14.9035 10 14.7857V13.5C10 13.4287 10.03 13.3653 10.0757 13.3263L11.2021 11.9988L10.0823 10.679C10.0328 10.6406 10 10.5746 10 10.5V9.21426C10 9.0964 10.0818 8.99998 10.1818 8.99998Z" fill="white"/>
</svg>
