<svg width="34" height="34" viewBox="0 0 34 34" fill="none" xmlns="http://www.w3.org/2000/svg">
<path fill-rule="evenodd" clip-rule="evenodd" d="M17.2266 7.12168C16.5915 7.53062 15.8486 7.7402 15.0934 7.72347C14.116 7.70443 13.1841 7.30697 12.4938 6.61474C11.8036 5.9225 11.4088 4.98948 11.3925 4.01204C11.3779 3.2568 11.5896 2.51447 12.0004 1.88054C12.4111 1.2466 13.0021 0.750045 13.6974 0.454747C14.3927 0.159449 15.1604 0.0789111 15.9018 0.223493C16.6432 0.368075 17.3244 0.731164 17.8578 1.26606C18.3911 1.80095 18.7523 2.48318 18.8948 3.225C19.0372 3.96683 18.9545 4.7343 18.6572 5.42872C18.3599 6.12314 17.8617 6.71274 17.2266 7.12168ZM4.51949 20.1901C6.69245 20.9245 8.81224 21.8077 10.8638 22.8335L10.8744 22.8124C11.9846 23.3411 14.0465 26.6824 14.0465 28.7972C14.036 29.6537 13.5813 31.0706 12.2173 33.3757C12.1494 33.4889 12.0534 33.5825 11.9384 33.6474C11.8235 33.7123 11.6937 33.7462 11.5617 33.7458H10.0813C9.94988 33.7462 9.8206 33.7121 9.70646 33.6468C9.59231 33.5816 9.4973 33.4875 9.43092 33.3741C9.36454 33.2606 9.32913 33.1316 9.32823 33.0002C9.32732 32.8687 9.36096 32.7393 9.42577 32.6249C10.0931 31.5025 10.5449 30.2653 10.7581 28.9769C10.8427 28.0147 8.70674 24.7474 6.16902 24.7474C5.95116 24.7474 4.94866 27.5353 4.05903 30.0093C3.56694 31.3777 3.10939 32.6502 2.83825 33.3017C2.7833 33.439 2.68845 33.5567 2.56594 33.6397C2.44343 33.7226 2.29888 33.7669 2.15095 33.7669H0.755196C0.639831 33.7662 0.526171 33.739 0.423042 33.6873C0.319912 33.6356 0.230086 33.5608 0.160539 33.4687C0.0909919 33.3767 0.0435943 33.2699 0.0220258 33.1565C0.000457384 33.0432 0.0052985 32.9264 0.0361733 32.8153C0.390561 31.5853 1.12511 29.1276 1.84862 26.7068C2.59305 24.2159 3.32579 21.7642 3.62071 20.7293C3.67061 20.54 3.79251 20.3776 3.96042 20.2769C4.12832 20.1761 4.32894 20.145 4.51949 20.1901ZM27.529 20.1691L33.8733 32.1493L33.8522 32.1176C33.9503 32.2897 34.0015 32.4846 34.0007 32.6827C33.9999 32.8808 33.947 33.0753 33.8475 33.2466C33.7479 33.4179 33.6051 33.56 33.4333 33.6588C33.2616 33.7576 33.0669 33.8095 32.8688 33.8094H16.6908C16.5593 33.8098 16.43 33.7757 16.3159 33.7105C16.2017 33.6453 16.1067 33.5512 16.0403 33.4377C15.974 33.3242 15.9385 33.1953 15.9376 33.0638C15.9367 32.9324 15.9704 32.803 16.0352 32.6886L19.3342 27.0844L11.076 20.7401L11.2241 20.9304C11.1823 21.0319 11.1574 21.135 11.1348 21.2284C11.0773 21.466 11.0351 21.6408 10.7694 21.5649C10.016 21.3479 8.57193 20.6671 7.23246 20.0355C6.22211 19.5592 5.27127 19.1109 4.72115 18.9108C4.54354 18.848 4.39602 18.7208 4.30788 18.5543C4.21974 18.3878 4.19741 18.1942 4.24533 18.0121C4.2966 17.8625 4.28572 17.8684 4.27128 17.8761C4.25 17.8875 4.22098 17.9031 4.37221 17.4305C4.41792 17.2841 4.41703 17.1272 4.36968 16.9813C4.32233 16.8355 4.23084 16.7079 4.10787 16.6163L1.30579 14.5015L0.491603 13.8459C0.279098 13.6347 0.13517 13.3644 0.0785855 13.0701C0.0220011 12.7759 0.0553859 12.4714 0.174387 12.1964C0.637046 11.1477 1.3415 9.89098 1.84078 9.00027C2.02615 8.66957 2.18323 8.38933 2.28916 8.18893C2.3463 8.08409 2.42637 7.9935 2.52341 7.92392C2.62045 7.85435 2.73194 7.80759 2.84958 7.78712C4.04442 7.60737 7.777 7.0681 9.40537 6.98351C9.67653 6.97012 9.94643 7.02847 10.1878 7.15269L14.8403 9.67984C14.9119 9.69559 14.98 9.72426 15.0412 9.76443C16.5533 11.2554 18.6364 20.5392 19.1016 23.2567C19.1383 23.4666 19.1383 23.6812 19.1016 23.8911L20.5502 25.2657L23.2994 21.4274C24.3568 19.6404 26.4716 18.3821 27.529 20.1691ZM5.71509 13.7614C6.03233 12.8882 6.40675 12.0369 6.83592 11.2131V11.1708C6.88568 11.0603 6.90796 10.9394 6.90086 10.8185C6.89377 10.6975 6.8575 10.5801 6.79517 10.4762C6.73283 10.3723 6.64628 10.285 6.5429 10.2219C6.43952 10.1587 6.32238 10.1215 6.20149 10.1134H4.62599C4.48747 10.1064 4.34988 10.1396 4.22981 10.209C4.10974 10.2784 4.01231 10.3811 3.94926 10.5046C3.55454 11.172 3.23536 11.8813 2.99761 12.6194L4.4991 14.0257C4.5879 14.1106 4.69618 14.1724 4.81443 14.2057C4.93268 14.239 5.05729 14.2427 5.17733 14.2166C5.29738 14.1905 5.40918 14.1354 5.50294 14.056C5.5967 13.9766 5.66955 13.8754 5.71509 13.7614ZM13.0322 16.0242L12.0277 18.4879L16.5639 22.2205C15.7461 20.1953 15.0401 18.1267 14.4491 16.0242C14.3976 15.8774 14.3018 15.7502 14.1749 15.6602C14.048 15.5702 13.8962 15.5219 13.7407 15.5219C13.5851 15.5219 13.4333 15.5702 13.3064 15.6602C13.1795 15.7502 13.0837 15.8774 13.0322 16.0242Z" fill="url(#paint0_linear_622_390)"/>
<defs>
<linearGradient id="paint0_linear_622_390" x1="17.0047" y1="0.153503" x2="17.0047" y2="33.8094" gradientUnits="userSpaceOnUse">
<stop stop-color="#133750"/>
<stop offset="1" stop-color="#061D2D"/>
</linearGradient>
</defs>
</svg>
