<svg width="24" height="24" viewBox="0 0 24 24" fill="none" xmlns="http://www.w3.org/2000/svg">
<path d="M20.5615 17.2116C20.3654 15.3269 19.7808 13.5016 18.8435 11.8474C17.9061 10.1932 16.6358 8.74503 15.1104 7.59158C12.1604 5.27184 6.46124 5.32406 6.46124 5.32406V3.11098C6.46408 2.96711 6.43797 2.82412 6.38443 2.69024C6.33088 2.55637 6.25095 2.43426 6.14926 2.33097C6.04757 2.22769 5.92613 2.14526 5.79193 2.08846C5.65774 2.03165 5.51346 2.00159 5.36741 2H1V4.21641H3.18991C3.33596 4.218 3.48024 4.24806 3.61443 4.30487C3.74862 4.36167 3.87007 4.4441 3.97176 4.54739C4.07345 4.65067 4.15337 4.77278 4.20692 4.90665C4.26047 5.04053 4.28657 5.18353 4.28374 5.32739V9.74688C4.28657 9.89075 4.26047 10.0337 4.20692 10.1676C4.15337 10.3015 4.07345 10.4236 3.97176 10.5269C3.87007 10.6302 3.74862 10.7126 3.61443 10.7694C3.48024 10.8262 3.33596 10.8563 3.18991 10.8579H1V13.0743H5.36854C5.51459 13.0727 5.65887 13.0426 5.79306 12.9858C5.92725 12.929 6.0487 12.8466 6.15039 12.7433C6.25208 12.64 6.33201 12.5179 6.38555 12.384C6.4391 12.2502 6.46521 12.1072 6.46237 11.9633V9.74355C7.77316 10.0789 8.95746 10.7807 9.8724 11.7644C11.0847 13.4349 11.7888 15.4111 11.9022 17.4615C13.0923 18.0328 14.4172 18.2758 15.7362 18.1648C17.3926 18.1543 19.0316 17.8315 20.5648 17.2138L20.5615 17.2116ZM12.3104 21.9977C11.7641 21.9855 11.2449 21.7611 10.8659 21.3733L10.0573 20.8389C9.9982 20.7772 9.92689 20.728 9.84778 20.6944C9.76866 20.6608 9.68341 20.6434 9.59725 20.6434C9.5111 20.6434 9.42585 20.6608 9.34673 20.6944C9.26762 20.728 9.19631 20.7772 9.13717 20.8389L8.32864 21.3733C8.14653 21.5707 7.92457 21.7284 7.67697 21.8363C7.42938 21.9443 7.16162 22 6.89088 22C6.62014 22 6.35238 21.9443 6.10479 21.8363C5.85719 21.7284 5.63522 21.5707 5.45312 21.3733L4.64459 20.8389C4.58545 20.7772 4.51414 20.728 4.43503 20.6944C4.35591 20.6608 4.27066 20.6434 4.1845 20.6434C4.09834 20.6434 4.01309 20.6608 3.93398 20.6944C3.85486 20.728 3.78355 20.7772 3.72442 20.8389L2.67908 21.6166C2.5992 21.6986 2.49991 21.7598 2.39012 21.7947C2.28032 21.8296 2.16345 21.837 2.05 21.8164C1.93655 21.7959 1.83006 21.7478 1.74009 21.6767C1.65012 21.6056 1.57948 21.5135 1.53451 21.4089C1.40291 21.1744 1.3485 20.9054 1.3788 20.6391C1.4091 20.3728 1.52262 20.1224 1.70366 19.9224L2.749 19.1447C2.9311 18.9473 3.15307 18.7896 3.40067 18.6817C3.64826 18.5738 3.91601 18.518 4.18676 18.518C4.4575 18.518 4.72526 18.5738 4.97285 18.6817C5.22044 18.7896 5.44241 18.9473 5.62452 19.1447L6.43305 19.6791C6.49218 19.7408 6.5635 19.79 6.64261 19.8236C6.72172 19.8572 6.80697 19.8746 6.89313 19.8746C6.97929 19.8746 7.06454 19.8572 7.14366 19.8236C7.22277 19.79 7.29408 19.7408 7.35322 19.6791L8.16175 19.1447C8.34385 18.9473 8.56582 18.7896 8.81342 18.6817C9.06101 18.5738 9.32877 18.518 9.59951 18.518C9.87025 18.518 10.138 18.5738 10.3856 18.6817C10.6332 18.7896 10.8552 18.9473 11.0373 19.1447L11.8458 19.6791C11.9049 19.7408 11.9762 19.79 12.0554 19.8236C12.1345 19.8572 12.2197 19.8746 12.3059 19.8746C12.392 19.8746 12.4773 19.8572 12.5564 19.8236C12.6355 19.79 12.7068 19.7408 12.766 19.6791L13.5745 19.1447C13.7566 18.9473 13.9786 18.7896 14.2262 18.6817C14.4738 18.5738 14.7415 18.518 15.0123 18.518C15.283 18.518 15.5508 18.5738 15.7984 18.6817C16.0459 18.7896 16.2679 18.9473 16.45 19.1447L17.2586 19.6791C17.3177 19.7408 17.389 19.79 17.4681 19.8236C17.5472 19.8572 17.6325 19.8746 17.7186 19.8746C17.8048 19.8746 17.89 19.8572 17.9692 19.8236C18.0483 19.79 18.1196 19.7408 18.1787 19.6791L18.9873 19.1447C19.1694 18.9473 19.3913 18.7896 19.6389 18.6817C19.8865 18.5738 20.1543 18.518 20.425 18.518C20.6958 18.518 20.9635 18.5738 21.2111 18.6817C21.4587 18.7896 21.6807 18.9473 21.8628 19.1447L22.6713 19.6791C22.8497 19.8804 22.9615 20.1307 22.9917 20.3963C23.0219 20.6619 22.9692 20.9303 22.8405 21.1656C22.7955 21.2702 22.7248 21.3623 22.6349 21.4334C22.5449 21.5045 22.4384 21.5526 22.325 21.5731C22.2115 21.5937 22.0946 21.5863 21.9848 21.5514C21.8751 21.5165 21.7758 21.4553 21.6959 21.3733L20.8874 20.8389C20.8282 20.7772 20.7569 20.728 20.6778 20.6944C20.5987 20.6608 20.5134 20.6434 20.4273 20.6434C20.3411 20.6434 20.2559 20.6608 20.1767 20.6944C20.0976 20.728 20.0263 20.7772 19.9672 20.8389L19.1587 21.3733C18.9765 21.5707 18.7546 21.7284 18.507 21.8363C18.2594 21.9443 17.9916 22 17.7209 22C17.4501 22 17.1824 21.9443 16.9348 21.8363C16.6872 21.7284 16.4652 21.5707 16.2831 21.3733L15.4746 20.8389C15.4155 20.7772 15.3442 20.728 15.265 20.6944C15.1859 20.6608 15.1007 20.6434 15.0145 20.6434C14.9284 20.6434 14.8431 20.6608 14.764 20.6944C14.6849 20.728 14.6136 20.7772 14.5544 20.8389L13.7459 21.3733C13.5627 21.5686 13.3408 21.7248 13.0939 21.8322C12.847 21.9396 12.5803 21.9959 12.3104 21.9977Z" fill="white"/>
<path d="M14.42 2.716H16.196C17.228 2.716 17.75 3.154 17.75 4.03C17.75 4.912 17.228 5.356 16.184 5.356H15.122V7H14.42V2.716ZM15.122 3.316V4.756H16.142C16.454 4.756 16.682 4.696 16.826 4.588C16.97 4.474 17.042 4.288 17.042 4.03C17.042 3.772 16.964 3.592 16.82 3.484C16.676 3.37 16.448 3.316 16.142 3.316H15.122ZM18.6516 2.716H19.3536V4.504H21.5256V2.716H22.2276V7H21.5256V5.104H19.3536V7H18.6516V2.716Z" fill="white"/>
<path d="M14.42 2.716V2.416H14.12V2.716H14.42ZM15.122 5.356V5.056H14.822V5.356H15.122ZM15.122 7V7.3H15.422V7H15.122ZM14.42 7H14.12V7.3H14.42V7ZM15.122 3.316V3.016H14.822V3.316H15.122ZM15.122 4.756H14.822V5.056H15.122V4.756ZM16.826 4.588L17.0061 4.82808L17.0122 4.82321L16.826 4.588ZM16.82 3.484L16.6337 3.71929L16.64 3.724L16.82 3.484ZM14.42 3.016H16.196V2.416H14.42V3.016ZM16.196 3.016C16.6766 3.016 16.9832 3.11902 17.1665 3.27377C17.3402 3.42036 17.45 3.65334 17.45 4.03H18.05C18.05 3.53066 17.8988 3.10664 17.5535 2.81523C17.2178 2.53198 16.7474 2.416 16.196 2.416V3.016ZM17.45 4.03C17.45 4.4103 17.3398 4.6463 17.1645 4.79491C16.9798 4.95152 16.6705 5.056 16.184 5.056V5.656C16.7415 5.656 17.2152 5.53848 17.5525 5.25259C17.8992 4.9587 18.05 4.5317 18.05 4.03H17.45ZM16.184 5.056H15.122V5.656H16.184V5.056ZM14.822 5.356V7H15.422V5.356H14.822ZM15.122 6.7H14.42V7.3H15.122V6.7ZM14.72 7V2.716H14.12V7H14.72ZM14.822 3.316V4.756H15.422V3.316H14.822ZM15.122 5.056H16.142V4.456H15.122V5.056ZM16.142 5.056C16.4828 5.056 16.7872 4.99211 17.006 4.828L16.646 4.348C16.5768 4.39989 16.4252 4.456 16.142 4.456V5.056ZM17.0122 4.82321C17.254 4.63181 17.342 4.34058 17.342 4.03H16.742C16.742 4.23542 16.686 4.31619 16.6398 4.35279L17.0122 4.82321ZM17.342 4.03C17.342 3.71196 17.2434 3.42652 17 3.244L16.64 3.724C16.6846 3.75748 16.742 3.83204 16.742 4.03H17.342ZM17.0062 3.24879C16.7821 3.07139 16.4702 3.016 16.142 3.016V3.616C16.4258 3.616 16.5699 3.66861 16.6338 3.71921L17.0062 3.24879ZM16.142 3.016H15.122V3.616H16.142V3.016ZM18.6516 2.716V2.416H18.3516V2.716H18.6516ZM19.3536 2.716H19.6536V2.416H19.3536V2.716ZM19.3536 4.504H19.0536V4.804H19.3536V4.504ZM21.5256 4.504V4.804H21.8256V4.504H21.5256ZM21.5256 2.716V2.416H21.2256V2.716H21.5256ZM22.2276 2.716H22.5276V2.416H22.2276V2.716ZM22.2276 7V7.3H22.5276V7H22.2276ZM21.5256 7H21.2256V7.3H21.5256V7ZM21.5256 5.104H21.8256V4.804H21.5256V5.104ZM19.3536 5.104V4.804H19.0536V5.104H19.3536ZM19.3536 7V7.3H19.6536V7H19.3536ZM18.6516 7H18.3516V7.3H18.6516V7ZM18.6516 3.016H19.3536V2.416H18.6516V3.016ZM19.0536 2.716V4.504H19.6536V2.716H19.0536ZM19.3536 4.804H21.5256V4.204H19.3536V4.804ZM21.8256 4.504V2.716H21.2256V4.504H21.8256ZM21.5256 3.016H22.2276V2.416H21.5256V3.016ZM21.9276 2.716V7H22.5276V2.716H21.9276ZM22.2276 6.7H21.5256V7.3H22.2276V6.7ZM21.8256 7V5.104H21.2256V7H21.8256ZM21.5256 4.804H19.3536V5.404H21.5256V4.804ZM19.0536 5.104V7H19.6536V5.104H19.0536ZM19.3536 6.7H18.6516V7.3H19.3536V6.7ZM18.9516 7V2.716H18.3516V7H18.9516Z" fill="white"/>
</svg>
