<svg width="24" height="17" viewBox="0 0 24 17" fill="none" xmlns="http://www.w3.org/2000/svg">
<path d="M15.2972 0.120117L15.2984 3.00252C15.8044 2.67252 16.2502 2.51892 16.8743 2.51892C17.6212 2.51892 18.1549 2.73492 18.7838 3.16692L19.0706 3.36972L19.22 3.46932C19.4561 3.62052 19.6308 3.69492 19.8669 3.74292C20.35 3.83892 20.9753 3.62412 21.7717 2.98692L23.28 4.85892C21.9753 5.90292 20.6705 6.35052 19.3922 6.09492C18.732 5.96292 18.2574 5.73012 17.6911 5.33772L17.4116 5.14092C17.149 4.96092 17.0478 4.91892 16.8743 4.91892C16.7538 4.91892 16.6586 4.96572 16.3382 5.21172L16.2611 5.26932C15.9093 5.54052 15.6069 5.74092 15.2972 5.88012L15.2984 7.80252C15.8044 7.47252 16.2502 7.31892 16.8743 7.31892C17.6212 7.31892 18.1549 7.53492 18.7838 7.96692L19.0706 8.16972L19.22 8.26932C19.4561 8.42052 19.6308 8.49492 19.8669 8.54292C20.35 8.63892 20.9753 8.42412 21.7717 7.78692L23.28 9.65892C21.9753 10.7029 20.6705 11.1505 19.3922 10.8949C18.732 10.7629 18.2574 10.5301 17.6911 10.1377L17.4116 9.94092C17.149 9.76092 17.0478 9.71892 16.8743 9.71892C16.7538 9.71892 16.6586 9.76572 16.3382 10.0117L16.2611 10.0693C15.9093 10.3405 15.6069 10.5409 15.2972 10.6801L15.2984 12.6025C15.8044 12.2725 16.2502 12.1189 16.8743 12.1189C17.6212 12.1189 18.1549 12.3349 18.7838 12.7669L19.0706 12.9697L19.22 13.0693C19.4561 13.2205 19.6308 13.2949 19.8669 13.3429C20.35 13.4389 20.9753 13.2241 21.7717 12.5869L23.28 14.4589C21.9753 15.5029 20.6705 15.9505 19.3922 15.6949C18.732 15.5629 18.2574 15.3301 17.6911 14.9377L17.4116 14.7409C17.149 14.5609 17.0478 14.5189 16.8743 14.5189C16.7538 14.5189 16.6586 14.5657 16.3382 14.8117L16.2611 14.8693C15.9093 15.1405 15.6069 15.3409 15.2972 15.4801V16.9201H8.06863V15.6049C7.80192 15.6852 7.52437 15.724 7.24578 15.7201C6.49882 15.7201 5.96511 15.5053 5.33622 15.0721L5.04949 14.8693L4.90009 14.7697C4.70561 14.6352 4.48537 14.5421 4.25313 14.4961C3.77002 14.4001 3.14475 14.6161 2.3484 15.2521L0.840027 13.3801C2.14479 12.3361 3.44955 11.8885 4.72661 12.1441C5.38802 12.2761 5.8627 12.5089 6.42894 12.9013L6.70845 13.0981C6.97109 13.2793 7.07108 13.3201 7.24578 13.3201C7.36625 13.3201 7.46023 13.2745 7.7819 13.0285L7.8578 12.9685C7.93008 12.9145 8.00117 12.8605 8.06984 12.8125V10.8049C7.80274 10.8853 7.52478 10.9242 7.24578 10.9201C6.49882 10.9201 5.96511 10.7053 5.33622 10.2721L5.04949 10.0693L4.90009 9.96972C4.70561 9.83521 4.48537 9.74207 4.25313 9.69612C3.77002 9.60012 3.14475 9.81612 2.3484 10.4521L0.840027 8.58012C2.14479 7.53612 3.44955 7.08852 4.72661 7.34412C5.38802 7.47612 5.8627 7.70892 6.42894 8.10132L6.70845 8.29812C6.97109 8.47932 7.07108 8.52012 7.24578 8.52012C7.36625 8.52012 7.46023 8.47452 7.7819 8.22852L7.8578 8.16852C7.93008 8.11452 8.00117 8.06052 8.06984 8.01252V6.00372C7.80274 6.08411 7.52478 6.12297 7.24578 6.11892C6.49882 6.11892 5.96511 5.90412 5.33622 5.47092L5.04949 5.26812L4.90009 5.16852C4.70561 5.034 4.48537 4.94087 4.25313 4.89492C3.77002 4.79892 3.14475 5.01492 2.3484 5.65092L0.840027 3.78012C2.14479 2.73612 3.44955 2.28852 4.72661 2.54412C5.38802 2.67612 5.8627 2.90892 6.42894 3.30132L6.70845 3.49812C6.97109 3.67932 7.07108 3.72012 7.24578 3.72012C7.36625 3.72012 7.46023 3.67452 7.7819 3.42852L7.8578 3.36852C7.93008 3.31452 8.00117 3.26052 8.06984 3.21252L8.06863 0.120117H15.2972ZM12.8877 2.52012H10.4782V3.72012H11.6829V6.12012H10.4782V7.32012H11.6829V9.72012H10.4782V10.9201H11.6829V13.3201H10.4782V14.5201H12.8877V2.52012Z" fill="white"/>
</svg>
