<svg width="20" height="20" viewBox="0 0 20 20" fill="none" xmlns="http://www.w3.org/2000/svg">
<path fill-rule="evenodd" clip-rule="evenodd" d="M16.5221 5.08478C17.4145 6.34237 18.216 7.66211 18.9204 9.03394C19.6373 10.4712 20 11.6526 20 12.5424C20 16.5679 16.5356 19.8424 12.2034 20.0001C10.3462 19.9418 8.55963 19.2748 7.11866 18.1018C6.67575 18.2203 6.2209 18.2885 5.76272 18.3051C2.56102 18.1831 0 15.6289 0 12.4933C0 11.7967 0.267797 10.8763 0.798306 9.75598C1.31604 8.68931 1.90788 7.66023 2.5695 6.67631C3.24916 5.6475 3.93221 4.71868 4.38475 4.12207C4.9034 3.44071 5.26102 3.00512 5.31018 2.94749C5.36013 2.87338 5.42753 2.81268 5.50643 2.77071C5.58534 2.72874 5.67335 2.70679 5.76272 2.70679C5.85209 2.70679 5.9401 2.72874 6.01901 2.77071C6.09791 2.81268 6.16531 2.87338 6.21526 2.94749C6.26442 3.00512 6.62204 3.4441 7.14069 4.12207C7.34408 4.38987 7.88476 5.08478 7.88476 5.08478C7.88476 5.08478 9.72713 2.57969 10.339 1.81529C11.0407 0.942403 11.5254 0.38308 11.5915 0.308503C11.6623 0.212821 11.7545 0.135067 11.8608 0.0814886C11.9671 0.0279102 12.0844 0 12.2034 0C12.3224 0 12.4398 0.0279102 12.546 0.0814886C12.6523 0.135067 12.7445 0.212821 12.8153 0.308503C12.8814 0.38308 13.3661 0.942403 14.0678 1.81529C14.6797 2.57969 15.6034 3.76783 16.5221 5.08478ZM2.33051 10.4797C1.75763 11.6933 1.69492 12.2916 1.69492 12.4933C1.69492 14.678 3.45424 16.4645 5.71696 16.6102C4.86709 15.4239 4.40903 14.0017 4.40679 12.5424C4.40679 11.6526 4.7695 10.4712 5.48645 9.03394C5.90502 8.20738 6.36492 7.4024 6.86442 6.62207C6.45425 6.03902 6.07628 5.52716 5.79153 5.15258L5.76272 5.11529L5.73391 5.15258C5.29662 5.72885 4.6373 6.62377 3.98475 7.6136C3.36768 8.52954 2.81494 9.48721 2.33051 10.4797ZM9.48476 13.6221C10.0294 13.6221 10.4339 13.4978 10.6983 13.2492C10.8346 13.1152 10.9406 12.9536 11.0093 12.7753C11.078 12.597 11.1078 12.4061 11.0966 12.2153C11.1081 12.0338 11.0817 11.8519 11.0189 11.6811C10.9562 11.5104 10.8585 11.3546 10.7322 11.2238C10.4882 10.991 10.122 10.8746 9.63391 10.8746H7.38984V15.2424H8.74578V13.6221H9.48476ZM15.361 15.2424H17.0187V9.90513H15.361V11.7695H13.5593V9.90513H11.9085V15.2424H13.5593V13.0831H15.361V15.2424ZM8.74573 11.7627H9.13047C9.22273 11.7543 9.31574 11.7642 9.40416 11.7918C9.49259 11.8195 9.57468 11.8643 9.64573 11.9237C9.73431 12.0143 9.78363 12.1361 9.78302 12.2627C9.78343 12.3274 9.76951 12.3913 9.74225 12.4499C9.715 12.5085 9.67509 12.5604 9.62539 12.6017C9.46289 12.7076 9.26934 12.7554 9.07624 12.7373H8.74573V11.7627Z" fill="white"/>
</svg>
