<svg width="34" height="36" viewBox="0 0 34 36" fill="none" xmlns="http://www.w3.org/2000/svg">
<path d="M5.27211 4.09003C7.66771 2.86203 10.0997 1.69843 12.4721 0.426025C15.2921 2.26603 18.1037 4.11003 20.9241 5.95403C20.9841 15.826 20.7521 25.6984 20.9677 35.5664C14.2481 35.5616 7.52771 35.578 0.808111 35.558C0.828111 27.7384 0.832111 19.922 0.803711 12.1024C2.31211 11.1184 3.82411 10.1424 5.34011 9.16643C5.32011 7.47403 5.29971 5.78243 5.27211 4.09003ZM11.9881 7.81803C12.0441 9.31003 12.0281 10.806 12.0601 12.302C13.5521 12.334 15.0485 12.33 16.5401 12.31C16.5881 10.81 16.5805 9.31003 16.5921 7.80603C15.0597 7.68603 13.5201 7.68243 11.9881 7.81803ZM5.44011 14.422C5.38811 15.93 5.39971 17.434 5.39611 18.9384C6.92051 19.0344 8.44851 19.0384 9.97211 18.9344C9.94011 17.4424 9.95211 15.9504 9.94411 14.4584C8.44371 14.3984 6.94371 14.406 5.44011 14.422ZM12.0521 14.446C12.0277 15.938 12.0437 17.434 11.9997 18.9256C13.5241 19.042 15.0597 19.034 16.5841 18.938C16.5801 17.434 16.5921 15.9296 16.5401 14.426C15.0437 14.406 13.5481 14.402 12.0521 14.446ZM5.44371 20.846C5.38771 22.35 5.39971 23.854 5.39171 25.3616C6.91611 25.4664 8.44811 25.474 9.97571 25.3536C9.93971 23.8616 9.95571 22.366 9.93531 20.87C8.43571 20.8256 6.94011 20.8344 5.44371 20.846ZM12.0481 20.8704C12.0277 22.362 12.0481 23.85 11.9881 25.3424C13.5201 25.4784 15.0601 25.4744 16.5881 25.358C16.5801 23.854 16.5881 22.354 16.5401 20.85C15.0437 20.8296 13.5481 20.822 12.0481 20.8704ZM5.39971 27.0256C5.39971 28.5296 5.38811 30.038 5.44371 31.542C6.93971 31.5576 8.43531 31.5664 9.93171 31.5216C9.95611 30.0256 9.94011 28.5296 9.97571 27.038C8.45211 26.9256 6.92011 26.9296 5.39971 27.0256ZM12.0037 27.0344C12.0401 28.5296 12.0281 30.026 12.0481 31.518C13.5437 31.5704 15.0437 31.5616 16.5397 31.5424C16.5917 30.0384 16.5801 28.53 16.5837 27.026C15.0586 26.9262 13.5285 26.929 12.0037 27.0344ZM23.0997 14.814C25.8841 14.814 28.6677 14.806 31.4521 14.822C31.4437 15.63 31.4397 16.442 31.4277 17.254C32.0161 17.258 32.6033 17.262 33.1957 17.27C33.1677 23.3664 33.1713 29.4616 33.1917 35.5576C29.2033 35.5576 25.2113 35.5984 21.2237 35.538C21.0801 29.4496 21.0197 23.3496 21.2673 17.266L23.1273 17.254C23.1161 16.442 23.1077 15.63 23.0997 14.814ZM23.3433 20.5704C23.3557 21.486 23.2393 22.426 23.4557 23.326C24.3313 23.3744 25.2033 23.354 26.0801 23.3424C26.0917 22.43 26.0997 21.518 26.1073 20.6104C25.1881 20.582 24.2637 20.5704 23.3433 20.5704ZM28.1521 20.558C28.1277 21.4784 28.1241 22.3988 28.1037 23.322C29.0241 23.3424 29.9481 23.3464 30.8677 23.3464C30.8801 22.43 30.8881 21.5184 30.8881 20.6064C29.9753 20.578 29.0637 20.5664 28.1521 20.558ZM23.3521 25.3616C23.3397 26.278 23.3397 27.1984 23.3277 28.114C24.2481 28.1344 25.1637 28.1384 26.0801 28.1384C26.0917 27.222 26.0997 26.3104 26.1037 25.394C25.1881 25.3704 24.2677 25.3616 23.3521 25.3616ZM28.1397 25.358C28.1241 26.2784 28.1241 27.1988 28.1117 28.1144C29.0321 28.1348 29.9525 28.1388 30.8717 28.1348C30.8801 27.2224 30.8881 26.3068 30.8881 25.394C29.9717 25.3704 29.0561 25.358 28.1397 25.358ZM23.3433 30.3744C23.3342 31.2783 23.3328 32.1822 23.3393 33.086C24.2557 33.1064 25.1713 33.1104 26.0877 33.1064C26.0957 32.1784 26.0917 31.25 26.0837 30.322C25.1677 30.3296 24.2561 30.342 23.3433 30.3744ZM28.1277 30.382C28.1197 31.286 28.1161 32.186 28.1237 33.086C29.0393 33.1064 29.9557 33.1064 30.8713 33.1024C30.8797 32.1744 30.8797 31.25 30.8713 30.322C29.9561 30.3296 29.0397 30.342 28.1277 30.382Z" fill="url(#paint0_linear_623_552)"/>
<defs>
<linearGradient id="paint0_linear_623_552" x1="16.9997" y1="0.426025" x2="16.9997" y2="35.5711" gradientUnits="userSpaceOnUse">
<stop stop-color="#133750"/>
<stop offset="1" stop-color="#061D2D"/>
</linearGradient>
</defs>
</svg>
