<svg width="22" height="18" viewBox="0 0 22 18" fill="none" xmlns="http://www.w3.org/2000/svg">
<path d="M7.14947 0.911411C7.1005 0.65141 6.96377 0.417478 6.76335 0.250796C6.56292 0.084115 6.31165 -0.00462925 6.05377 0.000186149H2.64066C2.36808 -0.00121631 2.10478 0.101743 1.90218 0.288958C1.69957 0.476173 1.57221 0.734202 1.54495 1.01266L0.00549377 16.7622C-0.00986759 16.9191 0.00707286 17.0776 0.055216 17.2274C0.103359 17.3771 0.181629 17.5148 0.284948 17.6315C0.388267 17.7482 0.514326 17.8412 0.654945 17.9047C0.795565 17.9681 0.947603 18.0005 1.1012 17.9997H9.69697C9.85838 17.9993 10.0177 17.9623 10.1635 17.8913C10.3094 17.8203 10.4382 17.7171 10.5407 17.5891C10.6454 17.4582 10.72 17.3048 10.7589 17.1402C10.7978 16.9756 10.8 16.8041 10.7653 16.6385L7.14947 0.911411ZM19.7555 6.49688L18.49 0.872037C18.4344 0.625014 18.2992 0.4045 18.1063 0.246249C17.9134 0.087999 17.6741 0.00129176 17.4271 0.000186149H9.95446C9.78956 7.75773e-05 9.62676 0.038185 9.4782 0.111668C9.32964 0.185152 9.19915 0.292115 9.09646 0.424585C8.99376 0.557055 8.92152 0.711615 8.88511 0.876743C8.84869 1.04187 8.84905 1.21331 8.88615 1.37827L10.1517 7.00312C10.2072 7.25014 10.3424 7.47066 10.5354 7.62891C10.7283 7.78716 10.9676 7.87386 11.2145 7.87497H18.6872C18.8521 7.87508 19.0149 7.83697 19.1635 7.76349C19.312 7.69 19.4425 7.58304 19.5452 7.45057C19.6479 7.3181 19.7201 7.16354 19.7566 6.99841C19.793 6.83329 19.7926 6.66185 19.7555 6.49688ZM11.2145 6.75L9.95446 1.12515H17.4271L18.6872 6.75H11.2145ZM21.9524 16.6329L20.6869 10.4455C20.6332 10.1955 20.4982 9.9717 20.3039 9.81113C20.1097 9.65057 19.8679 9.56284 19.6186 9.56242H12.1459C11.9798 9.55842 11.8151 9.59324 11.6641 9.66422C11.513 9.73521 11.3797 9.84052 11.2742 9.97218C11.1686 10.1038 11.0936 10.2584 11.0548 10.4242C11.016 10.59 11.0144 10.7627 11.0502 10.9293L12.3157 17.1166C12.3701 17.3704 12.5084 17.5971 12.7072 17.7581C12.9059 17.9191 13.1528 18.0045 13.4059 17.9997H20.8786C21.0447 18.0037 21.2094 17.9689 21.3604 17.8979C21.5114 17.8269 21.6448 17.7216 21.7503 17.5899C21.8559 17.4583 21.9309 17.3037 21.9697 17.1379C22.0085 16.9721 22.0101 16.7994 21.9743 16.6329H21.9524Z" fill="white"/>
</svg>
