<svg width="14" height="14" viewBox="0 0 14 14" fill="none" xmlns="http://www.w3.org/2000/svg">
<path opacity="0.75" d="M12.4444 3.11111V1.64111C12.4444 1.61842 12.4354 1.59666 12.4194 1.58061C12.4033 1.56457 12.3816 1.55556 12.3589 1.55556H1.64111C1.61842 1.55556 1.59666 1.56457 1.58061 1.58061C1.56457 1.59666 1.55556 1.61842 1.55556 1.64111V3.11111H12.4444ZM12.4444 4.66667H1.55556V12.3589C1.55556 12.4056 1.59444 12.4444 1.64111 12.4444H12.3589C12.4056 12.4444 12.4444 12.4056 12.4444 12.3589V4.66667ZM12.3589 14H1.64111C1.20586 14 0.788438 13.8271 0.48067 13.5193C0.172902 13.2116 0 12.7941 0 12.3589V1.64111C0 1.20586 0.172902 0.788438 0.48067 0.48067C0.788438 0.172902 1.20586 0 1.64111 0H12.3589C12.7941 0 13.2116 0.172902 13.5193 0.48067C13.8271 0.788438 14 1.20586 14 1.64111V12.3589C14 12.7941 13.8271 13.2116 13.5193 13.5193C13.2116 13.8271 12.7941 14 12.3589 14ZM7.77778 7.77778H3.88889C3.68261 7.77778 3.48478 7.69583 3.33892 7.54997C3.19306 7.40411 3.11111 7.20628 3.11111 7C3.11111 6.79372 3.19306 6.59589 3.33892 6.45003C3.48478 6.30417 3.68261 6.22222 3.88889 6.22222H7.77778C7.98406 6.22222 8.18189 6.30417 8.32775 6.45003C8.47361 6.59589 8.55556 6.79372 8.55556 7C8.55556 7.20628 8.47361 7.40411 8.32775 7.54997C8.18189 7.69583 7.98406 7.77778 7.77778 7.77778ZM10.1111 10.8889H7C6.79372 10.8889 6.59589 10.8069 6.45003 10.6611C6.30417 10.5152 6.22222 10.3174 6.22222 10.1111C6.22222 9.90483 6.30417 9.707 6.45003 9.56114C6.59589 9.41528 6.79372 9.33333 7 9.33333H10.1111C10.3174 9.33333 10.5152 9.41528 10.6611 9.56114C10.8069 9.707 10.8889 9.90483 10.8889 10.1111C10.8889 10.3174 10.8069 10.5152 10.6611 10.6611C10.5152 10.8069 10.3174 10.8889 10.1111 10.8889Z" fill="white"/>
</svg>
