<svg width="24" height="24" viewBox="0 0 24 24" fill="none" xmlns="http://www.w3.org/2000/svg">
<path d="M21 8.02041C21 8.53061 20.5714 8.93878 20.0357 8.93878C19.6905 8.93878 19.369 8.76871 19.2024 8.48526C19.0357 8.20181 19.0357 7.85034 19.2024 7.56689C19.2865 7.42765 19.408 7.31224 19.5545 7.23254C19.7009 7.15283 19.867 7.11171 20.0357 7.11338C20.5714 7.10204 21 7.5102 21 8.02041ZM20.7857 3.02041C20.7857 3.47392 20.4048 3.83673 19.9286 3.83673C19.4524 3.83673 19.0714 3.47392 19.0714 3.02041C19.0714 2.56689 19.4524 2.20408 19.9286 2.20408C20.4048 2.20408 20.7857 2.56689 20.7857 3.02041ZM21 13.2245C21 13.7914 20.5238 14.2449 19.9286 14.2449C19.3333 14.2449 18.8571 13.7914 18.8571 13.2245C18.8571 12.6576 19.3333 12.2041 19.9286 12.2041C20.5238 12.2041 21 12.6576 21 13.2245ZM18.2143 5.57143C18.2143 6.08163 17.7857 6.4898 17.25 6.4898C16.9048 6.4898 16.5833 6.31973 16.4167 6.03628C16.25 5.75283 16.25 5.40136 16.4167 5.11791C16.5008 4.97867 16.6223 4.86326 16.7688 4.78356C16.9152 4.70385 17.0813 4.66273 17.25 4.6644C17.7857 4.65306 18.2143 5.06122 18.2143 5.57143ZM18.4286 10.5714C18.4286 11.1383 17.9524 11.5918 17.3571 11.5918C16.7619 11.5918 16.2857 11.1383 16.2857 10.5714C16.2857 10.0045 16.7619 9.55102 17.3571 9.55102C17.9524 9.55102 18.4286 10.0045 18.4286 10.5714ZM18.4286 15.6735C18.4286 16.2404 17.9524 16.6939 17.3571 16.6939C16.7619 16.6939 16.2857 16.2404 16.2857 15.6735C16.2857 15.1066 16.7619 14.6531 17.3571 14.6531C17.9524 14.6531 18.4286 15.1066 18.4286 15.6735ZM15.6429 8.02041C15.6429 8.53061 15.2143 8.93878 14.6786 8.93878C14.3333 8.93878 14.0119 8.76871 13.8452 8.48526C13.6786 8.20181 13.6786 7.85034 13.8452 7.56689C13.9294 7.42765 14.0509 7.31224 14.1973 7.23254C14.3438 7.15283 14.5099 7.11171 14.6786 7.11338C15.2143 7.10204 15.6429 7.5102 15.6429 8.02041ZM15.8571 18.2245C15.8571 18.8481 15.3333 19.3469 14.6786 19.3469C14.0238 19.3469 13.5 18.8481 13.5 18.2245C13.5 17.6009 14.0238 17.102 14.6786 17.102C15.3333 17.102 15.8571 17.6009 15.8571 18.2245ZM15.8571 13.1224C15.8571 13.746 15.3333 14.2449 14.6786 14.2449C14.0238 14.2449 13.5 13.746 13.5 13.1224C13.5 12.4989 14.0238 12 14.6786 12C15.3333 12 15.8571 12.4989 15.8571 13.1224ZM13.2857 10.5714C13.2857 11.2517 12.7143 11.7959 12 11.7959C11.2857 11.7959 10.7143 11.2517 10.7143 10.5714C10.7143 9.89116 11.2857 9.34694 12 9.34694C12.7143 9.34694 13.2857 9.89116 13.2857 10.5714ZM13.2857 15.6735C13.2857 16.3537 12.7143 16.898 12 16.898C11.2857 16.898 10.7143 16.3537 10.7143 15.6735C10.7143 14.9932 11.2857 14.449 12 14.449C12.7143 14.449 13.2857 14.9932 13.2857 15.6735ZM13.2857 20.6735C13.2857 21.4104 12.6667 22 11.8929 22C11.119 22 10.5 21.4104 10.5 20.6735C10.5 19.9365 11.119 19.3469 11.8929 19.3469C12.6667 19.3469 13.2857 19.9365 13.2857 20.6735ZM10.2857 8.02041C10.2857 8.53061 9.85714 8.93878 9.32143 8.93878C8.97619 8.93878 8.65476 8.76871 8.4881 8.48526C8.32143 8.20181 8.32143 7.85034 8.4881 7.56689C8.57222 7.42765 8.69375 7.31224 8.8402 7.23254C8.98666 7.15283 9.15276 7.11171 9.32143 7.11338C9.85714 7.10204 10.2857 7.5102 10.2857 8.02041ZM10.7143 13.0204C10.7143 13.7007 10.1429 14.2449 9.42857 14.2449C8.71429 14.2449 8.14286 13.7007 8.14286 13.0204C8.14286 12.3401 8.71429 11.7959 9.42857 11.7959C10.1429 11.7959 10.7143 12.3401 10.7143 13.0204ZM10.7143 18.2245C10.7143 18.9615 10.0952 19.551 9.32143 19.551C8.54762 19.551 7.92857 18.9615 7.92857 18.2245C7.92857 17.4875 8.54762 16.898 9.32143 16.898C10.0952 16.898 10.7143 17.4875 10.7143 18.2245ZM7.71429 5.57143C7.71429 6.08163 7.28571 6.4898 6.75 6.4898C6.40476 6.4898 6.08333 6.31973 5.91667 6.03628C5.75 5.75283 5.75 5.40136 5.91667 5.11791C6.08333 4.83447 6.40476 4.6644 6.75 4.6644C7.28571 4.65306 7.71429 5.06122 7.71429 5.57143ZM7.71429 10.4694C7.71429 10.9796 7.28571 11.3878 6.75 11.3878C6.40476 11.3878 6.08333 11.2177 5.91667 10.9342C5.75 10.6508 5.75 10.2993 5.91667 10.0159C6.02112 9.83939 6.18412 9.70092 6.3801 9.62216C6.57608 9.5434 6.79397 9.52882 6.99959 9.5807C7.20521 9.63257 7.38695 9.74797 7.51629 9.90881C7.64563 10.0696 7.71527 10.2668 7.71429 10.4694ZM8.14286 15.5714C8.14286 16.3084 7.52381 16.898 6.75 16.898C5.97619 16.898 5.35714 16.3084 5.35714 15.5714C5.35714 14.8345 5.97619 14.2449 6.75 14.2449C7.52381 14.2449 8.14286 14.8345 8.14286 15.5714ZM4.92857 8.02041C4.92857 8.53061 4.5 8.93877 3.96429 8.93877C3.61905 8.93877 3.29762 8.76871 3.13095 8.48526C2.96429 8.20181 2.96429 7.85034 3.13095 7.56689C3.21507 7.42765 3.3366 7.31224 3.48306 7.23254C3.62952 7.15283 3.79561 7.11171 3.96429 7.11338C4.5 7.10204 4.92857 7.5102 4.92857 8.02041ZM4.79762 12.6576C4.96429 12.941 4.96429 13.2925 4.79762 13.576C4.63095 13.8594 4.30952 14.0295 3.96429 14.0295C3.61905 14.0295 3.29762 13.8594 3.13095 13.576C2.96429 13.2925 2.96429 12.941 3.13095 12.6576C3.21507 12.5183 3.3366 12.4029 3.48306 12.3232C3.62952 12.2435 3.79561 12.2024 3.96429 12.2041C4.30952 12.2041 4.63095 12.3741 4.79762 12.6576ZM4.92857 2.91837C4.92857 3.42857 4.5 3.83673 3.96429 3.83673C3.42857 3.83673 3 3.42857 3 2.91837C3 2.40816 3.42857 2 3.96429 2C4.5 2 4.92857 2.40816 4.92857 2.91837Z" fill="white"/>
</svg>
