<svg width="24" height="24" viewBox="0 0 24 24" fill="none" xmlns="http://www.w3.org/2000/svg">
<path fill-rule="evenodd" clip-rule="evenodd" d="M12.0001 3L6.00009 12.6H18.0001L12.0001 3ZM11.5001 11.64V10.68H12.5001V11.64H11.5001ZM11.5001 9.72V5.88H12.5001V9.72H11.5001ZM17.8322 13.8888C16.6679 13.8888 15.4929 14.0063 14.3286 14.2413C12.5875 14.5831 10.8784 15.1493 9.23347 15.8649C7.58849 16.5806 6.00761 17.4458 4.48014 18.4178C3.72174 18.9092 2.97403 19.4219 2.24768 19.956C1.98064 20.1589 1.7136 20.3619 1.45724 20.5648C1.4786 20.6289 1.49997 20.693 1.51065 20.7571C1.58199 20.8998 1.66822 21.0425 1.7507 21.1789L1.79905 21.2591L2.02337 21.4835C2.20495 21.601 2.39722 21.7078 2.58949 21.8039C3.09153 21.9748 3.60425 22.1137 4.12765 22.2205C4.31992 22.2632 4.51219 22.3166 4.69377 22.3807C5.20649 21.8253 5.75125 21.2805 6.3067 20.7464C7.51372 19.6035 8.8062 18.5353 10.1841 17.5847C11.5621 16.634 13.0361 15.8115 14.6063 15.1813C15.3327 14.8929 16.0804 14.6365 16.8495 14.4443C16.6892 14.519 16.5824 14.5618 16.5824 14.5618L17.1379 14.4977C16.5504 14.7113 15.9843 14.957 15.4288 15.2561C14.1043 15.9504 12.8759 16.869 11.7864 17.9372C10.6969 19.0053 9.7355 20.223 8.90234 21.5262C8.67802 21.8787 8.46439 22.2419 8.26144 22.605H11.6475C12.0748 21.4194 12.6195 20.2764 13.3139 19.1976C14.0402 18.0547 14.9375 16.9865 15.9843 16.0786C16.764 15.4056 17.6292 14.8181 18.5585 14.3374L18.6119 14.3268C18.3449 14.1879 18.0885 14.049 17.8322 13.8888ZM16.9991 13.8461C13.6558 13.8355 10.3231 14.1132 7.14 14.8395C5.54843 15.2027 3.9996 15.6834 2.53621 16.3136C1.93804 16.5806 1.35055 16.869 0.795108 17.1788C0.7417 16.7088 0.698974 16.2495 0.656247 15.7902C0.645566 15.4163 0.645566 15.0318 0.666929 14.6579C0.682951 14.5885 0.698974 14.5217 0.714996 14.455C0.731019 14.3882 0.747041 14.3215 0.763064 14.252C0.768404 14.2414 0.771075 14.228 0.773745 14.2147C0.776416 14.2013 0.779086 14.1879 0.784427 14.1773C0.913283 14.144 1.04052 14.1091 1.16677 14.0745C1.36496 14.0202 1.56071 13.9666 1.75646 13.9209C3.4762 13.5043 5.19594 13.2693 6.905 13.1732C10.3338 12.9702 13.7092 13.2693 16.9991 13.8461ZM19.1942 14.5939C19.2289 14.6072 19.2637 14.6206 19.2957 14.6366C18.9112 16.4525 18.6441 18.2683 18.548 20.0735C18.4946 20.9281 18.4839 21.7826 18.5053 22.6158H15.4824C15.7814 21.5796 16.1446 20.5756 16.5398 19.6035C17.2769 17.8304 18.1421 16.1534 19.0927 14.5511C19.1248 14.5671 19.1595 14.5805 19.1942 14.5939ZM20.1182 14.9624C20.2143 14.9971 20.3104 15.0318 20.4066 15.0638L23.3227 18.8772V19.4219C23.3013 19.5181 23.2799 19.6035 23.2479 19.6997C23.1838 19.8172 23.1197 19.924 23.0449 20.0415C22.81 20.2872 22.5643 20.5328 22.3079 20.7572C22.105 20.896 21.8913 21.0349 21.6777 21.1631L19.8298 14.8609C19.9259 14.8929 20.022 14.9277 20.1182 14.9624Z" fill="white"/>
<rect x="13" width="10" height="10" rx="2" fill="#162936"/>
<path d="M20.8096 1H15.1904C14.5452 1 14 1.54519 14 2.19038V7.80962C14 8.45481 14.5452 9 15.1904 9H20.8096C21.4548 9 22 8.45481 22 7.80962V2.19038C22 1.54519 21.4548 1 20.8096 1ZM20.9192 4.26827L19.4183 5.76923L18.8558 6.33173C18.8212 6.36635 18.7644 6.36635 18.7298 6.33173L18.1673 5.76923L17.2346 4.83654L15.7125 6.35865C15.6779 6.39327 15.6212 6.39327 15.5865 6.35865L15.0808 5.85288C15.0462 5.81827 15.0462 5.76154 15.0808 5.72692L17.1654 3.64231C17.2 3.60769 17.2567 3.60769 17.2913 3.64231L18.7933 5.14327L20.2942 3.64327C20.3288 3.60865 20.3856 3.60865 20.4202 3.64327L20.9192 4.14231C20.9548 4.17596 20.9548 4.23269 20.9192 4.26827Z" fill="white"/>
</svg>
