<svg width="42" height="42" viewBox="0 0 42 42" fill="none" xmlns="http://www.w3.org/2000/svg">
<path fill-rule="evenodd" clip-rule="evenodd" d="M22.009 29.7712L22.009 29.7714L22.009 29.7715C22.0278 30.2232 22.0467 30.6749 22.0693 31.1262C22.1113 31.7975 22.1526 32.4688 22.1938 33.1401C22.3146 35.1084 22.4355 37.0767 22.5774 39.0435C22.6195 39.6222 22.4802 39.8426 21.8808 39.7988C21.1953 39.7482 20.5071 39.7482 19.8216 39.7988C19.2198 39.8435 19.0819 39.6166 19.1232 39.0417C19.2636 37.0959 19.3846 35.1486 19.5056 33.2011L19.5056 33.2009L19.5056 33.2002C19.5486 32.5083 19.5916 31.8164 19.6354 31.1245C19.6729 30.379 19.6841 29.6279 19.6954 28.8768V28.8767V28.8767C19.7215 27.1328 19.7477 25.389 20.1012 23.7159C20.3325 22.6215 20.3448 21.5485 20.3571 20.4812V20.4812V20.4812C20.3655 19.7555 20.3738 19.0324 20.4509 18.307C20.4978 17.8669 20.362 17.6287 19.9295 17.4268C18.9327 16.962 18.5017 15.9435 18.7748 14.938C19.0581 13.8949 19.9825 13.1952 20.9705 13.2753C22.0149 13.3603 22.7952 14.1043 22.9671 15.18C23.0925 15.9596 22.5883 17.0693 21.8327 17.3892C21.3139 17.6088 21.2353 17.9134 21.2462 18.4064C21.2563 18.8577 21.2337 19.3161 21.2112 19.7738L21.2112 19.7739V19.774V19.774C21.1669 20.6736 21.1227 21.5708 21.3268 22.4072C21.6034 23.5394 21.6853 24.6667 21.7674 25.7963L21.7674 25.7963L21.7674 25.7964C21.7894 26.0989 21.8113 26.4015 21.8371 26.7044C21.9236 27.7242 21.9663 28.7477 22.009 29.7711L22.009 29.7712ZM20.8952 14.7498C20.412 14.7317 20.1394 15.0489 20.1361 15.5326C20.1333 15.9731 20.4533 16.1318 20.7943 16.2025C21.3091 16.1925 21.5306 15.864 21.5529 15.46C21.5747 15.0593 21.2906 14.7644 20.8952 14.7498ZM20.1245 5.60324V5.60326V5.60328C20.1247 6.03084 20.125 6.45839 20.125 6.88593L20.1049 6.88615C20.1049 7.36371 20.1068 7.84132 20.1088 8.31894V8.31897V8.31899C20.1137 9.51312 20.1186 10.7073 20.0929 11.9008C20.0787 12.5576 20.1387 12.9939 20.9524 12.8392C21.2851 12.7759 21.5996 12.9163 21.9083 13.0541L21.98 13.086C22.0426 13.1138 22.1059 13.1599 22.1701 13.2066C22.3418 13.3315 22.5193 13.4607 22.7047 13.2554L22.739 13.2175C22.9889 12.9422 23.2427 12.6626 23.1414 12.1651C22.6068 9.53978 22.0947 6.90991 21.5826 4.27996L21.5826 4.27975C21.405 3.36788 21.2275 2.456 21.049 1.5443C20.9858 1.22154 20.8797 0.969183 20.4662 1.00305C20.0911 1.03358 20.1076 1.26669 20.1234 1.48801V1.48803V1.48805C20.1266 1.53313 20.1297 1.57772 20.1296 1.62001C20.1229 2.94769 20.1237 4.27549 20.1245 5.60324ZM30.5895 21.9749C31.2774 22.2106 31.515 22.022 31.5019 21.2563C31.6042 20.8375 31.306 20.6737 31.015 20.5139C30.9702 20.4893 30.9256 20.4648 30.8827 20.4395C30.1344 19.9982 29.3845 19.56 28.6346 19.1218C27.1701 18.266 25.7058 17.4103 24.2543 16.5323C23.6823 16.1861 23.305 16.0402 23.0422 16.8351C22.9373 17.153 22.6666 17.3718 22.4014 17.5861L22.3395 17.6363C22.2794 17.685 22.1993 17.7204 22.1182 17.7561C21.9159 17.8453 21.7078 17.937 21.7906 18.2466C21.9061 18.6772 22.0911 19.0522 22.5861 19.2197C24.203 19.7671 25.8158 20.3255 27.4288 20.884C28.4819 21.2486 29.5351 21.6133 30.5895 21.9749ZM11.3271 21.7813C11.3092 21.8654 11.2884 21.9629 11.2736 22.0767C11.8579 21.7324 12.4362 21.3914 13.0102 21.053L13.03 21.0413L13.0429 21.0337L13.0457 21.032C14.9323 19.9197 16.7711 18.8356 18.6127 17.7563C18.9382 17.5652 19.0424 17.3777 18.7739 17.0426C18.4742 16.6687 18.3331 16.2233 18.2647 15.7398C18.2532 15.658 18.2668 15.563 18.2806 15.4667C18.3153 15.2248 18.3512 14.9747 17.9917 14.905C17.5633 14.822 17.1538 14.8373 16.7693 15.1928C15.2863 16.5642 13.7769 17.9066 12.262 19.2421C12.2208 19.2784 12.1793 19.3146 12.138 19.3506C11.5078 19.8998 10.8976 20.4316 11.3461 21.4447C11.3816 21.5251 11.3588 21.6321 11.3271 21.7813ZM9.99531 30.9612C9.99581 31.1276 9.9963 31.294 10.0019 31.4597C10.0459 32.1516 10.0888 32.8437 10.1317 33.5358L10.1317 33.5359L10.1317 33.536C10.249 35.4261 10.3662 37.3161 10.5058 39.2045C10.5495 39.7968 10.4617 40.0337 9.79281 40.0182L9.68565 40.0158C8.15763 39.9809 8.13629 39.9805 8.22748 38.3869C8.31983 36.7704 8.43125 35.1553 8.54267 33.5402C8.5899 32.8555 8.63714 32.1708 8.68292 31.486C8.70266 31.1939 8.70801 30.9027 8.71337 30.6116C8.7265 29.8977 8.73961 29.1845 8.96493 28.4599C9.12793 27.9355 9.09721 27.351 9.06637 26.7645C9.05085 26.4691 9.03529 26.1733 9.04444 25.8843C9.06082 25.3665 9.02522 24.9913 8.46601 24.6729C7.70497 24.2399 7.65997 23.138 8.23862 22.4792C8.81333 21.825 9.86293 21.827 10.4315 22.4834C11.0056 23.1464 10.9468 24.218 10.2017 24.6827C9.71526 24.9859 9.6482 25.3275 9.63029 25.8296C9.5818 27.1941 9.73558 28.5349 9.93916 29.8778C9.99313 30.2334 9.99422 30.5972 9.99531 30.9612V30.9612ZM9.34173 23.0662C9.04706 23.0709 8.87515 23.2274 8.8959 23.532C8.91381 23.795 9.09053 23.9105 9.26637 23.9158C9.61915 23.9136 9.73929 23.7376 9.73973 23.4904C9.74038 23.242 9.61697 23.0618 9.34173 23.0662ZM33.3394 21.7863C33.9115 22.1006 34.0028 21.7524 34.0267 21.3539C34.0184 21.2769 34.0124 21.2065 34.0067 21.1408C33.9957 21.0121 33.9862 20.9013 33.9644 20.793C33.6161 19.0234 33.2647 17.254 32.9134 15.4847L32.9132 15.4836L32.6667 14.2418C32.6576 14.1962 32.6513 14.1477 32.6448 14.0987C32.6142 13.8656 32.5823 13.6227 32.2566 13.6326C31.8617 13.6444 31.8801 13.9238 31.8969 14.1785V14.1785C31.9003 14.2309 31.9037 14.2822 31.9034 14.3299C31.8986 15.0832 31.8985 15.8366 31.8983 16.5899C31.8981 17.8454 31.8979 19.1008 31.8759 20.356L31.8752 20.3988C31.8622 21.1324 31.8511 21.7608 32.8814 21.6121C33.0026 21.5946 33.1447 21.6757 33.2729 21.7488L33.273 21.7488C33.2956 21.7618 33.3179 21.7744 33.3394 21.7863ZM8.76109 16.7134C8.76132 17.0118 8.76156 17.3103 8.76156 17.6088L8.74933 17.609C8.74933 17.8481 8.74894 18.0872 8.74855 18.3262V18.3262V18.3262C8.74766 18.8672 8.74678 19.4081 8.75042 19.9491C8.7513 20.0774 8.7445 20.2076 8.7378 20.3361C8.70113 21.0389 8.66704 21.6921 9.90356 21.7134C9.97454 21.7147 10.0412 21.7163 10.1037 21.7179C10.8565 21.7364 11.0034 21.74 10.8319 20.851C10.5553 19.4158 10.2701 17.9822 9.98493 16.5487C9.82559 15.7478 9.66625 14.9468 9.5084 14.1455C9.50386 14.1224 9.49959 14.099 9.49531 14.0756C9.45329 13.8452 9.41035 13.6099 9.0997 13.6304C8.74381 13.6537 8.75292 13.9116 8.76143 14.1523C8.76279 14.191 8.76414 14.2292 8.76396 14.2659C8.7598 15.0818 8.76045 15.8976 8.76109 16.7134ZM40.2754 28.3385C40.5791 28.4457 40.865 28.5466 40.9997 28.0357C40.9775 27.8196 40.8012 27.7246 40.6255 27.6299C40.5879 27.6096 40.5503 27.5894 40.5143 27.568L40.3221 27.4541L40.3214 27.4537C38.7964 26.5501 37.272 25.6468 35.7427 24.752C35.6371 24.6901 35.5314 24.6217 35.4252 24.553C35.1029 24.3445 34.7761 24.133 34.4334 24.0934C34.24 24.071 34.1444 24.2679 34.0396 24.4838C33.9568 24.6544 33.8683 24.8367 33.7213 24.9321C33.6909 24.9517 33.6637 24.9762 33.6364 25.0008L33.6364 25.0008C33.6223 25.0135 33.6082 25.0262 33.5937 25.0382C32.9982 25.5363 33.0358 25.7711 33.7704 26.0892C33.9952 26.1864 34.2261 26.2688 34.4581 26.3478C35.1537 26.5859 35.8496 26.8235 36.5455 27.061C37.7678 27.4782 38.9902 27.8954 40.2111 28.316C40.2326 28.3234 40.2541 28.331 40.2754 28.3385ZM7.89955 24.8231C7.8689 25.0415 7.72303 25.12 7.58238 25.1956C7.55463 25.2105 7.52709 25.2253 7.50068 25.2411C5.56761 26.3932 3.63238 27.5416 1.69501 28.6863C1.66572 28.7036 1.63626 28.7234 1.60659 28.7434C1.43883 28.8563 1.26453 28.9736 1.07966 28.6692C0.895969 28.3666 1.06225 28.2182 1.25244 28.0485L1.25791 28.0436C1.78091 27.5759 2.30317 27.1074 2.82542 26.6389C4.07457 25.5183 5.32369 24.3977 6.5828 23.2886C6.9939 22.9262 7.3836 22.8368 7.43602 23.6138C7.46296 24.0098 7.65038 24.3586 7.82827 24.6896C7.85234 24.7344 7.87624 24.7789 7.89955 24.8231ZM31.0421 24.8198C31.0155 25.04 30.8673 25.121 30.7249 25.1989C30.7001 25.2124 30.6755 25.2259 30.6517 25.24C28.7034 26.3997 26.7529 27.5559 24.8004 28.7084C24.7754 28.7231 24.7501 28.7398 24.7245 28.7567C24.5732 28.8565 24.4118 28.9629 24.244 28.7048C24.0671 28.4326 24.1621 28.2575 24.376 28.0669C25.0284 27.486 25.6789 26.903 26.3294 26.32C27.4701 25.2977 28.6106 24.2755 29.7614 23.2649C30.2417 22.843 30.5681 23.0095 30.6253 23.6813C30.6552 24.0376 30.8042 24.3377 30.9491 24.6294C30.9807 24.6931 31.0121 24.7564 31.0421 24.8198ZM11.5011 24.1312L11.5013 24.1314C11.6077 24.1874 11.727 24.2503 11.843 24.3182L12.3391 24.6089C14.0253 25.5971 15.7116 26.5854 17.3938 27.5801C17.431 27.6021 17.472 27.6227 17.5138 27.6436L17.5138 27.6437C17.7172 27.7458 17.9376 27.8565 17.813 28.1764C17.667 28.5507 17.4199 28.4504 17.1809 28.3534C17.1377 28.3359 17.0948 28.3184 17.0528 28.3039C16.5325 28.1245 16.012 27.9453 15.4916 27.7662L15.4827 27.7631L15.4818 27.7628C13.8786 27.211 12.2754 26.6591 10.6755 26.0985C9.8738 25.8175 9.84409 25.5685 10.473 25.0133C10.6474 24.8589 10.7868 24.6614 10.9243 24.4668C10.9463 24.4356 10.9682 24.4046 10.9902 24.3738C11.0108 24.3452 11.0283 24.3139 11.0459 24.2825C11.1082 24.1711 11.1714 24.0583 11.3738 24.0636C11.4131 24.0849 11.4559 24.1074 11.5011 24.1312ZM33.2022 32.5507C33.2913 33.8265 33.3803 35.1026 33.3494 36.3876C33.3314 37.131 33.4358 37.8785 33.54 38.6246C33.5777 38.8941 33.6153 39.1634 33.6471 39.4324C33.6984 39.8634 33.5674 39.9982 33.1218 40.0123L33.0722 40.0139C31.2663 40.0712 31.2652 40.0712 31.3799 38.2106C31.4861 36.4916 31.5947 34.7727 31.7032 33.0537C31.7576 32.1916 31.812 31.3295 31.8662 30.4674C31.8483 29.763 31.9468 29.0675 32.0454 28.3713C32.167 27.5131 32.2887 26.654 32.1925 25.7759C32.1906 25.7586 32.1888 25.7415 32.187 25.7246C32.1401 25.2894 32.1065 24.9774 31.6464 24.7153C31.04 24.3693 30.8714 23.7174 31.0805 23.0336C31.2919 22.3411 31.8111 21.9701 32.5062 21.9841C33.1611 21.9971 33.6368 22.3604 33.8621 23.017C34.1043 23.7234 33.8902 24.3361 33.3168 24.698C32.8607 24.986 32.7585 25.2993 32.7862 25.779C32.8068 26.1359 32.8022 26.494 32.7975 26.8521C32.7873 27.6256 32.7772 28.3993 33.0217 29.1617C33.1583 29.5892 33.1774 30.0463 33.077 30.484C33.1062 31.1737 33.1542 31.8621 33.2022 32.5507ZM32.558 23.0688C32.2755 23.0338 32.0671 23.1556 32.0348 23.4555C32.0075 23.711 32.155 23.8759 32.4051 23.9122C32.693 23.9536 32.871 23.8143 32.9376 23.5232C32.9241 23.2764 32.8127 23.1007 32.558 23.0688ZM19.6606 40.9941C20.0534 40.994 20.4462 40.9939 20.8389 40.9939C21.2105 40.9939 21.582 40.994 21.9535 40.9941C23.2023 40.9946 24.4511 40.995 25.6994 40.9906C25.7441 40.9904 25.7916 40.9928 25.8399 40.9952C26.1004 41.0082 26.387 41.0225 26.4135 40.647C26.4464 40.1786 26.0781 40.1794 25.7557 40.1801C25.7416 40.1801 25.7277 40.1801 25.7138 40.1801C22.4733 40.1777 19.2328 40.1777 15.9922 40.1799C15.9734 40.1799 15.9544 40.1798 15.9352 40.1797C15.6179 40.178 15.2578 40.1761 15.2762 40.6322C15.2915 41.0143 15.5875 41.004 15.8557 40.9947C15.8976 40.9932 15.9389 40.9918 15.9782 40.9919C17.2056 40.9947 18.4332 40.9944 19.6606 40.9941ZM31.5962 40.9938C31.8691 40.9936 32.142 40.9935 32.4149 40.9935C32.7 40.9935 32.9852 40.9937 33.2705 40.994C34.0815 40.9948 34.8928 40.9956 35.7037 40.9899C35.7379 40.9897 35.7747 40.9914 35.8125 40.9931C36.0255 41.0029 36.2701 41.0142 36.2481 40.6906C36.231 40.4395 36.0083 40.4505 35.8157 40.46C35.7795 40.4618 35.7443 40.4636 35.7118 40.4635C33.5466 40.4586 31.381 40.4586 29.2156 40.4637C29.1866 40.4638 29.1555 40.4625 29.1236 40.4612C28.9329 40.4533 28.712 40.4442 28.7084 40.7205C28.7048 41.0027 28.9318 40.9971 29.1288 40.9922C29.1558 40.9916 29.1823 40.9909 29.2076 40.991C30.0037 40.9948 30.7999 40.9943 31.5962 40.9938ZM8.46659 40.9939C8.74377 40.9937 9.02096 40.9935 9.29815 40.9935C9.57068 40.9935 9.8432 40.9936 10.1157 40.9938C10.9126 40.9944 11.7094 40.9949 12.5061 40.9908C12.5399 40.9906 12.5758 40.992 12.6127 40.9934C12.8302 41.0017 13.0786 41.0113 13.0819 40.7125C13.0847 40.4524 12.8356 40.4574 12.6313 40.4614C12.6067 40.4619 12.5828 40.4624 12.5601 40.4624C10.3938 40.4593 8.2278 40.4586 6.06154 40.4639C6.03415 40.464 6.00489 40.4628 5.9748 40.4617C5.78337 40.4542 5.55869 40.4454 5.57398 40.7373C5.58807 41.0077 5.80623 40.9998 5.99889 40.9929C6.03024 40.9918 6.06092 40.9907 6.08993 40.9908C6.88206 40.9951 7.67431 40.9945 8.46659 40.9939Z" fill="url(#paint0_linear_623_531)"/>
<path d="M22.009 29.7715L21.7592 29.7815L21.7592 29.7819L22.009 29.7715ZM22.0693 31.1262L21.8196 31.1388L21.8198 31.1419L22.0693 31.1262ZM22.1938 33.1401L21.9443 33.1554L22.1938 33.1401ZM22.5774 39.0435L22.328 39.0615L22.328 39.0617L22.5774 39.0435ZM21.8808 39.7988L21.8624 40.0481L21.8625 40.0481L21.8808 39.7988ZM19.8216 39.7988L19.8032 39.5495L19.803 39.5495L19.8216 39.7988ZM19.1232 39.0417L18.8739 39.0237L18.8738 39.0238L19.1232 39.0417ZM19.5056 33.2011L19.2562 33.1833L19.256 33.1856L19.5056 33.2011ZM19.5056 33.2009L19.7549 33.2187L19.7551 33.2165L19.5056 33.2009ZM19.5056 33.2002L19.7551 33.2158L19.7551 33.2157L19.5056 33.2002ZM19.6354 31.1245L19.885 31.1403L19.8851 31.137L19.6354 31.1245ZM19.6954 28.8768L19.9454 28.8805V28.8768H19.6954ZM19.6954 28.8767L19.4454 28.873V28.8767H19.6954ZM20.1012 23.7159L19.8566 23.6642L19.8566 23.6643L20.1012 23.7159ZM20.3571 20.4812L20.6071 20.4841V20.4812H20.3571ZM20.3571 20.4812L20.1071 20.4783V20.4812H20.3571ZM20.4509 18.307L20.2023 18.2805L20.2023 18.2806L20.4509 18.307ZM19.9295 17.4268L20.0352 17.2003L20.0351 17.2003L19.9295 17.4268ZM18.7748 14.938L18.5335 14.8725L18.5335 14.8725L18.7748 14.938ZM20.9705 13.2753L20.9908 13.0261L20.9908 13.0261L20.9705 13.2753ZM22.9671 15.18L22.7202 15.2194L22.7202 15.2196L22.9671 15.18ZM21.8327 17.3892L21.9302 17.6194L21.9302 17.6194L21.8327 17.3892ZM21.2462 18.4064L20.9963 18.4119L20.9963 18.412L21.2462 18.4064ZM21.2112 19.7738L21.4604 19.7965L21.4609 19.7861L21.2112 19.7738ZM21.2112 19.7739L20.9622 19.7513L20.9612 19.7626V19.7739H21.2112ZM21.2112 19.774L21.4612 19.7863V19.774H21.2112ZM21.3268 22.4072L21.0839 22.4665L21.084 22.4665L21.3268 22.4072ZM21.7674 25.7963L21.5177 25.8144L21.5193 25.8273L21.7674 25.7963ZM21.7674 25.7964L22.0171 25.7782L22.0155 25.7654L21.7674 25.7964ZM21.8371 26.7044L22.0862 26.6833L22.0862 26.6832L21.8371 26.7044ZM22.009 29.7711L22.2588 29.7611L22.2588 29.7607L22.009 29.7711ZM20.1361 15.5326L19.8861 15.5309V15.531L20.1361 15.5326ZM20.8952 14.7498L20.8858 14.9997L20.886 14.9997L20.8952 14.7498ZM20.7943 16.2025L20.7436 16.4473L20.771 16.4529L20.7991 16.4524L20.7943 16.2025ZM21.5529 15.46L21.8025 15.4737L21.8025 15.4736L21.5529 15.46ZM20.1245 5.60324H20.3745V5.60309L20.1245 5.60324ZM20.1245 5.60328H19.8745V5.60342L20.1245 5.60328ZM20.125 6.88593L20.1277 7.13591L20.375 7.13319V6.88593H20.125ZM20.1049 6.88615L20.1021 6.63616L19.8549 6.63889V6.88615H20.1049ZM20.1088 8.31894H20.3588L20.3588 8.31792L20.1088 8.31894ZM20.1088 8.31899H19.8588L19.8588 8.32001L20.1088 8.31899ZM20.0929 11.9008L20.3428 11.9062L20.3428 11.9062L20.0929 11.9008ZM20.9524 12.8392L20.9991 13.0848L20.9991 13.0848L20.9524 12.8392ZM21.9083 13.0541L21.8064 13.2824L21.8067 13.2825L21.9083 13.0541ZM21.98 13.086L21.8783 13.3144L21.8785 13.3145L21.98 13.086ZM22.1701 13.2066L22.023 13.4087H22.023L22.1701 13.2066ZM22.7047 13.2554L22.5195 13.0875L22.5192 13.0878L22.7047 13.2554ZM22.739 13.2175L22.5539 13.0495L22.5538 13.0497L22.739 13.2175ZM23.1414 12.1651L22.8964 12.215V12.215L23.1414 12.1651ZM21.5826 4.27996L21.3369 4.32598L21.3372 4.32774L21.5826 4.27996ZM21.5826 4.27975L21.8283 4.23372L21.828 4.23196L21.5826 4.27975ZM21.049 1.5443L20.8036 1.59229L20.8036 1.59233L21.049 1.5443ZM20.4662 1.00305L20.4864 1.25223L20.4866 1.25222L20.4662 1.00305ZM20.1234 1.48801H20.3734V1.47914L20.3727 1.47029L20.1234 1.48801ZM20.1234 1.48805H19.8734V1.49692L19.874 1.50577L20.1234 1.48805ZM20.1296 1.62001L20.3796 1.62125L20.3796 1.6211L20.1296 1.62001ZM31.5019 21.2563L31.2591 21.197L31.2514 21.2284L31.252 21.2606L31.5019 21.2563ZM30.5895 21.9749L30.5084 22.2114L30.5085 22.2114L30.5895 21.9749ZM31.015 20.5139L30.8946 20.733H30.8946L31.015 20.5139ZM30.8827 20.4395L30.7557 20.6548L30.7557 20.6548L30.8827 20.4395ZM28.6346 19.1218L28.5085 19.3376L28.6346 19.1218ZM24.2543 16.5323L24.1249 16.7462L24.125 16.7462L24.2543 16.5323ZM23.0422 16.8351L22.8049 16.7567L22.8048 16.7568L23.0422 16.8351ZM22.4014 17.5861L22.2443 17.3917L22.2441 17.3918L22.4014 17.5861ZM22.3395 17.6363L22.1821 17.442L22.182 17.4421L22.3395 17.6363ZM22.1182 17.7561L22.219 17.9849H22.219L22.1182 17.7561ZM21.7906 18.2466L21.5491 18.3112L21.5491 18.3114L21.7906 18.2466ZM22.5861 19.2197L22.506 19.4565L22.506 19.4565L22.5861 19.2197ZM27.4288 20.884L27.5105 20.6477L27.4288 20.884ZM11.2736 22.0767L11.0257 22.0445L10.9597 22.5519L11.4005 22.2921L11.2736 22.0767ZM11.3271 21.7813L11.5716 21.8333H11.5716L11.3271 21.7813ZM13.0102 21.053L13.1372 21.2684L13.1372 21.2684L13.0102 21.053ZM13.03 21.0413L13.157 21.2567L13.157 21.2567L13.03 21.0413ZM13.0429 21.0337L12.916 20.8183L12.9159 20.8184L13.0429 21.0337ZM13.0457 21.032L13.1727 21.2474L13.1727 21.2474L13.0457 21.032ZM18.6127 17.7563L18.7391 17.9719L18.7393 17.9719L18.6127 17.7563ZM18.7739 17.0426L18.9691 16.8863L18.969 16.8862L18.7739 17.0426ZM18.2647 15.7398L18.0172 15.7748V15.7748L18.2647 15.7398ZM18.2806 15.4667L18.5281 15.5022V15.5022L18.2806 15.4667ZM17.9917 14.905L17.9441 15.1505H17.9441L17.9917 14.905ZM16.7693 15.1928L16.5996 15.0093V15.0093L16.7693 15.1928ZM12.262 19.2421L12.4273 19.4297L12.4274 19.4296L12.262 19.2421ZM12.138 19.3506L11.9737 19.1621L11.9737 19.1621L12.138 19.3506ZM11.3461 21.4447L11.5749 21.3438L11.5747 21.3435L11.3461 21.4447ZM10.0019 31.4597L9.75188 31.468L9.75236 31.4755L10.0019 31.4597ZM9.99531 30.9612H9.74531L9.74531 30.9619L9.99531 30.9612ZM10.1317 33.5358L9.88221 33.5512L9.88222 33.5513L10.1317 33.5358ZM10.1317 33.536L10.3813 33.5206L10.3813 33.5204L10.1317 33.536ZM10.5058 39.2045L10.7551 39.1861L10.7551 39.186L10.5058 39.2045ZM9.79281 40.0182L9.7986 39.7683L9.79855 39.7683L9.79281 40.0182ZM9.68565 40.0158L9.69139 39.7658H9.69135L9.68565 40.0158ZM8.22748 38.3869L8.47707 38.4012L8.47707 38.4012L8.22748 38.3869ZM8.54267 33.5402L8.29326 33.523L8.54267 33.5402ZM8.68292 31.486L8.43349 31.4691L8.43348 31.4693L8.68292 31.486ZM8.71337 30.6116L8.46341 30.607L8.71337 30.6116ZM8.96493 28.4599L9.20365 28.5341L9.20366 28.5341L8.96493 28.4599ZM9.06637 26.7645L9.31603 26.7514L9.06637 26.7645ZM9.04444 25.8843L9.29431 25.8922L9.04444 25.8843ZM8.46601 24.6729L8.58969 24.4557L8.58964 24.4556L8.46601 24.6729ZM8.23862 22.4792L8.0508 22.3142L8.05078 22.3142L8.23862 22.4792ZM10.4315 22.4834L10.6205 22.3197L10.6205 22.3197L10.4315 22.4834ZM10.2017 24.6827L10.334 24.8948L10.334 24.8948L10.2017 24.6827ZM9.63029 25.8296L9.38045 25.8207L9.38045 25.8207L9.63029 25.8296ZM9.93916 29.8778L9.69199 29.9152L9.69199 29.9153L9.93916 29.8778ZM9.99531 30.9612H10.2453L10.2453 30.9604L9.99531 30.9612ZM8.8959 23.532L9.14532 23.515L9.14532 23.515L8.8959 23.532ZM9.34173 23.0662L9.34568 23.3162L9.34575 23.3162L9.34173 23.0662ZM9.26637 23.9158L9.25882 24.1659L9.26794 24.1658L9.26637 23.9158ZM9.73973 23.4904L9.48973 23.4897L9.48973 23.4899L9.73973 23.4904ZM34.0267 21.3539L34.2762 21.3689L34.2775 21.348L34.2752 21.3273L34.0267 21.3539ZM33.3394 21.7863L33.4598 21.5672L33.4596 21.5671L33.3394 21.7863ZM34.0067 21.1408L34.2558 21.1195V21.1195L34.0067 21.1408ZM33.9644 20.793L33.7191 20.8413L33.7193 20.8424L33.9644 20.793ZM32.9134 15.4847L32.6682 15.5334L32.6682 15.5334L32.9134 15.4847ZM32.9132 15.4836L33.1584 15.4349L33.1584 15.4349L32.9132 15.4836ZM32.6667 14.2418L32.4214 14.2903L32.4214 14.2905L32.6667 14.2418ZM32.6448 14.0987L32.8927 14.0662V14.0662L32.6448 14.0987ZM32.2566 13.6326L32.2641 13.8825L32.2642 13.8825L32.2566 13.6326ZM31.8969 14.1785H32.1469V14.1702L32.1463 14.162L31.8969 14.1785ZM31.8969 14.1785H31.6469V14.1867L31.6474 14.1949L31.8969 14.1785ZM31.9034 14.3299L32.1534 14.3315V14.3315L31.9034 14.3299ZM31.8983 16.5899L31.6483 16.5898L31.8983 16.5899ZM31.8759 20.356L31.6259 20.3516V20.3516L31.8759 20.356ZM31.8752 20.3988L32.1251 20.4032V20.4032L31.8752 20.3988ZM32.8814 21.6121L32.8457 21.3646L32.8457 21.3646L32.8814 21.6121ZM33.2729 21.7488L33.4016 21.5344L33.3968 21.5317L33.2729 21.7488ZM33.273 21.7488L33.1443 21.9633L33.1491 21.966L33.273 21.7488ZM8.76156 17.6088L8.76608 17.8588L9.01156 17.8543V17.6088H8.76156ZM8.76109 16.7134L9.01109 16.7132V16.7132L8.76109 16.7134ZM8.74933 17.609L8.74481 17.3591L8.49933 17.3635V17.609H8.74933ZM8.74855 18.3262L8.49855 18.3258V18.3262H8.74855ZM8.74855 18.3262L8.99855 18.3267V18.3262H8.74855ZM8.75042 19.9491L8.50042 19.9508V19.9508L8.75042 19.9491ZM8.7378 20.3361L8.48814 20.3231L8.7378 20.3361ZM9.90356 21.7134L9.90792 21.4635H9.90787L9.90356 21.7134ZM10.1037 21.7179L10.0975 21.9678H10.0975L10.1037 21.7179ZM10.8319 20.851L10.5864 20.8983L10.5864 20.8983L10.8319 20.851ZM9.98493 16.5487L10.2301 16.4999L9.98493 16.5487ZM9.5084 14.1455L9.26311 14.1938L9.26312 14.1938L9.5084 14.1455ZM9.49531 14.0756L9.74125 14.0307L9.74125 14.0307L9.49531 14.0756ZM9.0997 13.6304L9.11601 13.8799L9.11616 13.8798L9.0997 13.6304ZM8.76143 14.1523L9.01127 14.1435L8.76143 14.1523ZM8.76396 14.2659L9.01396 14.2672V14.2672L8.76396 14.2659ZM40.9997 28.0357L41.2414 28.0995L41.253 28.0555L41.2484 28.0103L40.9997 28.0357ZM40.2754 28.3385L40.1922 28.5742L40.1922 28.5742L40.2754 28.3385ZM40.6255 27.6299L40.7441 27.4098L40.6255 27.6299ZM40.5143 27.568L40.642 27.3531L40.6417 27.3529L40.5143 27.568ZM40.3221 27.4541L40.1945 27.6691L40.1947 27.6692L40.3221 27.4541ZM40.3214 27.4537L40.449 27.2387L40.4488 27.2386L40.3214 27.4537ZM35.7427 24.752L35.6164 24.9677L35.6164 24.9677L35.7427 24.752ZM35.4252 24.553L35.2894 24.7629L35.4252 24.553ZM34.4334 24.0934L34.4047 24.3417L34.4047 24.3417L34.4334 24.0934ZM34.0396 24.4838L34.2645 24.593L34.2645 24.593L34.0396 24.4838ZM33.7213 24.9321L33.8566 25.1424L33.8574 25.1418L33.7213 24.9321ZM33.6364 25.0008L33.8037 25.1866L33.8038 25.1865L33.6364 25.0008ZM33.6364 25.0008L33.4691 24.815L33.469 24.8151L33.6364 25.0008ZM33.5937 25.0382L33.4345 24.8455L33.4333 24.8464L33.5937 25.0382ZM33.7704 26.0892L33.6711 26.3187L33.6712 26.3187L33.7704 26.0892ZM34.4581 26.3478L34.539 26.1113L34.5387 26.1112L34.4581 26.3478ZM36.5455 27.061L36.6263 26.8244L36.5455 27.061ZM40.2111 28.316L40.1297 28.5524L40.1298 28.5524L40.2111 28.316ZM7.58238 25.1956L7.70078 25.4158L7.70079 25.4158L7.58238 25.1956ZM7.89955 24.8231L8.14712 24.8579L8.15834 24.778L8.12072 24.7066L7.89955 24.8231ZM7.50068 25.2411L7.62867 25.4558L7.62874 25.4558L7.50068 25.2411ZM1.69501 28.6863L1.56784 28.471L1.56767 28.4711L1.69501 28.6863ZM1.60659 28.7434L1.74616 28.9508L1.74616 28.9508L1.60659 28.7434ZM1.07966 28.6692L0.865961 28.7989L0.865994 28.799L1.07966 28.6692ZM1.25244 28.0485L1.41889 28.235L1.41895 28.235L1.25244 28.0485ZM1.25791 28.0436L1.42442 28.2301L1.42456 28.23L1.25791 28.0436ZM2.82542 26.6389L2.65847 26.4528L2.82542 26.6389ZM6.5828 23.2886L6.74805 23.4762L6.74811 23.4762L6.5828 23.2886ZM7.43602 23.6138L7.18659 23.6306L7.1866 23.6308L7.43602 23.6138ZM7.82827 24.6896L7.60805 24.808L7.60805 24.808L7.82827 24.6896ZM30.7249 25.1989L30.8448 25.4183L30.8448 25.4183L30.7249 25.1989ZM31.0421 24.8198L31.2903 24.8498L31.2989 24.7782L31.2681 24.713L31.0421 24.8198ZM30.6517 25.24L30.5243 25.0249L30.5238 25.0252L30.6517 25.24ZM24.8004 28.7084L24.9271 28.9239L24.9275 28.9237L24.8004 28.7084ZM24.7245 28.7567L24.5868 28.548L24.5868 28.548L24.7245 28.7567ZM24.244 28.7048L24.0344 28.8411L24.0344 28.8411L24.244 28.7048ZM24.376 28.0669L24.2097 27.8801L24.2096 27.8802L24.376 28.0669ZM26.3294 26.32L26.1625 26.1338H26.1625L26.3294 26.32ZM29.7614 23.2649L29.9263 23.4528L29.9263 23.4528L29.7614 23.2649ZM30.6253 23.6813L30.8744 23.6604L30.8744 23.6601L30.6253 23.6813ZM30.9491 24.6294L31.173 24.5183L31.173 24.5183L30.9491 24.6294ZM11.5013 24.1314L11.6179 23.9102L11.6166 23.9095L11.5013 24.1314ZM11.5011 24.1312L11.3845 24.3524L11.3858 24.3531L11.5011 24.1312ZM11.843 24.3182L11.9694 24.1025L11.9693 24.1024L11.843 24.3182ZM12.3391 24.6089L12.2127 24.8246L12.2127 24.8246L12.3391 24.6089ZM17.3938 27.5801L17.5211 27.3649L17.521 27.3649L17.3938 27.5801ZM17.5138 27.6436L17.4016 27.867L17.402 27.8673L17.5138 27.6436ZM17.5138 27.6437L17.626 27.4203L17.6256 27.4201L17.5138 27.6437ZM17.813 28.1764L18.0459 28.2673L18.0459 28.2672L17.813 28.1764ZM17.1809 28.3534L17.0869 28.585L17.0869 28.585L17.1809 28.3534ZM17.0528 28.3039L17.1343 28.0676L17.1343 28.0676L17.0528 28.3039ZM15.4916 27.7662L15.4102 28.0026L15.4102 28.0026L15.4916 27.7662ZM15.4827 27.7631L15.4007 27.9993L15.4013 27.9995L15.4827 27.7631ZM15.4818 27.7628L15.5638 27.5266L15.5632 27.5265L15.4818 27.7628ZM10.6755 26.0985L10.7581 25.8625H10.7581L10.6755 26.0985ZM10.473 25.0133L10.6384 25.2007L10.6387 25.2005L10.473 25.0133ZM10.9243 24.4668L11.1285 24.611H11.1285L10.9243 24.4668ZM10.9902 24.3738L10.7874 24.2276L10.7869 24.2284L10.9902 24.3738ZM11.0459 24.2825L10.8277 24.1605L11.0459 24.2825ZM11.3738 24.0636L11.4926 23.8437L11.4401 23.8153L11.3804 23.8137L11.3738 24.0636ZM33.3494 36.3876L33.5993 36.3937V36.3937L33.3494 36.3876ZM33.2022 32.5507L32.9528 32.5681V32.5681L33.2022 32.5507ZM33.54 38.6246L33.2924 38.6592L33.54 38.6246ZM33.6471 39.4324L33.3988 39.4617L33.3989 39.4619L33.6471 39.4324ZM33.1218 40.0123L33.1297 40.2622H33.1297L33.1218 40.0123ZM33.0722 40.0139L33.0643 39.764H33.0643L33.0722 40.0139ZM31.3799 38.2106L31.1304 38.1952V38.1952L31.3799 38.2106ZM31.7032 33.0537L31.9527 33.0695L31.7032 33.0537ZM31.8662 30.4674L32.1157 30.483L32.1164 30.472L32.1161 30.461L31.8662 30.4674ZM32.0454 28.3713L31.7979 28.3363L32.0454 28.3713ZM32.1925 25.7759L31.944 25.803L31.944 25.8031L32.1925 25.7759ZM32.187 25.7246L31.9384 25.7514V25.7514L32.187 25.7246ZM31.6464 24.7153L31.5225 24.9325L31.5227 24.9325L31.6464 24.7153ZM31.0805 23.0336L31.3195 23.1067L31.3196 23.1066L31.0805 23.0336ZM32.5062 21.9841L32.5012 22.234H32.5012L32.5062 21.9841ZM33.8621 23.017L34.0985 22.9359L34.0985 22.9359L33.8621 23.017ZM33.3168 24.698L33.1834 24.4866L33.1834 24.4867L33.3168 24.698ZM32.7862 25.779L33.0358 25.7646V25.7646L32.7862 25.779ZM32.7975 26.8521L32.5475 26.8489L32.7975 26.8521ZM33.0217 29.1617L33.2599 29.0856L33.2598 29.0854L33.0217 29.1617ZM33.077 30.484L32.8333 30.428L32.8258 30.4609L32.8272 30.4945L33.077 30.484ZM32.0348 23.4555L31.7863 23.4287L31.7862 23.4289L32.0348 23.4555ZM32.558 23.0688L32.589 22.8207L32.5887 22.8207L32.558 23.0688ZM32.4051 23.9122L32.3692 24.1596L32.3695 24.1596L32.4051 23.9122ZM32.9376 23.5232L33.1813 23.579L33.1892 23.5447L33.1872 23.5096L32.9376 23.5232ZM19.6606 40.9941L19.6606 40.7441H19.6606L19.6606 40.9941ZM21.9535 40.9941L21.9536 40.7441H21.9536L21.9535 40.9941ZM25.6994 40.9906L25.7003 41.2406H25.7004L25.6994 40.9906ZM25.8399 40.9952L25.8274 41.2449H25.8274L25.8399 40.9952ZM26.4135 40.647L26.6629 40.6646L26.6629 40.6645L26.4135 40.647ZM25.7557 40.1801L25.7551 39.9301H25.7551L25.7557 40.1801ZM25.7138 40.1801L25.7137 40.4301H25.7137L25.7138 40.1801ZM15.9922 40.1799V40.4299H15.9924L15.9922 40.1799ZM15.9352 40.1797L15.9338 40.4297H15.9338L15.9352 40.1797ZM15.2762 40.6322L15.526 40.6222L15.526 40.6221L15.2762 40.6322ZM15.8557 40.9947L15.847 40.7449H15.847L15.8557 40.9947ZM15.9782 40.9919L15.9777 41.2419H15.9777L15.9782 40.9919ZM31.5962 40.9938L31.596 40.7438H31.596L31.5962 40.9938ZM33.2705 40.994L33.2702 41.244H33.2702L33.2705 40.994ZM35.7037 40.9899L35.702 40.7399H35.702L35.7037 40.9899ZM35.8125 40.9931L35.801 41.2428L35.8125 40.9931ZM36.2481 40.6906L35.9986 40.7076L35.9986 40.7076L36.2481 40.6906ZM35.8157 40.46L35.8281 40.7097H35.8281L35.8157 40.46ZM35.7118 40.4635L35.7112 40.7135H35.7113L35.7118 40.4635ZM29.2156 40.4637L29.2151 40.2137H29.2148L29.2156 40.4637ZM29.1236 40.4612L29.1339 40.2114H29.1339L29.1236 40.4612ZM28.7084 40.7205L28.9584 40.7237V40.7237L28.7084 40.7205ZM29.1288 40.9922L29.1226 40.7423H29.1226L29.1288 40.9922ZM29.2076 40.991L29.2087 40.741H29.2086L29.2076 40.991ZM8.46659 40.9939L8.46678 41.2439H8.46678L8.46659 40.9939ZM10.1157 40.9938L10.1155 41.2438H10.1155L10.1157 40.9938ZM12.5061 40.9908L12.505 40.7408H12.5049L12.5061 40.9908ZM12.6127 40.9934L12.6031 41.2432H12.6031L12.6127 40.9934ZM13.0819 40.7125L13.3319 40.7153L13.3319 40.7152L13.0819 40.7125ZM12.6313 40.4614L12.6362 40.7114H12.6362L12.6313 40.4614ZM12.5601 40.4624L12.5597 40.7124H12.5601V40.4624ZM6.06154 40.4639L6.0621 40.7139H6.06215L6.06154 40.4639ZM5.9748 40.4617L5.96503 40.7115H5.96504L5.9748 40.4617ZM5.57398 40.7373L5.82364 40.7243L5.82364 40.7242L5.57398 40.7373ZM5.99889 40.9929L6.00788 41.2427H6.00789L5.99889 40.9929ZM6.08993 40.9908L6.09128 40.7408H6.09099L6.08993 40.9908ZM22.2588 29.7614L22.2588 29.7612L21.7592 29.7812L21.7592 29.7813L22.2588 29.7614ZM22.2588 29.7615L22.2588 29.7614L21.7592 29.7813L21.7592 29.7815L22.2588 29.7615ZM22.319 31.1137C22.2964 30.6636 22.2776 30.213 22.2588 29.7611L21.7592 29.7819C21.7781 30.2335 21.7969 30.6862 21.8196 31.1388L22.319 31.1137ZM22.4433 33.1248C22.4021 32.4535 22.3609 31.782 22.3188 31.1106L21.8198 31.1419C21.8618 31.8129 21.903 32.4841 21.9443 33.1554L22.4433 33.1248ZM22.8267 39.0255C22.685 37.0603 22.5642 35.0933 22.4433 33.1248L21.9443 33.1554C22.0651 35.1235 22.186 37.0931 22.328 39.0615L22.8267 39.0255ZM21.8625 40.0481C22.1747 40.071 22.4715 40.0367 22.6595 39.8172C22.8365 39.6107 22.8477 39.3138 22.8267 39.0253L22.328 39.0617C22.3492 39.3519 22.3118 39.4546 22.2798 39.4919C22.2589 39.5164 22.1863 39.5705 21.899 39.5495L21.8625 40.0481ZM19.84 40.0481C20.5132 39.9985 21.1891 39.9985 21.8624 40.0481L21.8992 39.5495C21.2014 39.498 20.5009 39.498 19.8032 39.5495L19.84 40.0481ZM18.8738 39.0238C18.8533 39.3107 18.8646 39.6073 19.0407 39.8145C19.2284 40.0354 19.5253 40.0715 19.8401 40.0481L19.803 39.5495C19.516 39.5708 19.4431 39.5159 19.4217 39.4907C19.3888 39.4519 19.3519 39.3477 19.3726 39.0596L18.8738 39.0238ZM19.256 33.1856C19.135 35.1333 19.0141 37.0794 18.8739 39.0237L19.3726 39.0597C19.513 37.1125 19.6341 35.1639 19.7551 33.2166L19.256 33.1856ZM19.2562 33.1831L19.2562 33.1833L19.7549 33.2189L19.7549 33.2187L19.2562 33.1831ZM19.2561 33.1846L19.2561 33.1853L19.7551 33.2165L19.7551 33.2158L19.2561 33.1846ZM19.3859 31.1087C19.3421 31.8007 19.2991 32.4928 19.2561 33.1847L19.7551 33.2157C19.7981 32.5238 19.8411 31.832 19.8849 31.1403L19.3859 31.1087ZM19.4454 28.873C19.4341 29.6249 19.4229 30.3716 19.3858 31.1119L19.8851 31.137C19.9228 30.3864 19.9341 29.6308 19.9454 28.8805L19.4454 28.873ZM19.4454 28.8767V28.8768H19.9454V28.8767H19.4454ZM19.4454 28.8767V28.8767H19.9454V28.8767H19.4454ZM19.8566 23.6643C19.4972 25.3651 19.4715 27.1335 19.4454 28.873L19.9454 28.8805C19.9716 27.132 19.9982 25.4129 20.3458 23.7676L19.8566 23.6643ZM20.1071 20.4783C20.0948 21.5491 20.082 22.5977 19.8566 23.6642L20.3458 23.7676C20.583 22.6453 20.5949 21.548 20.6071 20.4841L20.1071 20.4783ZM20.1071 20.4812V20.4812H20.6071V20.4812H20.1071ZM20.1071 20.4812V20.4812H20.6071V20.4812H20.1071ZM20.2023 18.2806C20.1237 19.0197 20.1155 19.7545 20.1071 20.4783L20.6071 20.484C20.6155 19.7565 20.6238 19.0452 20.6995 18.3334L20.2023 18.2806ZM19.8237 17.6534C20.0183 17.7442 20.1088 17.8265 20.1544 17.9043C20.1989 17.9799 20.2228 18.0884 20.2023 18.2805L20.6995 18.3335C20.7259 18.0855 20.7054 17.8549 20.5855 17.6509C20.4669 17.4491 20.2731 17.3114 20.0352 17.2003L19.8237 17.6534ZM18.5335 14.8725C18.2298 15.9911 18.7129 17.1353 19.8238 17.6534L20.0351 17.2003C19.1526 16.7886 18.7737 15.8958 19.0161 15.0035L18.5335 14.8725ZM20.9908 13.0261C19.8676 12.935 18.8443 13.7284 18.5335 14.8725L19.0161 15.0035C19.272 14.0614 20.0974 13.4553 20.9503 13.5245L20.9908 13.0261ZM23.2139 15.1405C23.0249 13.9574 22.1563 13.121 20.9908 13.0261L20.9503 13.5245C21.8735 13.5996 22.5655 14.2512 22.7202 15.2194L23.2139 15.1405ZM21.9302 17.6194C22.3812 17.4285 22.7333 17.0157 22.9544 16.5677C23.176 16.1188 23.2868 15.5936 23.2139 15.1403L22.7202 15.2196C22.7727 15.546 22.6941 15.9655 22.5061 16.3463C22.3176 16.7281 22.0398 17.0301 21.7353 17.159L21.9302 17.6194ZM21.4962 18.4009C21.4908 18.161 21.5103 18.0147 21.5641 17.9077C21.6125 17.8116 21.706 17.7143 21.9302 17.6194L21.7353 17.159C21.4407 17.2837 21.2355 17.4485 21.1175 17.6829C21.0051 17.9063 20.9907 18.1588 20.9963 18.4119L21.4962 18.4009ZM21.4609 19.7861C21.4834 19.33 21.5065 18.8626 21.4962 18.4008L20.9963 18.412C21.0061 18.8528 20.9841 19.3022 20.9615 19.7616L21.4609 19.7861ZM21.4602 19.7965L21.4602 19.7965L20.9622 19.7512L20.9622 19.7513L21.4602 19.7965ZM21.4612 19.774V19.7739H20.9612V19.774H21.4612ZM21.4612 19.774V19.774H20.9612V19.774H21.4612ZM21.5697 22.3479C21.3757 21.5531 21.4162 20.6935 21.4609 19.7863L20.9615 19.7617C20.9176 20.6537 20.8697 21.5885 21.0839 22.4665L21.5697 22.3479ZM22.0167 25.7782C21.9348 24.6517 21.852 23.5036 21.5697 22.3479L21.084 22.4665C21.3547 23.5751 21.4357 24.6818 21.518 25.8144L22.0167 25.7782ZM22.0154 25.7653L22.0154 25.7653L21.5193 25.8273L21.5193 25.8274L22.0154 25.7653ZM22.0155 25.7654L22.0154 25.7653L21.5193 25.8274L21.5193 25.8274L22.0155 25.7654ZM22.0862 26.6832C22.0606 26.3821 22.0387 26.081 22.0167 25.7783L21.518 25.8145C21.54 26.1167 21.5621 26.4209 21.588 26.7256L22.0862 26.6832ZM22.2588 29.7607C22.2161 28.7382 22.1733 27.7093 22.0862 26.6833L21.588 26.7255C21.674 27.7391 21.7165 28.7572 21.7592 29.7815L22.2588 29.7607ZM22.2588 29.7612L22.2588 29.7611L21.7592 29.7811L21.7592 29.7812L22.2588 29.7612ZM20.3861 15.5343C20.3874 15.337 20.4432 15.2038 20.518 15.124C20.5892 15.0482 20.7035 14.9928 20.8858 14.9997L20.9046 14.5C20.6037 14.4887 20.3401 14.5829 20.1533 14.782C19.9702 14.9773 19.8881 15.2445 19.8861 15.5309L20.3861 15.5343ZM20.845 15.9576C20.6898 15.9255 20.573 15.8791 20.4978 15.8155C20.4347 15.762 20.3851 15.6839 20.3861 15.5342L19.8861 15.531C19.8842 15.8218 19.9933 16.0433 20.1747 16.197C20.3441 16.3405 20.5578 16.4088 20.7436 16.4473L20.845 15.9576ZM21.3033 15.4462C21.2943 15.6091 21.2465 15.7308 21.1739 15.8102C21.1055 15.8849 20.9912 15.9486 20.7894 15.9525L20.7991 16.4524C21.1122 16.4463 21.366 16.3408 21.5427 16.1478C21.7151 15.9594 21.7892 15.7149 21.8025 15.4737L21.3033 15.4462ZM20.886 14.9997C21.148 15.0093 21.3172 15.1915 21.3033 15.4464L21.8025 15.4736C21.8323 14.9271 21.4331 14.5195 20.9044 14.5L20.886 14.9997ZM20.3745 5.60326V5.60324H19.8745V5.60326H20.3745ZM20.3745 5.60328V5.60326H19.8745V5.60328H20.3745ZM20.375 6.88593C20.375 6.45831 20.3747 6.03068 20.3745 5.60314L19.8745 5.60342C19.8747 6.03099 19.875 6.45847 19.875 6.88593H20.375ZM20.1076 7.13613L20.1277 7.13591L20.1222 6.63594L20.1021 6.63616L20.1076 7.13613ZM20.3588 8.31792C20.3568 7.84021 20.3549 7.36311 20.3549 6.88615H19.8549C19.8549 7.36431 19.8568 7.84243 19.8588 8.31997L20.3588 8.31792ZM20.3588 8.31897V8.31894H19.8588V8.31897H20.3588ZM20.3588 8.31899V8.31897H19.8588V8.31899H20.3588ZM20.3428 11.9062C20.3686 10.709 20.3637 9.51156 20.3588 8.31796L19.8588 8.32001C19.8637 9.51469 19.8686 10.7057 19.8429 11.8954L20.3428 11.9062ZM20.9057 12.5936C20.5292 12.6652 20.4487 12.5783 20.42 12.5353C20.3933 12.4955 20.3689 12.4282 20.3548 12.3153C20.3409 12.2036 20.3393 12.0686 20.3428 11.9062L19.8429 11.8954C19.8393 12.0615 19.8399 12.2272 19.8587 12.3773C19.8773 12.5261 19.9161 12.6813 20.0044 12.8133C20.2056 13.1141 20.562 13.1679 20.9991 13.0848L20.9057 12.5936ZM22.0103 12.8259C21.7171 12.695 21.3287 12.5131 20.9057 12.5936L20.9991 13.0848C21.2415 13.0387 21.482 13.1376 21.8064 13.2824L22.0103 12.8259ZM22.0816 12.8576L22.01 12.8257L21.8067 13.2825L21.8783 13.3144L22.0816 12.8576ZM22.3171 13.0044C22.2588 12.962 22.1731 12.8982 22.0814 12.8576L21.8785 13.3145C21.9121 13.3294 21.953 13.3578 22.023 13.4087L22.3171 13.0044ZM22.5192 13.0878C22.4949 13.1147 22.4843 13.116 22.4896 13.1143C22.4963 13.1121 22.5001 13.1141 22.4929 13.1123C22.4823 13.1096 22.4624 13.1019 22.4295 13.082C22.3964 13.0619 22.3618 13.0369 22.3171 13.0044L22.023 13.4087C22.097 13.4626 22.2259 13.5609 22.3716 13.5974C22.4535 13.6178 22.5471 13.6214 22.6446 13.5896C22.7407 13.5583 22.8219 13.4987 22.8903 13.4229L22.5192 13.0878ZM22.5538 13.0497L22.5195 13.0875L22.89 13.4232L22.9243 13.3854L22.5538 13.0497ZM22.8964 12.215C22.9357 12.4078 22.9059 12.5458 22.8476 12.6641C22.7838 12.7938 22.6831 12.9071 22.5539 13.0495L22.9242 13.3855C23.0448 13.2526 23.196 13.0884 23.2962 12.8851C23.4019 12.6704 23.4484 12.4198 23.3864 12.1152L22.8964 12.215ZM21.3372 4.32774C21.8493 6.95751 22.3616 9.58843 22.8964 12.215L23.3864 12.1152C22.852 9.49112 22.3401 6.8623 21.828 4.23218L21.3372 4.32774ZM21.3368 4.32577L21.3369 4.32598L21.8283 4.23394L21.8283 4.23372L21.3368 4.32577ZM20.8036 1.59233C20.9821 2.50389 21.1596 3.41564 21.3372 4.32753L21.828 4.23196C21.6504 3.32012 21.4728 2.40811 21.2943 1.49626L20.8036 1.59233ZM20.4866 1.25222C20.635 1.24006 20.6786 1.27903 20.7002 1.30383C20.7392 1.34881 20.7726 1.43349 20.8036 1.59229L21.2943 1.49631C21.2622 1.33236 21.2109 1.12948 21.0777 0.97605C20.927 0.802447 20.7109 0.732172 20.4458 0.753887L20.4866 1.25222ZM20.3727 1.47029C20.3686 1.41219 20.3659 1.37019 20.3674 1.33296C20.3688 1.29647 20.374 1.28144 20.3758 1.27739C20.3764 1.27623 20.3761 1.27708 20.3749 1.27843C20.3736 1.27982 20.3738 1.27903 20.3778 1.27674C20.3868 1.2715 20.4167 1.25791 20.4864 1.25223L20.4459 0.753876C20.2036 0.773595 20.0117 0.870054 19.9206 1.07057C19.8483 1.22969 19.8675 1.41383 19.874 1.50573L20.3727 1.47029ZM20.3734 1.48803V1.48801H19.8734V1.48803H20.3734ZM20.3734 1.48805V1.48803H19.8734V1.48805H20.3734ZM20.3796 1.6211C20.3798 1.56768 20.3758 1.51341 20.3727 1.47032L19.874 1.50577C19.8773 1.55284 19.8797 1.58775 19.8796 1.61891L20.3796 1.6211ZM20.3745 5.60309C20.3737 4.27523 20.3729 2.94812 20.3796 1.62125L19.8796 1.61876C19.8729 2.94725 19.8737 4.27575 19.8745 5.60338L20.3745 5.60309ZM31.252 21.2606C31.2551 21.442 31.2427 21.572 31.2195 21.6627C31.1965 21.7522 31.1683 21.7834 31.1538 21.7949C31.1411 21.8048 31.1109 21.8222 31.0315 21.8199C30.9487 21.8174 30.8319 21.7937 30.6706 21.7384L30.5085 22.2114C30.691 22.274 30.862 22.3151 31.0167 22.3196C31.1749 22.3243 31.3323 22.2909 31.4634 22.1874C31.5927 22.0855 31.6644 21.9407 31.7038 21.7869C31.7429 21.6342 31.7554 21.4535 31.7519 21.252L31.252 21.2606ZM30.8946 20.733C31.0505 20.8186 31.1539 20.8788 31.217 20.9517C31.2608 21.0022 31.2915 21.0643 31.2591 21.197L31.7448 21.3156C31.8146 21.0295 31.7474 20.8003 31.5949 20.6243C31.4618 20.4706 31.2705 20.369 31.1353 20.2948L30.8946 20.733ZM30.7557 20.6548C30.8025 20.6824 30.8505 20.7087 30.8946 20.733L31.1353 20.2948C31.09 20.2698 31.0487 20.2472 31.0096 20.2241L30.7557 20.6548ZM28.5085 19.3376C29.2584 19.7759 30.0079 20.2139 30.7557 20.6548L31.0097 20.2241C30.2609 19.7826 29.5106 19.3441 28.7607 18.9059L28.5085 19.3376ZM24.125 16.7462C25.5783 17.6253 27.0443 18.482 28.5085 19.3376L28.7607 18.9059C27.296 18.05 25.8333 17.1952 24.3837 16.3184L24.125 16.7462ZM23.2796 16.9136C23.4048 16.5349 23.5165 16.5086 23.5569 16.5046C23.5973 16.5006 23.6618 16.5098 23.7644 16.5526C23.8659 16.5948 23.9832 16.6604 24.1249 16.7462L24.3838 16.3184C24.2394 16.2311 24.0951 16.1486 23.9567 16.091C23.8195 16.0339 23.6659 15.9914 23.5077 16.007C23.1508 16.0423 22.9424 16.3405 22.8049 16.7567L23.2796 16.9136ZM22.5586 17.7805C22.8106 17.5769 23.1475 17.3136 23.2796 16.9135L22.8048 16.7568C22.727 16.9924 22.5226 17.1668 22.2443 17.3917L22.5586 17.7805ZM22.4969 17.8305L22.5588 17.7804L22.2441 17.3918L22.1821 17.442L22.4969 17.8305ZM22.219 17.9849C22.2918 17.9528 22.4058 17.9044 22.497 17.8304L22.182 17.4421C22.153 17.4656 22.1067 17.488 22.0174 17.5273L22.219 17.9849ZM22.0321 18.182C22.0188 18.1324 22.0219 18.109 22.0232 18.1023C22.0241 18.0979 22.0252 18.0948 22.0314 18.088C22.0401 18.0785 22.0575 18.0643 22.0916 18.0453C22.1263 18.0259 22.1664 18.0081 22.219 17.9849L22.0174 17.5273C21.9294 17.5661 21.7728 17.6307 21.6635 17.7494C21.6028 17.8154 21.5547 17.8987 21.5335 18.0014C21.5128 18.1018 21.5209 18.2059 21.5491 18.3112L22.0321 18.182ZM22.6663 18.9829C22.2897 18.8554 22.1395 18.5823 22.032 18.1818L21.5491 18.3114C21.6727 18.772 21.8926 19.2489 22.506 19.4565L22.6663 18.9829ZM27.5105 20.6477C25.8978 20.0893 24.2841 19.5306 22.6663 18.9829L22.506 19.4565C24.1219 20.0035 25.7339 20.5617 27.347 21.1202L27.5105 20.6477ZM30.6706 21.7384C29.6167 21.377 28.5638 21.0124 27.5105 20.6477L27.347 21.1202C28.4001 21.4848 29.4536 21.8496 30.5084 22.2114L30.6706 21.7384ZM11.5215 22.109C11.5349 22.0063 11.5536 21.9177 11.5716 21.8333L11.0826 21.7292C11.0647 21.8131 11.0419 21.9196 11.0257 22.0445L11.5215 22.109ZM12.8832 20.8376C12.3093 21.1761 11.7309 21.5171 11.1467 21.8613L11.4005 22.2921C11.9848 21.9478 12.5632 21.6068 13.1372 21.2684L12.8832 20.8376ZM12.903 20.826L12.8832 20.8377L13.1372 21.2684L13.157 21.2567L12.903 20.826ZM12.9159 20.8184L12.903 20.826L13.157 21.2567L13.1699 21.2491L12.9159 20.8184ZM12.9188 20.8167L12.916 20.8183L13.1699 21.2491L13.1727 21.2474L12.9188 20.8167ZM18.4863 17.5406C16.6443 18.6201 14.8052 19.7044 12.9188 20.8167L13.1727 21.2474C15.0593 20.1351 16.8978 19.051 18.7391 17.9719L18.4863 17.5406ZM18.5788 17.1989C18.6353 17.2694 18.6606 17.3183 18.671 17.3487C18.6758 17.363 18.6768 17.3717 18.6769 17.3757C18.6771 17.3794 18.6767 17.3813 18.6762 17.3828C18.6754 17.3858 18.6697 17.402 18.6391 17.4316C18.6078 17.462 18.5589 17.4979 18.4862 17.5407L18.7393 17.9719C18.9066 17.8737 19.0932 17.7369 19.1559 17.5241C19.2243 17.2917 19.1196 17.0742 18.9691 16.8863L18.5788 17.1989ZM18.0172 15.7748C18.0891 16.2833 18.2409 16.7773 18.5789 17.1989L18.969 16.8862C18.7075 16.56 18.5771 16.1633 18.5123 15.7048L18.0172 15.7748ZM18.0332 15.4312C18.0208 15.5173 17.9996 15.6506 18.0172 15.7748L18.5123 15.7048C18.5067 15.6654 18.5128 15.6087 18.5281 15.5022L18.0332 15.4312ZM17.9441 15.1505C18.007 15.1626 18.0314 15.1787 18.038 15.184C18.0416 15.1868 18.043 15.1881 18.0453 15.1957C18.0491 15.2078 18.0529 15.2317 18.0509 15.2755C18.049 15.3196 18.0422 15.3683 18.0332 15.4312L18.5281 15.5022C18.543 15.3981 18.5745 15.2132 18.5227 15.0469C18.4934 14.953 18.4385 14.8635 18.3488 14.7923C18.2621 14.7236 18.1562 14.6823 18.0393 14.6596L17.9441 15.1505ZM16.9391 15.3764C17.2417 15.0965 17.5564 15.0753 17.9441 15.1505L18.0393 14.6596C17.5703 14.5687 17.0658 14.5781 16.5996 15.0093L16.9391 15.3764ZM12.4274 19.4296C13.9426 18.0938 15.4538 16.7498 16.9391 15.3764L16.5996 15.0093C15.1188 16.3786 13.6112 17.7194 12.0967 19.0546L12.4274 19.4296ZM12.3022 19.5391C12.3435 19.5031 12.3855 19.4665 12.4273 19.4297L12.0968 19.0545C12.0561 19.0903 12.0152 19.126 11.9737 19.1621L12.3022 19.5391ZM11.5747 21.3435C11.379 20.9014 11.422 20.5964 11.5581 20.3414C11.7075 20.0615 11.9781 19.8215 12.3022 19.5391L11.9737 19.1621C11.6677 19.4289 11.3181 19.7294 11.117 20.1059C10.9026 20.5075 10.8647 20.9749 11.1175 21.5459L11.5747 21.3435ZM11.5716 21.8333C11.5865 21.7633 11.6038 21.6836 11.6107 21.6107C11.6177 21.5362 11.6174 21.4401 11.5749 21.3438L11.1174 21.5456C11.1104 21.5297 11.1164 21.5273 11.1129 21.5637C11.1094 21.6017 11.0994 21.65 11.0826 21.7292L11.5716 21.8333ZM10.2517 31.4513C10.2463 31.2901 10.2458 31.1275 10.2453 30.9605L9.74531 30.9619C9.74581 31.1277 9.7463 31.2979 9.752 31.468L10.2517 31.4513ZM10.3813 33.5203C10.3383 32.8283 10.2954 32.136 10.2514 31.4438L9.75236 31.4755C9.79637 32.1673 9.83928 32.8592 9.88221 33.5512L10.3813 33.5203ZM10.3813 33.5203L10.3812 33.5202L9.88222 33.5513L9.88223 33.5515L10.3813 33.5203ZM10.3813 33.5204L10.3813 33.5203L9.88223 33.5515L9.88223 33.5516L10.3813 33.5204ZM10.7551 39.186C10.6157 37.2994 10.4985 35.4109 10.3813 33.5206L9.88223 33.5515C9.99945 35.4414 10.1168 37.3328 10.2565 39.2229L10.7551 39.186ZM9.78702 40.2681C10.1288 40.2761 10.4351 40.2273 10.6153 39.9908C10.7021 39.877 10.7396 39.7439 10.7551 39.6133C10.7706 39.4837 10.7664 39.3386 10.7551 39.1861L10.2565 39.2228C10.2671 39.3665 10.2683 39.4732 10.2586 39.5541C10.2491 39.6341 10.231 39.6702 10.2177 39.6877C10.1977 39.714 10.1257 39.7759 9.7986 39.7683L9.78702 40.2681ZM9.67991 40.2657L9.78707 40.2681L9.79855 39.7683L9.69139 39.7658L9.67991 40.2657ZM7.97788 38.3727C7.95538 38.7658 7.93831 39.081 7.95239 39.3233C7.96629 39.5627 8.01223 39.7865 8.16428 39.9539C8.31744 40.1226 8.53456 40.1862 8.76606 40.2183C8.9992 40.2506 9.30427 40.2571 9.67996 40.2657L9.69135 39.7658C9.30303 39.757 9.03242 39.7504 8.83465 39.723C8.63524 39.6954 8.56622 39.6528 8.53444 39.6178C8.50155 39.5816 8.46375 39.5043 8.45155 39.2943C8.43952 39.0872 8.45397 38.8048 8.47707 38.4012L7.97788 38.3727ZM8.29326 33.523C8.18186 35.1379 8.07033 36.7544 7.97788 38.3727L8.47707 38.4012C8.56932 36.7864 8.68064 35.1728 8.79208 33.5574L8.29326 33.523ZM8.43348 31.4693C8.38772 32.1538 8.3405 32.8383 8.29326 33.523L8.79208 33.5574C8.83931 32.8728 8.88656 32.1878 8.93236 31.5027L8.43348 31.4693ZM8.46341 30.607C8.45804 30.8991 8.45275 31.1842 8.43349 31.4691L8.93235 31.5028C8.95257 31.2036 8.95799 30.9063 8.96333 30.6162L8.46341 30.607ZM8.7262 28.3857C8.48871 29.1494 8.47646 29.8978 8.46341 30.607L8.96333 30.6162C8.97654 29.8977 8.99052 29.2196 9.20365 28.5341L8.7262 28.3857ZM8.81672 26.7776C8.84809 27.3744 8.8735 27.9118 8.72619 28.3857L9.20366 28.5341C9.38236 27.9592 9.34632 27.3276 9.31603 26.7514L8.81672 26.7776ZM8.79456 25.8764C8.78503 26.1777 8.80129 26.4842 8.81672 26.7776L9.31603 26.7514C9.3004 26.4541 9.28556 26.1688 9.29431 25.8922L8.79456 25.8764ZM8.34233 24.8902C8.58386 25.0277 8.68642 25.161 8.73792 25.294C8.79451 25.4403 8.80276 25.6172 8.79456 25.8764L9.29431 25.8922C9.3025 25.6335 9.30113 25.364 9.20422 25.1136C9.10221 24.85 8.90737 24.6365 8.58969 24.4557L8.34233 24.8902ZM8.05078 22.3142C7.71487 22.6966 7.56137 23.2045 7.60078 23.6813C7.6404 24.1607 7.87807 24.626 8.34238 24.8902L8.58964 24.4556C8.29291 24.2868 8.12756 23.9847 8.09908 23.6401C8.07039 23.293 8.18372 22.9205 8.42645 22.6441L8.05078 22.3142ZM10.6205 22.3197C9.95213 21.5482 8.72502 21.5468 8.0508 22.3142L8.42643 22.6442C8.90164 22.1033 9.77372 22.1059 10.2426 22.6471L10.6205 22.3197ZM10.334 24.8948C11.2356 24.3326 11.2738 23.0742 10.6205 22.3197L10.2425 22.647C10.7373 23.2185 10.6581 24.1035 10.0694 24.4705L10.334 24.8948ZM9.88013 25.8385C9.88897 25.5907 9.90992 25.4203 9.97006 25.2801C10.026 25.1497 10.1253 25.0249 10.334 24.8948L10.0695 24.4705C9.79166 24.6437 9.61421 24.8414 9.51055 25.083C9.41106 25.3149 9.38952 25.5664 9.38045 25.8207L9.88013 25.8385ZM10.1863 29.8403C9.98345 28.5021 9.83247 27.1795 9.88013 25.8385L9.38045 25.8207C9.33112 27.2087 9.48771 28.5678 9.69199 29.9152L10.1863 29.8403ZM10.2453 30.9604C10.2442 30.5998 10.2435 30.2172 10.1863 29.8402L9.69199 29.9153C9.74271 30.2495 9.74421 30.5947 9.74531 30.9619L10.2453 30.9604ZM10.2453 30.9612V30.9612H9.74531V30.9612H10.2453ZM9.14532 23.515C9.13833 23.4123 9.16515 23.3757 9.17795 23.3628C9.19407 23.3465 9.23839 23.3179 9.34568 23.3162L9.33779 22.8163C9.1504 22.8192 8.96143 22.8712 8.82311 23.0105C8.68148 23.1532 8.63272 23.3471 8.64648 23.549L9.14532 23.515ZM9.27392 23.666C9.23688 23.6648 9.20857 23.6524 9.19044 23.6359C9.17522 23.622 9.15045 23.5903 9.14532 23.515L8.64648 23.549C8.65926 23.7367 8.73181 23.8942 8.85338 24.0052C8.97205 24.1135 9.12002 24.1615 9.25882 24.1657L9.27392 23.666ZM9.48973 23.4899C9.48958 23.5767 9.46852 23.608 9.45723 23.6194C9.44624 23.6305 9.40299 23.665 9.2648 23.6659L9.26794 24.1658C9.48254 24.1645 9.67574 24.1098 9.81313 23.9706C9.95021 23.8317 9.98944 23.6513 9.98973 23.4908L9.48973 23.4899ZM9.34575 23.3162C9.42467 23.3149 9.44737 23.3381 9.4549 23.3468C9.46821 23.3622 9.48996 23.4032 9.48973 23.4897L9.98973 23.491C9.99016 23.3292 9.95052 23.1559 9.83348 23.0202C9.71066 22.8778 9.53403 22.8131 9.33771 22.8163L9.34575 23.3162ZM33.7771 21.339C33.7714 21.4337 33.7623 21.5121 33.7471 21.5734C33.7312 21.6374 33.7144 21.6581 33.7117 21.6609C33.7115 21.6611 33.7121 21.6604 33.7137 21.6594C33.7152 21.6584 33.7167 21.6577 33.7178 21.6573C33.7203 21.6564 33.7159 21.6588 33.6997 21.6578C33.6629 21.6556 33.5876 21.6374 33.4598 21.5672L33.2191 22.0054C33.3774 22.0924 33.528 22.1485 33.6699 22.1569C33.8233 22.1661 33.9614 22.1185 34.0657 22.014C34.1602 21.9192 34.2065 21.7978 34.2323 21.6942C34.2587 21.588 34.27 21.4734 34.2762 21.3689L33.7771 21.339ZM33.7577 21.1622C33.7633 21.2276 33.7695 21.3005 33.7781 21.3806L34.2752 21.3273C34.2673 21.2533 34.2615 21.1854 34.2558 21.1195L33.7577 21.1622ZM33.7193 20.8424C33.7379 20.9343 33.7464 21.0305 33.7577 21.1622L34.2558 21.1195C34.2451 20.9938 34.2346 20.8683 34.2095 20.7436L33.7193 20.8424ZM32.6682 15.5334C33.0195 17.3027 33.3708 19.0719 33.7191 20.8413L34.2097 20.7447C33.8613 18.9748 33.5099 17.2053 33.1586 15.436L32.6682 15.5334ZM32.668 15.5323L32.6682 15.5334L33.1586 15.436L33.1584 15.4349L32.668 15.5323ZM32.4214 14.2905L32.668 15.5323L33.1584 15.4349L32.9119 14.1931L32.4214 14.2905ZM32.397 14.1313C32.4032 14.1785 32.4105 14.2353 32.4214 14.2903L32.9119 14.1933C32.9047 14.157 32.8993 14.1168 32.8927 14.0662L32.397 14.1313ZM32.2642 13.8825C32.3149 13.881 32.3341 13.8898 32.3372 13.8914C32.3382 13.8919 32.3406 13.8924 32.3463 13.902C32.3539 13.9148 32.3636 13.9385 32.3731 13.9807C32.3826 14.0233 32.389 14.0708 32.397 14.1313L32.8927 14.0662C32.8794 13.9645 32.8604 13.7887 32.7765 13.6471C32.7296 13.568 32.6611 13.4951 32.5636 13.4456C32.4682 13.3971 32.3613 13.3793 32.2491 13.3827L32.2642 13.8825ZM32.1463 14.162C32.142 14.0959 32.1387 14.0433 32.1403 13.9958C32.1419 13.9482 32.1482 13.9226 32.1534 13.91C32.1564 13.9026 32.1571 13.9032 32.1592 13.9019C32.1655 13.8982 32.1932 13.8846 32.2641 13.8825L32.2492 13.3827C32.1226 13.3865 32.0045 13.4122 31.9037 13.4721C31.7987 13.5345 31.731 13.6231 31.6913 13.7189C31.6218 13.887 31.6402 14.0858 31.6474 14.1949L32.1463 14.162ZM32.1469 14.1785V14.1785H31.6469V14.1785H32.1469ZM32.1534 14.3315C32.1538 14.2731 32.1497 14.2124 32.1463 14.162L31.6474 14.1949C31.651 14.2494 31.6537 14.2913 31.6534 14.3284L32.1534 14.3315ZM32.1483 16.5899C32.1485 15.8365 32.1486 15.0839 32.1534 14.3315L31.6534 14.3283C31.6486 15.0826 31.6485 15.8367 31.6483 16.5898L32.1483 16.5899ZM32.1259 20.3604C32.1479 19.1027 32.1481 17.8451 32.1483 16.5899L31.6483 16.5898C31.6481 17.8457 31.6479 19.099 31.6259 20.3516L32.1259 20.3604ZM32.1251 20.4032L32.1259 20.3604L31.6259 20.3516L31.6252 20.3944L32.1251 20.4032ZM32.8457 21.3646C32.6089 21.3988 32.4607 21.3836 32.3691 21.352C32.2868 21.3237 32.2404 21.2794 32.207 21.2175C32.1687 21.1467 32.1432 21.0438 32.1312 20.8981C32.1192 20.7533 32.1218 20.5897 32.1251 20.4032L31.6252 20.3944C31.622 20.5746 31.6184 20.7648 31.6329 20.9394C31.6473 21.1132 31.681 21.2958 31.7671 21.4552C31.8581 21.6235 32.0013 21.7542 32.2063 21.8248C32.402 21.8922 32.6387 21.8997 32.9171 21.8595L32.8457 21.3646ZM33.3968 21.5317C33.3357 21.4968 33.2536 21.4495 33.169 21.415C33.0862 21.3812 32.9711 21.3465 32.8457 21.3646L32.9171 21.8595C32.9129 21.8601 32.9294 21.8572 32.98 21.8779C33.0288 21.8978 33.0819 21.9277 33.149 21.9659L33.3968 21.5317ZM33.4016 21.5345L33.4015 21.5344L33.1443 21.9632L33.1443 21.9632L33.4016 21.5345ZM33.4596 21.5671C33.4402 21.5564 33.4199 21.5448 33.3968 21.5317L33.1491 21.966C33.1714 21.9787 33.1955 21.9925 33.2192 22.0055L33.4596 21.5671ZM9.01156 17.6088C9.01156 17.3102 9.01132 17.0116 9.01109 16.7132L8.51109 16.7135C8.51132 17.012 8.51156 17.3104 8.51156 17.6088H9.01156ZM8.75385 17.859L8.76608 17.8588L8.75704 17.3589L8.74481 17.3591L8.75385 17.859ZM8.99855 18.3266C8.99894 18.0876 8.99933 17.8484 8.99933 17.609H8.49933C8.49933 17.8479 8.49894 18.0867 8.49855 18.3258L8.99855 18.3266ZM8.99855 18.3262V18.3262H8.49855V18.3262H8.99855ZM8.99855 18.3262V18.3262H8.49855V18.3262H8.99855ZM9.00041 19.9475C8.99679 19.4077 8.99766 18.8678 8.99855 18.3267L8.49855 18.3258C8.49767 18.8666 8.49678 19.4086 8.50042 19.9508L9.00041 19.9475ZM8.98746 20.3492C8.9941 20.2219 9.00135 20.0843 9.00041 19.9474L8.50042 19.9508C8.50124 20.0705 8.49491 20.1933 8.48814 20.3231L8.98746 20.3492ZM9.90787 21.4635C9.32627 21.4535 9.13909 21.2976 9.06161 21.1586C9.01582 21.0765 8.98968 20.9692 8.98001 20.8278C8.97026 20.6852 8.97811 20.5283 8.98746 20.3492L8.48814 20.3231C8.47915 20.4954 8.46899 20.6837 8.48118 20.8619C8.49344 21.0413 8.52919 21.2304 8.62486 21.402C8.8303 21.7706 9.24433 21.9521 9.89925 21.9634L9.90787 21.4635ZM10.1098 21.4679C10.0474 21.4664 9.97992 21.4647 9.90792 21.4635L9.8992 21.9634C9.96917 21.9646 10.035 21.9662 10.0975 21.9678L10.1098 21.4679ZM10.5864 20.8983C10.629 21.119 10.6475 21.2641 10.6463 21.3612C10.6452 21.4589 10.6246 21.4608 10.6388 21.4467C10.6479 21.4378 10.6382 21.4567 10.5359 21.4663C10.437 21.4756 10.304 21.4727 10.1098 21.4679L10.0975 21.9678C10.2798 21.9723 10.4474 21.9768 10.5825 21.9641C10.7141 21.9518 10.8716 21.9195 10.99 21.8027C11.1136 21.6808 11.1446 21.518 11.1463 21.3669C11.1481 21.2153 11.1206 21.0274 11.0774 20.8037L10.5864 20.8983ZM9.73974 16.5975C10.0249 18.0311 10.31 19.4639 10.5864 20.8983L11.0774 20.8037C10.8006 19.3676 10.5153 17.9333 10.2301 16.4999L9.73974 16.5975ZM9.26312 14.1938C9.42102 14.9954 9.58041 15.7966 9.73974 16.5975L10.2301 16.4999C10.0708 15.6989 9.91149 14.8982 9.75369 14.0972L9.26312 14.1938ZM9.24937 14.1204C9.25359 14.1436 9.25817 14.1687 9.26311 14.1938L9.7537 14.0972C9.74955 14.0761 9.74558 14.0545 9.74125 14.0307L9.24937 14.1204ZM9.11616 13.8798C9.16226 13.8768 9.17881 13.8845 9.18015 13.8851C9.1811 13.8855 9.18129 13.8857 9.18166 13.886C9.18223 13.8866 9.18452 13.8888 9.1881 13.8943C9.19621 13.9069 9.20692 13.9302 9.21829 13.9718C9.22973 14.0137 9.23847 14.0607 9.24937 14.1204L9.74125 14.0307C9.72289 13.93 9.69554 13.7587 9.60838 13.6235C9.55974 13.548 9.49031 13.4785 9.39318 13.4327C9.29778 13.3878 9.19248 13.3737 9.08325 13.3809L9.11616 13.8798ZM9.01127 14.1435C9.00906 14.0809 9.00753 14.0319 9.0102 13.9875C9.01285 13.9433 9.01909 13.9192 9.02424 13.907C9.02756 13.8991 9.02861 13.8995 9.02971 13.8988C9.03385 13.8962 9.05608 13.8838 9.11601 13.8799L9.08339 13.3809C8.96538 13.3886 8.85529 13.4172 8.76131 13.477C8.66429 13.5387 8.60142 13.623 8.56359 13.7126C8.49662 13.8713 8.50792 14.0574 8.51158 14.1611L9.01127 14.1435ZM9.01396 14.2672C9.01417 14.2245 9.0126 14.1811 9.01127 14.1435L8.51158 14.1611C8.51298 14.2008 8.51412 14.2339 8.51397 14.2647L9.01396 14.2672ZM9.01109 16.7132C9.01045 15.8972 9.00981 15.0822 9.01396 14.2672L8.51397 14.2647C8.5098 15.0814 8.51045 15.8979 8.51109 16.7135L9.01109 16.7132ZM40.7579 27.972C40.7296 28.0794 40.6991 28.131 40.6802 28.1538C40.6658 28.171 40.6583 28.1724 40.6519 28.1737C40.6381 28.1765 40.6091 28.1774 40.554 28.1647C40.4987 28.1519 40.4376 28.1306 40.3586 28.1028L40.1922 28.5742C40.2651 28.6 40.3536 28.6315 40.4415 28.6518C40.5296 28.6722 40.6375 28.6865 40.7499 28.664C41.012 28.6116 41.1631 28.3965 41.2414 28.0995L40.7579 27.972ZM40.5069 27.85C40.6009 27.9006 40.66 27.934 40.7019 27.9722C40.7348 28.0021 40.7474 28.0262 40.751 28.0612L41.2484 28.0103C41.2107 27.6422 40.8943 27.4908 40.7441 27.4098L40.5069 27.85ZM40.3866 27.7829C40.4279 27.8074 40.4701 27.8302 40.5069 27.85L40.7441 27.4098C40.7057 27.3891 40.6728 27.3714 40.642 27.3531L40.3866 27.7829ZM40.1947 27.6692L40.3869 27.7831L40.6417 27.3529L40.4495 27.239L40.1947 27.6692ZM40.1937 27.6686L40.1945 27.6691L40.4497 27.2391L40.449 27.2387L40.1937 27.6686ZM35.6164 24.9677C37.145 25.8622 38.6688 26.7651 40.1939 27.6688L40.4488 27.2386C38.9239 26.3351 37.3989 25.4315 35.869 24.5362L35.6164 24.9677ZM35.2894 24.7629C35.3947 24.8311 35.5051 24.9026 35.6164 24.9677L35.869 24.5362C35.7691 24.4777 35.6681 24.4124 35.561 24.3431L35.2894 24.7629ZM34.4047 24.3417C34.678 24.3733 34.9535 24.5456 35.2894 24.7629L35.561 24.3431C35.2524 24.1434 34.8742 23.8927 34.4621 23.845L34.4047 24.3417ZM34.2645 24.593C34.3211 24.4763 34.3578 24.4043 34.3953 24.3593C34.4113 24.3401 34.4185 24.3373 34.4158 24.3387C34.4098 24.3417 34.4035 24.3416 34.4047 24.3417L34.4621 23.845C34.2542 23.821 34.1059 23.9255 34.0112 24.0392C33.9264 24.141 33.8628 24.2754 33.8147 24.3747L34.2645 24.593ZM33.8574 25.1418C33.9719 25.0675 34.0537 24.9661 34.1146 24.8717C34.1751 24.7779 34.2244 24.6756 34.2645 24.593L33.8147 24.3747C33.772 24.4626 33.7356 24.5367 33.6944 24.6006C33.6536 24.6639 33.6176 24.7014 33.5851 24.7225L33.8574 25.1418ZM33.8038 25.1865C33.8337 25.1595 33.8461 25.1491 33.8566 25.1424L33.586 24.7219C33.5357 24.7543 33.4936 24.793 33.4691 24.815L33.8038 25.1865ZM33.8036 25.1866L33.8037 25.1866L33.4692 24.815L33.4691 24.815L33.8036 25.1866ZM33.7529 25.2309C33.7723 25.2149 33.7903 25.1986 33.8037 25.1866L33.469 24.8151C33.4543 24.8284 33.4442 24.8375 33.4345 24.8455L33.7529 25.2309ZM33.8698 25.8598C33.6921 25.7829 33.5741 25.7181 33.501 25.6622C33.4268 25.6055 33.4283 25.5808 33.4299 25.5901C33.4318 25.6015 33.421 25.5827 33.4708 25.5123C33.5207 25.4418 33.6104 25.3502 33.7541 25.2299L33.4333 24.8464C33.2793 24.9752 33.1503 25.0997 33.0628 25.2233C32.9752 25.347 32.908 25.5001 32.9367 25.6723C32.965 25.8424 33.0765 25.9671 33.1974 26.0595C33.3193 26.1527 33.4815 26.2366 33.6711 26.3187L33.8698 25.8598ZM34.5387 26.1112C34.3083 26.0327 34.085 25.9529 33.8696 25.8598L33.6712 26.3187C33.9054 26.42 34.1439 26.5049 34.3775 26.5844L34.5387 26.1112ZM36.6263 26.8244C35.9303 26.5869 35.2345 26.3494 34.539 26.1113L34.3771 26.5843C35.0728 26.8225 35.7689 27.0601 36.4648 27.2976L36.6263 26.8244ZM40.2925 28.0796C39.0712 27.6589 37.8485 27.2415 36.6263 26.8244L36.4648 27.2976C37.6871 27.7148 38.9091 28.1319 40.1297 28.5524L40.2925 28.0796ZM40.3586 28.1028C40.3374 28.0953 40.315 28.0874 40.2924 28.0796L40.1298 28.5524C40.1502 28.5594 40.1707 28.5666 40.1922 28.5742L40.3586 28.1028ZM7.70079 25.4158C7.83761 25.3422 8.09743 25.2119 8.14712 24.8579L7.65198 24.7884C7.64464 24.8406 7.62748 24.8646 7.6078 24.8838C7.57925 24.9116 7.53974 24.9347 7.46396 24.9754L7.70079 25.4158ZM7.62874 25.4558C7.64957 25.4434 7.67216 25.4312 7.70078 25.4158L7.46397 24.9754C7.43711 24.9899 7.40461 25.0073 7.37262 25.0264L7.62874 25.4558ZM1.82218 28.9015C3.75982 27.7567 5.69532 26.6081 7.62867 25.4558L7.37269 25.0263C5.43989 26.1783 3.50493 27.3265 1.56784 28.471L1.82218 28.9015ZM1.74616 28.9508C1.77703 28.93 1.8004 28.9144 1.82235 28.9014L1.56767 28.4711C1.53105 28.4928 1.49549 28.5168 1.46701 28.536L1.74616 28.9508ZM0.865994 28.799C0.983052 28.9917 1.14668 29.1257 1.36489 29.1123C1.45706 29.1066 1.53561 29.0746 1.5942 29.0443C1.65219 29.0144 1.70673 28.9773 1.74616 28.9508L1.46702 28.536C1.42257 28.5659 1.39242 28.5858 1.36476 28.6001C1.33772 28.6141 1.32968 28.6135 1.3342 28.6132C1.33753 28.613 1.34284 28.6133 1.34869 28.6149C1.35449 28.6164 1.35682 28.6182 1.35528 28.6172C1.35061 28.6141 1.32802 28.5965 1.29333 28.5394L0.865994 28.799ZM1.08598 27.862C1.00298 27.936 0.865758 28.0524 0.797087 28.2082C0.713578 28.3976 0.743509 28.5972 0.865961 28.7989L1.29337 28.5395C1.26036 28.4851 1.25238 28.4528 1.25055 28.4379C1.24911 28.4262 1.25046 28.4193 1.2546 28.4099C1.26033 28.3969 1.27326 28.3762 1.30259 28.3446C1.33259 28.3123 1.3694 28.2792 1.41889 28.235L1.08598 27.862ZM1.0914 27.8571L1.08593 27.862L1.41895 28.235L1.42442 28.2301L1.0914 27.8571ZM2.65847 26.4528C2.1362 26.9214 1.61409 27.3897 1.09126 27.8573L1.42456 28.23C1.94773 27.7621 2.47013 27.2935 2.99236 26.825L2.65847 26.4528ZM6.41755 23.101C5.15745 24.211 3.90749 25.3323 2.65847 26.4528L2.99236 26.825C4.24166 25.7043 5.48993 24.5845 6.74805 23.4762L6.41755 23.101ZM7.68545 23.597C7.67125 23.3865 7.63308 23.2068 7.55942 23.0674C7.48134 22.9197 7.35784 22.8101 7.1905 22.7783C7.0371 22.7492 6.88993 22.7944 6.77109 22.8533C6.64917 22.9138 6.52934 23.0025 6.41748 23.1011L6.74811 23.4762C6.84181 23.3936 6.92485 23.3352 6.99327 23.3012C7.06475 23.2658 7.09536 23.2692 7.09732 23.2696C7.09736 23.2696 7.09649 23.2694 7.09525 23.2688C7.09401 23.2682 7.09368 23.2679 7.09439 23.2684C7.09579 23.2696 7.10486 23.2774 7.11738 23.3011C7.14438 23.3522 7.17458 23.4526 7.18659 23.6306L7.68545 23.597ZM8.04849 24.5713C7.86617 24.232 7.70812 23.9302 7.68544 23.5968L7.1866 23.6308C7.21779 24.0894 7.43458 24.4852 7.60805 24.808L8.04849 24.5713ZM8.12072 24.7066C8.09686 24.6613 8.07248 24.6159 8.04849 24.5713L7.60805 24.808C7.63221 24.8529 7.65563 24.8965 7.67838 24.9397L8.12072 24.7066ZM30.8448 25.4183C30.9819 25.3433 31.2469 25.2087 31.2903 24.8498L30.7939 24.7898C30.7876 24.8414 30.771 24.8653 30.7511 24.885C30.7222 24.9136 30.6817 24.9376 30.605 24.9795L30.8448 25.4183ZM30.7791 25.4551C30.7986 25.4436 30.8194 25.4322 30.8448 25.4183L30.605 24.9795C30.5809 24.9927 30.5524 25.0082 30.5243 25.0249L30.7791 25.4551ZM24.9275 28.9237C26.8803 27.771 28.831 26.6147 30.7796 25.4548L30.5238 25.0252C28.5758 26.1847 26.6256 27.3407 24.6733 28.4931L24.9275 28.9237ZM24.8621 28.9654C24.8888 28.9478 24.9086 28.9348 24.9271 28.9239L24.6737 28.4929C24.6421 28.5114 24.6113 28.5318 24.5868 28.548L24.8621 28.9654ZM24.0344 28.8411C24.0896 28.926 24.1562 28.9998 24.2396 29.05C24.3274 29.1029 24.4209 29.1218 24.5116 29.1141C24.6679 29.1008 24.8024 29.0048 24.8621 28.9654L24.5868 28.548C24.5467 28.5745 24.5198 28.5918 24.4952 28.6044C24.4712 28.6167 24.4644 28.6163 24.4692 28.6159C24.4797 28.615 24.4919 28.6183 24.4976 28.6217C24.4988 28.6224 24.4823 28.6127 24.4536 28.5686L24.0344 28.8411ZM24.2096 27.8802C24.0953 27.9822 23.9713 28.1138 23.9227 28.288C23.8692 28.4796 23.9204 28.6656 24.0344 28.8411L24.4537 28.5686C24.3908 28.4718 24.401 28.4341 24.4042 28.4224C24.4124 28.3933 24.4428 28.3422 24.5423 28.2535L24.2096 27.8802ZM26.1625 26.1338C25.512 26.7168 24.8618 27.2996 24.2097 27.8801L24.5422 28.2536C25.195 27.6724 25.8458 27.0891 26.4962 26.5062L26.1625 26.1338ZM29.5964 23.0771C28.4445 24.0886 27.303 25.1116 26.1625 26.1338L26.4962 26.5062C27.6371 25.4837 28.7767 24.4623 29.9263 23.4528L29.5964 23.0771ZM30.8744 23.6601C30.8587 23.4755 30.8234 23.3092 30.762 23.1717C30.7006 23.0338 30.6051 22.9085 30.4619 22.8384C30.164 22.6925 29.847 22.8569 29.5964 23.0771L29.9263 23.4528C30.0322 23.3598 30.114 23.3135 30.1705 23.2945C30.2229 23.2769 30.2401 23.2865 30.242 23.2875C30.2477 23.2902 30.2746 23.3062 30.3054 23.3753C30.3363 23.4447 30.3633 23.5512 30.3762 23.7025L30.8744 23.6601ZM31.173 24.5183C31.0255 24.2211 30.8998 23.9621 30.8744 23.6604L30.3762 23.7023C30.4107 24.1131 30.583 24.4543 30.7252 24.7406L31.173 24.5183ZM31.2681 24.713C31.237 24.6471 31.2044 24.5816 31.173 24.5183L30.7252 24.7406C30.757 24.8047 30.7873 24.8658 30.816 24.9266L31.2681 24.713ZM11.6166 23.9095L11.6163 23.9094L11.3858 24.3531L11.3861 24.3532L11.6166 23.9095ZM11.9693 24.1024C11.8477 24.0313 11.7236 23.9659 11.6179 23.9102L11.3847 24.3525C11.4918 24.409 11.6063 24.4693 11.7168 24.534L11.9693 24.1024ZM12.4655 24.3932L11.9694 24.1025L11.7166 24.5339L12.2127 24.8246L12.4655 24.3932ZM17.521 27.3649C15.8384 26.3699 14.1516 25.3814 12.4655 24.3932L12.2127 24.8246C13.8989 25.8128 15.5849 26.8009 17.2665 27.7953L17.521 27.3649ZM17.626 27.4202C17.5825 27.3984 17.5495 27.3817 17.5211 27.3649L17.2665 27.7953C17.3124 27.8224 17.3615 27.8469 17.4016 27.867L17.626 27.4202ZM17.6256 27.4201L17.6256 27.42L17.402 27.8673L17.402 27.8673L17.6256 27.4201ZM18.0459 28.2672C18.0877 28.1601 18.1077 28.0519 18.0959 27.945C18.0837 27.8354 18.0398 27.7443 17.9809 27.6713C17.8753 27.5405 17.7142 27.4645 17.626 27.4203L17.4016 27.8671C17.4545 27.8936 17.4954 27.9144 17.5308 27.9367C17.5658 27.9587 17.5834 27.9749 17.5919 27.9855C17.5979 27.9929 17.5985 27.9959 17.5989 28.0001C17.5997 28.0072 17.6006 28.0329 17.58 28.0857L18.0459 28.2672ZM17.0869 28.585C17.1888 28.6264 17.3713 28.7066 17.5536 28.6907C17.6576 28.6816 17.7609 28.6428 17.8513 28.5633C17.9379 28.4872 18 28.3849 18.0459 28.2673L17.5801 28.0856C17.553 28.1551 17.5295 28.1806 17.5211 28.1879C17.5167 28.1918 17.516 28.1921 17.5101 28.1926C17.4984 28.1936 17.4742 28.1922 17.4299 28.1793C17.3853 28.1663 17.3371 28.147 17.2749 28.1217L17.0869 28.585ZM16.9713 28.5403C17.0058 28.5522 17.0425 28.567 17.0869 28.585L17.2749 28.1217C17.233 28.1047 17.1838 28.0847 17.1343 28.0676L16.9713 28.5403ZM15.4102 28.0026C15.9307 28.1817 16.451 28.3609 16.9713 28.5403L17.1343 28.0676C16.6139 27.8881 16.0934 27.709 15.573 27.5298L15.4102 28.0026ZM15.4013 27.9995L15.4102 28.0026L15.573 27.5298L15.5641 27.5268L15.4013 27.9995ZM15.3999 27.999L15.4007 27.9993L15.5646 27.5269L15.5638 27.5266L15.3999 27.999ZM10.5928 26.3344C12.1935 26.8953 13.7973 27.4474 15.4005 27.9992L15.5632 27.5265C13.9599 26.9745 12.3573 26.4229 10.7581 25.8625L10.5928 26.3344ZM10.3075 24.8259C10.1457 24.9687 10.0115 25.1044 9.92091 25.2354C9.83156 25.3647 9.76065 25.5245 9.79147 25.7016C9.82264 25.8807 9.94519 26.0063 10.0771 26.0955C10.2097 26.1852 10.386 26.2619 10.5928 26.3344L10.7581 25.8625C10.5641 25.7945 10.4361 25.7347 10.3573 25.6814C10.2778 25.6276 10.2819 25.6035 10.2841 25.6159C10.2859 25.6262 10.2753 25.602 10.3322 25.5197C10.3879 25.4392 10.4858 25.3354 10.6384 25.2007L10.3075 24.8259ZM10.7201 24.3225C10.5793 24.5219 10.4561 24.6943 10.3073 24.8261L10.6387 25.2005C10.8386 25.0235 10.9944 24.8009 11.1285 24.611L10.7201 24.3225ZM10.7869 24.2284C10.7644 24.2599 10.742 24.2915 10.7201 24.3225L11.1285 24.611C11.1506 24.5797 11.1721 24.5493 11.1936 24.5192L10.7869 24.2284ZM10.8277 24.1605C10.8088 24.1942 10.7982 24.2127 10.7874 24.2276L11.1931 24.5199C11.2234 24.4778 11.2478 24.4337 11.2641 24.4046L10.8277 24.1605ZM11.3804 23.8137C11.226 23.8096 11.0973 23.8523 10.9956 23.9386C10.9065 24.0142 10.8549 24.1119 10.8277 24.1605L11.2641 24.4046C11.2806 24.3751 11.2909 24.3569 11.3015 24.3415C11.3112 24.3272 11.3168 24.3218 11.319 24.3199C11.3201 24.319 11.3207 24.3185 11.3236 24.3175C11.3275 24.3163 11.3402 24.3128 11.3672 24.3135L11.3804 23.8137ZM11.6177 23.9101C11.5723 23.8861 11.5306 23.8642 11.4926 23.8437L11.255 24.2836C11.2956 24.3055 11.3396 24.3287 11.3845 24.3524L11.6177 23.9101ZM33.5993 36.3937C33.6306 35.0949 33.5405 33.8071 33.4516 32.5333L32.9528 32.5681C33.042 33.8458 33.1301 35.1102 33.0995 36.3816L33.5993 36.3937ZM33.7876 38.59C33.6829 37.8402 33.5819 37.1132 33.5993 36.3937L33.0995 36.3816C33.0809 37.1489 33.1887 37.9167 33.2924 38.6592L33.7876 38.59ZM33.8954 39.403C33.8632 39.131 33.8252 38.8591 33.7876 38.59L33.2924 38.6592C33.3301 38.9291 33.3674 39.1959 33.3988 39.4617L33.8954 39.403ZM33.1297 40.2622C33.3564 40.255 33.5975 40.2192 33.7549 40.0478C33.9173 39.871 33.9221 39.6274 33.8954 39.4028L33.3989 39.4619C33.4234 39.6683 33.3884 39.7077 33.3867 39.7096C33.38 39.7168 33.3328 39.7555 33.1138 39.7625L33.1297 40.2622ZM33.0801 40.2638L33.1297 40.2622L33.1139 39.7625L33.0643 39.764L33.0801 40.2638ZM31.1304 38.1952C31.1021 38.6544 31.0793 39.0195 31.0923 39.297C31.105 39.5695 31.1532 39.8211 31.3236 40.0026C31.4958 40.186 31.7426 40.2449 32.009 40.2671C32.2791 40.2896 32.6351 40.2779 33.0801 40.2638L33.0643 39.764C32.6064 39.7785 32.285 39.7883 32.0506 39.7688C31.8125 39.749 31.7276 39.7023 31.6881 39.6603C31.6468 39.6164 31.6034 39.5227 31.5917 39.2737C31.5803 39.0298 31.6004 38.6972 31.6295 38.226L31.1304 38.1952ZM31.4537 33.038C31.3452 34.7569 31.2366 36.476 31.1304 38.1952L31.6295 38.226C31.7356 36.5072 31.8442 34.7885 31.9527 33.0695L31.4537 33.038ZM31.6167 30.4517C31.5625 31.3138 31.5081 32.1759 31.4537 33.038L31.9527 33.0695C32.0071 32.2074 32.0615 31.3452 32.1157 30.483L31.6167 30.4517ZM31.7979 28.3363C31.6997 29.0289 31.5977 29.745 31.6163 30.4737L32.1161 30.461C32.0988 29.7809 32.1938 29.106 32.2929 28.4064L31.7979 28.3363ZM31.944 25.8031C32.0362 26.6449 31.9201 27.4731 31.7979 28.3363L32.2929 28.4064C32.4138 27.5532 32.5411 26.663 32.441 25.7487L31.944 25.8031ZM31.9384 25.7514C31.9402 25.7683 31.9421 25.7855 31.944 25.803L32.4411 25.7488C32.4392 25.7317 32.4374 25.7148 32.4355 25.6978L31.9384 25.7514ZM31.5227 24.9325C31.7131 25.041 31.7953 25.1464 31.8424 25.2547C31.8961 25.3782 31.914 25.5243 31.9384 25.7514L32.4355 25.6978C32.4131 25.4896 32.3908 25.2622 32.3009 25.0554C32.2045 24.8334 32.0398 24.6517 31.7702 24.4981L31.5227 24.9325ZM30.8414 22.9605C30.6077 23.725 30.7889 24.5138 31.5225 24.9325L31.7703 24.4982C31.2912 24.2248 31.1352 23.7098 31.3195 23.1067L30.8414 22.9605ZM32.5112 21.7341C32.1169 21.7262 31.7578 21.8278 31.4645 22.042C31.1713 22.2562 30.9604 22.5707 30.8414 22.9606L31.3196 23.1066C31.412 22.804 31.5664 22.5868 31.7594 22.4458C31.9524 22.3049 32.2005 22.228 32.5012 22.234L32.5112 21.7341ZM34.0985 22.9359C33.9729 22.5696 33.7719 22.27 33.4968 22.0604C33.2209 21.85 32.8853 21.7416 32.5112 21.7341L32.5012 22.234C32.782 22.2396 33.0117 22.3193 33.1937 22.458C33.3766 22.5974 33.526 22.8078 33.6256 23.0981L34.0985 22.9359ZM33.4503 24.9095C33.7804 24.7011 34.0176 24.4129 34.1326 24.0652C34.2475 23.7184 34.2344 23.3319 34.0985 22.9359L33.6256 23.0981C33.732 23.4084 33.733 23.6815 33.658 23.9081C33.5832 24.1339 33.4267 24.3331 33.1834 24.4866L33.4503 24.9095ZM33.0358 25.7646C33.023 25.5428 33.0427 25.3912 33.0977 25.27C33.1511 25.1524 33.2505 25.0356 33.4503 24.9094L33.1834 24.4867C32.9271 24.6485 32.7473 24.8323 32.6425 25.0633C32.5393 25.2906 32.5217 25.5355 32.5367 25.7934L33.0358 25.7646ZM33.0474 26.8554C33.0521 26.4987 33.057 26.1318 33.0358 25.7646L32.5367 25.7934C32.5567 26.1399 32.5522 26.4892 32.5475 26.8489L33.0474 26.8554ZM33.2598 29.0854C33.0297 28.368 33.0372 27.6351 33.0474 26.8554L32.5475 26.8489C32.5374 27.616 32.5247 28.4307 32.7837 29.2381L33.2598 29.0854ZM33.3207 30.5399C33.4311 30.0586 33.4101 29.5558 33.2599 29.0856L32.7836 29.2378C32.9065 29.6226 32.9237 30.0341 32.8333 30.428L33.3207 30.5399ZM33.4516 32.5333C33.4036 31.8442 33.3558 31.1591 33.3268 30.4734L32.8272 30.4945C32.8566 31.1882 32.9048 31.8801 32.9528 32.5681L33.4516 32.5333ZM32.2834 23.4823C32.2935 23.3882 32.3255 23.3556 32.3453 23.3418C32.3707 23.3242 32.4254 23.3043 32.5273 23.3169L32.5887 22.8207C32.4081 22.7983 32.2174 22.8218 32.0599 22.9313C31.8968 23.0446 31.8084 23.2229 31.7863 23.4287L32.2834 23.4823ZM32.441 23.6648C32.3613 23.6532 32.3241 23.6254 32.308 23.606C32.2939 23.5891 32.2756 23.5548 32.2834 23.4821L31.7862 23.4289C31.7667 23.6117 31.8085 23.7876 31.9238 23.926C32.0371 24.062 32.1987 24.1349 32.3692 24.1596L32.441 23.6648ZM32.6939 23.4675C32.6689 23.5767 32.631 23.6226 32.6052 23.6418C32.5826 23.6586 32.5376 23.6787 32.4406 23.6647L32.3695 24.1596C32.5604 24.1871 32.7485 24.1583 32.9035 24.043C33.0553 23.9302 33.1397 23.7609 33.1813 23.579L32.6939 23.4675ZM32.5269 23.3168C32.5983 23.3258 32.626 23.3497 32.641 23.3691C32.6608 23.3944 32.6829 23.4447 32.688 23.5369L33.1872 23.5096C33.1788 23.355 33.1385 23.194 33.0354 23.0618C32.9277 22.9235 32.7724 22.8437 32.589 22.8207L32.5269 23.3168ZM20.8389 40.7439C20.4461 40.7439 20.0533 40.744 19.6606 40.7441L19.6607 41.2441C20.0535 41.244 20.4462 41.2439 20.8389 41.2439V40.7439ZM21.9536 40.7441C21.5821 40.744 21.2105 40.7439 20.8389 40.7439V41.2439C21.2104 41.2439 21.5819 41.244 21.9534 41.2441L21.9536 40.7441ZM25.6985 40.7406C24.4508 40.745 23.2025 40.7446 21.9536 40.7441L21.9534 41.2441C23.2022 41.2446 24.4514 41.245 25.7003 41.2406L25.6985 40.7406ZM25.8524 40.7455C25.8055 40.7432 25.7511 40.7404 25.6985 40.7406L25.7004 41.2406C25.7372 41.2404 25.7777 41.2424 25.8274 41.2449L25.8524 40.7455ZM26.1641 40.6294C26.1597 40.6924 26.1459 40.7161 26.1422 40.7216C26.1403 40.7245 26.1378 40.7284 26.124 40.7337C26.1061 40.7407 26.0755 40.7472 26.0252 40.7493C25.9748 40.7514 25.9197 40.7489 25.8524 40.7455L25.8274 41.2449C25.9416 41.2506 26.1376 41.2648 26.3049 41.1998C26.3986 41.1635 26.4891 41.1013 26.5564 41.0017C26.6221 40.9046 26.6541 40.7894 26.6629 40.6646L26.1641 40.6294ZM25.7562 40.4301C25.839 40.4299 25.9108 40.4299 25.9766 40.4359C26.0429 40.4418 26.0867 40.4527 26.1144 40.4653C26.1374 40.4757 26.1444 40.4847 26.1491 40.4936C26.1558 40.5061 26.1702 40.5435 26.1641 40.6295L26.6629 40.6645C26.6733 40.5163 26.654 40.3781 26.5907 40.2591C26.5255 40.1364 26.4264 40.0578 26.3212 40.01C26.1331 39.9246 25.8989 39.9298 25.7551 39.9301L25.7562 40.4301ZM25.7137 40.4301C25.7279 40.4301 25.7422 40.4301 25.7562 40.4301L25.7551 39.9301C25.741 39.9301 25.7274 39.9301 25.714 39.9301L25.7137 40.4301ZM15.9924 40.4299C19.2328 40.4277 22.4732 40.4277 25.7137 40.4301L25.714 39.9301C22.4734 39.9277 19.2327 39.9277 15.992 39.9299L15.9924 40.4299ZM15.9338 40.4297C15.9529 40.4298 15.9726 40.4299 15.9922 40.4299V39.9299C15.9742 39.9299 15.9559 39.9298 15.9365 39.9297L15.9338 40.4297ZM15.526 40.6221C15.5227 40.5398 15.5375 40.5041 15.5444 40.4918C15.5496 40.4826 15.5574 40.4733 15.5809 40.4629C15.6088 40.4506 15.6521 40.4402 15.7172 40.4346C15.7819 40.4291 15.8523 40.4293 15.9338 40.4297L15.9365 39.9297C15.7948 39.929 15.5652 39.9232 15.3787 40.0056C15.2748 40.0515 15.1762 40.1271 15.1091 40.2458C15.0438 40.3614 15.0205 40.4965 15.0264 40.6422L15.526 40.6221ZM15.847 40.7449C15.7778 40.7473 15.7206 40.7491 15.6682 40.7461C15.6158 40.7432 15.5835 40.736 15.5644 40.7283C15.5494 40.7223 15.547 40.718 15.5453 40.7154C15.5419 40.7103 15.5285 40.6863 15.526 40.6222L15.0264 40.6422C15.0315 40.7691 15.0608 40.8872 15.1256 40.9873C15.1921 41.0899 15.2833 41.1542 15.3778 41.1922C15.5464 41.26 15.7465 41.2486 15.8644 41.2445L15.847 40.7449ZM15.9788 40.7419C15.934 40.7418 15.888 40.7434 15.847 40.7449L15.8644 41.2445C15.9073 41.2431 15.9437 41.2418 15.9777 41.2419L15.9788 40.7419ZM19.6606 40.7441C18.433 40.7444 17.2058 40.7447 15.9788 40.7419L15.9777 41.2419C17.2054 41.2447 18.4333 41.2444 19.6607 41.2441L19.6606 40.7441ZM32.4149 40.7435C32.1419 40.7435 31.8689 40.7436 31.596 40.7438L31.5964 41.2438C31.8693 41.2436 32.1421 41.2435 32.4149 41.2435V40.7435ZM33.2707 40.744C32.9855 40.7437 32.7002 40.7435 32.4149 40.7435V41.2435C32.6999 41.2435 32.985 41.2437 33.2702 41.244L33.2707 40.744ZM35.702 40.7399C34.8922 40.7456 34.0819 40.7448 33.2707 40.744L33.2702 41.244C34.0811 41.2448 34.8934 41.2456 35.7055 41.2399L35.702 40.7399ZM35.824 40.7434C35.7877 40.7417 35.744 40.7396 35.702 40.7399L35.7054 41.2399C35.7317 41.2397 35.7617 41.241 35.801 41.2428L35.824 40.7434ZM35.9986 40.7076C36.0022 40.7594 35.9928 40.7693 35.9977 40.7599C36.0004 40.7548 36.0049 40.7487 36.0109 40.7434C36.0166 40.7385 36.0205 40.7368 36.02 40.737C36.0164 40.7386 36.0001 40.7438 35.9611 40.7458C35.9226 40.7477 35.8796 40.7459 35.824 40.7434L35.801 41.2428C35.8519 41.2452 35.9194 41.2485 35.986 41.2452C36.0521 41.2419 36.1354 41.2315 36.2168 41.1967C36.3039 41.1594 36.387 41.0945 36.4408 40.9916C36.492 40.8937 36.505 40.7836 36.4975 40.6736L35.9986 40.7076ZM35.8281 40.7097C35.8781 40.7072 35.9178 40.7054 35.9541 40.7066C35.9906 40.7078 36.0098 40.7118 36.0182 40.7146C36.0238 40.7165 36.013 40.7138 36.0023 40.6998C35.9919 40.6863 35.9969 40.682 35.9986 40.7076L36.4975 40.6736C36.4907 40.5736 36.4615 40.4766 36.3984 40.3947C36.3351 40.3126 36.2535 40.2661 36.1771 40.2405C36.0414 40.195 35.8854 40.2063 35.8034 40.2103L35.8281 40.7097ZM35.7113 40.7135C35.7514 40.7136 35.7933 40.7114 35.8281 40.7097L35.8034 40.2103C35.7656 40.2122 35.7372 40.2135 35.7123 40.2135L35.7113 40.7135ZM29.2162 40.7137C31.3812 40.7086 33.5464 40.7086 35.7112 40.7135L35.7124 40.2135C33.5468 40.2086 31.3808 40.2086 29.2151 40.2137L29.2162 40.7137ZM29.1133 40.711C29.144 40.7123 29.1808 40.7138 29.2165 40.7137L29.2148 40.2137C29.1924 40.2138 29.1671 40.2128 29.1339 40.2114L29.1133 40.711ZM28.9584 40.7237C28.9589 40.6871 28.9662 40.6851 28.9587 40.6969C28.955 40.7026 28.95 40.708 28.9446 40.7123C28.9396 40.7162 28.9364 40.7173 28.9373 40.7169C28.9414 40.7153 28.9566 40.7109 28.9911 40.7092C29.0254 40.7075 29.0635 40.7089 29.1133 40.711L29.1339 40.2114C29.0547 40.2081 28.893 40.1971 28.7543 40.2516C28.6747 40.2829 28.5948 40.3377 28.5373 40.4277C28.4814 40.5153 28.4598 40.6157 28.4584 40.7173L28.9584 40.7237ZM29.1226 40.7423C29.0712 40.7436 29.0315 40.7444 28.9958 40.742C28.9597 40.7397 28.9434 40.7348 28.9384 40.7328C28.9376 40.7325 28.9495 40.7381 28.9583 40.7525C28.9655 40.7643 28.9579 40.7617 28.9584 40.7237L28.4584 40.7173C28.4571 40.8204 28.4765 40.9229 28.5315 41.0129C28.5879 41.1055 28.6682 41.1623 28.7483 41.1952C28.8879 41.2526 29.0528 41.2442 29.1349 41.2422L29.1226 40.7423ZM29.2086 40.741C29.1791 40.7409 29.1489 40.7417 29.1226 40.7423L29.1349 41.2422C29.1628 41.2415 29.1855 41.2409 29.2065 41.241L29.2086 40.741ZM31.596 40.7438C30.7997 40.7443 30.0041 40.7448 29.2087 40.741L29.2064 41.241C30.0033 41.2448 30.8002 41.2443 31.5964 41.2438L31.596 40.7438ZM9.29815 40.7435C9.02085 40.7435 8.74357 40.7437 8.4664 40.7439L8.46678 41.2439C8.74398 41.2437 9.02107 41.2435 9.29815 41.2435V40.7435ZM10.1159 40.7438C9.84338 40.7436 9.57078 40.7435 9.29815 40.7435V41.2435C9.57058 41.2435 9.84301 41.2436 10.1155 41.2438L10.1159 40.7438ZM12.5049 40.7408C11.7089 40.7449 10.9129 40.7444 10.1159 40.7438L10.1155 41.2438C10.9123 41.2444 11.7098 41.2449 12.5074 41.2408L12.5049 40.7408ZM12.6222 40.7436C12.5866 40.7422 12.5451 40.7406 12.505 40.7408L12.5073 41.2408C12.5347 41.2407 12.5651 41.2418 12.6031 41.2432L12.6222 40.7436ZM12.832 40.7097C12.8315 40.7503 12.8231 40.755 12.8294 40.7455C12.8369 40.7342 12.8456 40.7319 12.8392 40.7343C12.829 40.7381 12.8068 40.7433 12.7652 40.7453C12.724 40.7473 12.6787 40.7458 12.6222 40.7436L12.6031 41.2432C12.696 41.2468 12.8691 41.2575 13.016 41.202C13.0993 41.1705 13.1844 41.115 13.2462 41.0217C13.3068 40.9303 13.3307 40.8241 13.3319 40.7153L12.832 40.7097ZM12.6362 40.7114C12.6891 40.7103 12.7331 40.7096 12.7738 40.712C12.8149 40.7144 12.8389 40.7194 12.8513 40.7238C12.8615 40.7274 12.8506 40.7257 12.8391 40.7098C12.8269 40.6931 12.8322 40.6856 12.832 40.7099L13.3319 40.7152C13.333 40.6094 13.3082 40.505 13.2438 40.4162C13.1799 40.3282 13.0945 40.2793 13.0172 40.2521C12.8783 40.2032 12.7147 40.2097 12.6263 40.2115L12.6362 40.7114ZM12.5601 40.7124C12.5858 40.7124 12.6122 40.7118 12.6362 40.7114L12.6263 40.2115C12.6013 40.212 12.5799 40.2124 12.5601 40.2124V40.7124ZM6.06215 40.7139C8.22797 40.7086 10.3937 40.7093 12.5597 40.7124L12.5605 40.2124C10.394 40.2093 8.22763 40.2086 6.06093 40.2139L6.06215 40.7139ZM5.96504 40.7115C5.99396 40.7126 6.02859 40.714 6.0621 40.7139L6.06098 40.2139C6.03971 40.214 6.01581 40.2131 5.98455 40.2119L5.96504 40.7115ZM5.82364 40.7242C5.8214 40.6814 5.82957 40.6772 5.82265 40.6899C5.81347 40.7067 5.79893 40.7155 5.79497 40.7172C5.79468 40.7173 5.79804 40.7158 5.80675 40.7142C5.81544 40.7125 5.82735 40.711 5.84329 40.7101C5.87707 40.7082 5.9149 40.7095 5.96503 40.7115L5.98457 40.2119C5.90676 40.2088 5.7394 40.1973 5.59876 40.2573C5.51662 40.2923 5.43681 40.3532 5.38382 40.4502C5.3331 40.5431 5.31892 40.6472 5.32432 40.7504L5.82364 40.7242ZM5.98991 40.7431C5.93965 40.7449 5.90113 40.7461 5.86635 40.7443C5.83147 40.7424 5.815 40.738 5.80934 40.7358C5.80737 40.735 5.81737 40.7392 5.82553 40.7511C5.83243 40.7612 5.82544 40.7588 5.82364 40.7243L5.32432 40.7503C5.32957 40.851 5.35513 40.9491 5.41292 41.0335C5.47197 41.1198 5.55119 41.1722 5.6296 41.2024C5.76743 41.2555 5.9269 41.2457 6.00788 41.2427L5.98991 40.7431ZM6.09099 40.7408C6.05604 40.7406 6.02019 40.742 5.98989 40.7431L6.00789 41.2427C6.0403 41.2416 6.0658 41.2407 6.08888 41.2408L6.09099 40.7408ZM8.4664 40.7439C7.674 40.7445 6.88251 40.7451 6.09128 40.7408L6.08859 41.2408C6.88161 41.2451 7.67463 41.2445 8.46678 41.2439L8.4664 40.7439Z" fill="url(#paint1_linear_623_531)"/>
<defs>
<linearGradient id="paint0_linear_623_531" x1="20.9998" y1="1" x2="20.9998" y2="41.0001" gradientUnits="userSpaceOnUse">
<stop stop-color="#133750"/>
<stop offset="1" stop-color="#061D2D"/>
</linearGradient>
<linearGradient id="paint1_linear_623_531" x1="20.9998" y1="1" x2="20.9998" y2="41.0001" gradientUnits="userSpaceOnUse">
<stop stop-color="#133750"/>
<stop offset="1" stop-color="#061D2D"/>
</linearGradient>
</defs>
</svg>
