<svg width="24" height="24" viewBox="0 0 24 24" fill="none" xmlns="http://www.w3.org/2000/svg">
<path d="M2.84331 21.948C3.2753 19.9438 6.72229 19.9438 7.16326 21.948H9.27769C10.1969 21.948 10.2714 21.7586 10.2714 21.0027V15.897C10.2714 13.7892 10.5557 14.0063 8.36815 14.0063H2.01589C1.09669 14.0063 1.02285 14.1483 1.02285 14.9041V20.0382C0.979378 20.596 0.998011 21.1574 1.07806 21.7117C1.19745 21.9289 1.42725 21.9956 1.80403 21.9956L2.84331 21.948ZM16.9625 20.6713C16.9625 21.6166 17.1378 22.1177 15.7411 21.9764C15.6636 21.7665 15.5744 21.5612 15.474 21.3618C14.5548 20.0382 11.9166 20.1042 11.4197 21.9764C11.3367 21.98 11.2539 21.9648 11.1772 21.9319C11.1005 21.8991 11.0317 21.8494 10.9757 21.7863C10.9197 21.7232 10.8778 21.6482 10.8529 21.5667C10.828 21.4851 10.8208 21.399 10.8318 21.3143V16.7387C10.8318 16.3605 10.9235 16.0766 11.3555 16.029H14.1959C14.3733 16.0239 14.5492 16.0625 14.7091 16.1415C14.869 16.2205 15.0082 16.3377 15.1151 16.4832L15.3912 16.7387C15.9284 17.2476 16.4066 17.8187 16.8162 18.4406C16.993 19.1694 17.0428 19.9246 16.9632 20.6713H16.9625ZM15.9702 18.9509C15.9702 18.6862 15.051 17.8353 14.8674 17.5514C14.6831 17.2675 14.4533 16.9843 14.1318 16.9651C13.6542 16.9368 13.1753 16.9368 12.6978 16.9651V18.9509C13.5528 18.9701 15.0696 18.9509 15.9702 18.9509Z" fill="white"/>
<path d="M4.66701 20.772C3.99747 20.9095 3.38366 21.4135 3.6128 22.1183C3.74725 22.4379 3.99333 22.6978 4.30524 22.8496C4.61716 23.0013 4.97365 23.0347 5.30834 22.9434C5.46889 22.9339 5.62568 22.891 5.76866 22.8174C5.91165 22.7439 6.03767 22.6413 6.13867 22.5162C6.23967 22.3911 6.3134 22.2464 6.35515 22.0912C6.39691 21.936 6.40575 21.7738 6.38113 21.615C6.24178 21.2942 5.99293 21.0334 5.67897 20.879C5.36501 20.7246 5.00636 20.6867 4.66701 20.772ZM13.4757 20.7445C12.7242 20.8181 12.1104 21.276 12.1648 21.9354C12.2377 22.276 12.4399 22.5751 12.7289 22.7698C13.0179 22.9646 13.3711 23.0399 13.7145 22.9799C13.8782 22.9847 14.0413 22.9573 14.1945 22.8991C14.3476 22.8409 14.4878 22.7532 14.607 22.6409C14.7262 22.5285 14.822 22.3939 14.8891 22.2445C14.9561 22.0951 14.9931 21.934 14.9978 21.7704C14.9099 21.4451 14.7077 21.1623 14.4281 20.9739C14.1486 20.7855 13.8104 20.7041 13.4757 20.7445ZM1.63376 5.83326L2.65975 5.34782L3.01758 5.16423L3.75112 4.84381C5.00694 4.29373 6.62954 3.46999 7.89362 2.96598L11.7072 1.25318C12.4043 0.93276 12.2302 0.93276 12.7614 1.16173L16.2082 2.82846C16.4456 2.93848 16.6658 3.02993 16.9039 3.14888L22.3766 5.75969C22.5231 5.85114 23 5.98866 23 6.17225V22.9792H19.022V9.2403H5.0152V11.9879H1V6.21763C1 6.01616 1.4404 5.89721 1.63307 5.83257L1.63376 5.83326ZM7.75668 6.2637C7.76137 6.30576 7.78205 6.34442 7.81446 6.37167C7.84686 6.39893 7.8885 6.41271 7.93078 6.41016H13.5321C13.5743 6.41008 13.6149 6.42614 13.6456 6.45504C13.6763 6.48393 13.6948 6.52348 13.6973 6.56555V7.91187C13.701 7.94184 13.7125 7.97032 13.7306 7.99451C13.7486 8.0187 13.7727 8.03777 13.8004 8.04985C13.8281 8.06192 13.8585 8.06657 13.8886 8.06336C13.9186 8.06014 13.9473 8.04917 13.9718 8.03151L16.511 6.08011C16.5299 6.06655 16.5453 6.04869 16.5559 6.028C16.5665 6.00732 16.5721 5.9844 16.5721 5.96116C16.5721 5.93791 16.5665 5.91499 16.5559 5.89431C16.5453 5.87362 16.5299 5.85576 16.511 5.8422L13.9718 3.88255C13.9474 3.86454 13.9188 3.85322 13.8887 3.84973C13.8585 3.84624 13.828 3.85071 13.8002 3.86267C13.7723 3.87464 13.7481 3.89369 13.7299 3.91793C13.7118 3.94217 13.7002 3.97075 13.6966 4.00082V5.34782C13.6941 5.3899 13.6756 5.42944 13.6449 5.45833C13.6142 5.48723 13.5736 5.50329 13.5314 5.50322H7.93009C7.88639 5.50078 7.8435 5.51577 7.81086 5.54491C7.77821 5.57405 7.75848 5.61494 7.756 5.65861V6.2637H7.75668Z" fill="white"/>
</svg>
