<svg width="38" height="38" viewBox="0 0 38 38" fill="none" xmlns="http://www.w3.org/2000/svg">
<path fill-rule="evenodd" clip-rule="evenodd" d="M36.6214 13.32C36.6214 13.32 19.8002 0.830609 19.6637 0.741197C19.1554 0.36918 18.8966 0.179829 18.6371 0.178716C18.368 0.177562 18.0981 0.37867 17.5484 0.788244L17.5484 0.788256L0.200195 13.5V15.1L0.200228 16.6L3.33193 14.6965V36.8706H4.68252H6.03311V12.7977L18.6308 3.40002L31.4496 12.9436V19.1412H32.7978H34.1484V14.9859L36.6214 16.3C36.6108 15.7499 36.6108 15.675 36.6108 15.6375C36.6108 15.6343 36.6108 15.6314 36.6108 15.6284C36.6107 15.5971 36.6099 15.5659 36.6002 15.2021L36.6002 15.2C36.6002 14.3451 36.6073 14.1114 36.6133 13.9148C36.6176 13.7718 36.6214 13.6484 36.6214 13.32ZM9.14841 32.0965H13.3766V36.5577H9.14841V32.0965ZM9.14841 25.4047H13.3766V29.8659H9.14841V25.4047ZM9.14841 18.5247H13.3766V22.9859H9.14841V18.5247ZM16.9555 34.713L18.3766 34.7106C18.9461 31.1765 23.6002 31.1765 24.1696 34.7106H26.9837C28.2825 34.713 28.3013 34.3812 28.3013 33.0753V20.7577H25.7649H17.2472H15.9061V31.3059C15.9061 31.4156 15.9032 31.5793 15.8998 31.7746V31.7746C15.8858 32.5842 15.8623 33.9359 15.9931 34.2259C16.1625 34.5741 16.4708 34.7153 16.9578 34.7153L16.9555 34.713ZM29.9484 34.6965C30.6025 31.4424 34.1531 31.3083 35.3955 33.6236C35.526 33.8638 35.5721 34.0548 35.6199 34.2528C35.6531 34.3903 35.6871 34.5312 35.7508 34.6941C37.4243 34.8973 37.4123 34.2167 37.3895 32.9196C37.3867 32.7595 37.3837 32.5901 37.3837 32.4118C37.3837 32.2131 37.3885 31.9745 37.3937 31.7134L37.3937 31.7129C37.415 30.6535 37.4437 29.2234 37.1908 28.5836C36.9214 27.9063 36.1961 26.9077 35.6317 26.1307C35.4961 25.944 35.3698 25.7701 35.2614 25.6165C35.2297 25.5713 35.1975 25.5243 35.1649 25.4768L35.1649 25.4768C35.0569 25.3194 34.9456 25.157 34.8425 25.0377C34.8041 24.9901 34.7671 24.9419 34.7304 24.894C34.4842 24.5731 34.2496 24.2673 33.6496 24.2447L29.8308 24.2565C29.2331 24.3436 29.1155 24.8306 29.1155 25.5036V33.5647C29.1249 34.2047 29.3225 34.6941 29.9484 34.6965ZM35.9908 29.4777C34.5272 29.5012 33.0661 29.5012 31.6049 29.473V25.9953C32.139 25.96 32.9931 25.9577 33.5272 25.9883C33.8565 26.0075 34.0943 26.3828 34.3323 26.7584C34.3852 26.8418 34.4381 26.9252 34.4919 27.0047C34.5554 27.0978 34.6438 27.2221 34.7462 27.3663L34.7464 27.3666L34.7464 27.3667C35.2139 28.0244 35.9734 29.0933 35.9908 29.4753V29.4777ZM20.85 33.1859C22.01 32.88 22.9253 33.7694 23.1324 34.7012C23.2537 35.2097 23.1719 35.7455 22.9043 36.1946C22.6367 36.6437 22.2044 36.9706 21.6994 37.1059C20.5441 37.3812 19.6382 36.5506 19.4265 35.6094C19.296 35.0994 19.3725 34.5584 19.6391 34.1045C19.9057 33.6505 20.341 33.3203 20.85 33.1859ZM32.6971 33.1459C33.7653 33.0377 34.643 33.9247 34.7371 34.9459H34.7347C34.843 36.1247 34.0218 37.0518 33.0218 37.1459C31.9088 37.2541 31.0288 36.3788 30.9465 35.3106C30.9185 35.0534 30.9416 34.7931 31.0145 34.5449C31.0874 34.2966 31.2087 34.0653 31.3714 33.8641C31.5341 33.6629 31.735 33.4958 31.9625 33.3726C32.19 33.2493 32.4397 33.1723 32.6971 33.1459Z" fill="url(#paint0_linear_623_548)"/>
<defs>
<linearGradient id="paint0_linear_623_548" x1="18.8036" y1="0.178711" x2="18.8036" y2="37.1594" gradientUnits="userSpaceOnUse">
<stop stop-color="#133750"/>
<stop offset="1" stop-color="#061D2D"/>
</linearGradient>
</defs>
</svg>
