<svg width="18" height="18" viewBox="0 0 18 18" fill="none" xmlns="http://www.w3.org/2000/svg">
<path d="M8.9967 2.97988e-07C10.5557 -0.000400776 12.088 0.404071 13.4437 1.1738C14.7993 1.94353 15.9318 3.05213 16.7301 4.39102C17.5285 5.7299 17.9654 7.25317 17.998 8.81163C18.0307 10.3701 17.6579 11.9103 16.9163 13.2814L14.6725 11.0391C14.1874 10.5707 13.5378 10.3116 12.8635 10.3174C12.1892 10.3233 11.5442 10.5937 11.0674 11.0705C10.5906 11.5472 10.3201 12.1922 10.3143 12.8664C10.3084 13.5406 10.5676 14.1902 11.0361 14.6751L13.2786 16.9187C12.0735 17.5696 10.7357 17.9368 9.36714 17.9925C7.99859 18.0483 6.63538 17.7909 5.38133 17.2402C4.12728 16.6895 3.01547 15.8598 2.13058 14.8145C1.2457 13.7691 0.611081 12.5356 0.275063 11.2079C-0.0609545 9.88025 -0.0895078 8.4934 0.191578 7.15302C0.472664 5.81264 1.05598 4.55407 1.89708 3.47319C2.73819 2.39231 3.81491 1.51761 5.04523 0.915729C6.27555 0.313847 7.62702 0.000652507 8.9967 2.97988e-07ZM13.231 13.2339C13.4722 12.9928 13.7992 12.8574 14.1401 12.8574C14.4811 12.8574 14.8081 12.9928 15.0492 13.2339L17.6209 15.8053C17.8552 16.0478 17.9848 16.3725 17.9818 16.7097C17.9789 17.0468 17.8437 17.3692 17.6053 17.6076C17.3669 17.846 17.0443 17.9812 16.7072 17.9842C16.3701 17.9871 16.0452 17.8575 15.8027 17.6233L13.231 15.0519C12.99 14.8108 12.8545 14.4838 12.8545 14.1429C12.8545 13.8019 12.99 13.475 13.231 13.2339ZM8.9967 5.14286H6.42499C6.09725 5.14322 5.78202 5.2687 5.5437 5.49366C5.30539 5.71862 5.16198 6.02608 5.14277 6.35322C5.12356 6.68036 5.23001 7.00249 5.44036 7.25378C5.65072 7.50508 5.9491 7.66658 6.27454 7.70529L6.42499 7.71429H8.9967C9.16556 7.71429 9.33277 7.68103 9.48877 7.61642C9.64478 7.5518 9.78653 7.4571 9.90594 7.33771C10.0253 7.21832 10.1201 7.07658 10.1847 6.92059C10.2493 6.7646 10.2826 6.59741 10.2826 6.42857C10.2826 6.25973 10.2493 6.09254 10.1847 5.93655C10.1201 5.78056 10.0253 5.63882 9.90594 5.51943C9.78653 5.40004 9.64478 5.30534 9.48877 5.24073C9.33277 5.17611 9.16556 5.14286 8.9967 5.14286Z" fill="white"/>
</svg>
