<svg width="20" height="20" viewBox="0 0 20 20" fill="none" xmlns="http://www.w3.org/2000/svg">
<path d="M8.80114 8.46948L0.50281 13.2872C0.16836 12.2791 -0.0013598 11.2249 8.20424e-06 10.1642C8.20424e-06 5.06455 3.85901 0.871631 8.80114 0.377982V8.46948ZM9.35631 10.4183L17.8076 15.7813C16.0404 18.3311 13.1043 20 9.77846 20C6.16247 20 3.00425 18.0254 1.31253 15.0893L9.35631 10.4183ZM10.3776 4.13508L15.8152 1.03274L16.8575 2.81731L11.4199 5.91965L10.3776 4.13508ZM10.0948 1.03377L11.9059 0L12.9503 1.78767L11.1392 2.82144L10.0948 1.03377ZM16.3798 12.3939L18.191 11.3601L19.2353 13.1478L17.4242 14.1816L16.3798 12.3939ZM10.519 7.75173L17.7699 3.61458L18.8111 5.39709L11.5603 9.53424L10.519 7.75173ZM13.5201 10.3315L18.9577 7.22917L20 9.01374L14.5624 12.1161L13.5201 10.3315Z" fill="white"/>
</svg>
