<svg width="32" height="32" viewBox="0 0 32 32" fill="none" xmlns="http://www.w3.org/2000/svg">
<path d="M30.8601 0H1.13997C0.510449 0 0 0.50973 0 1.14579V9.14571H32V1.14579C32 0.510437 31.4896 0 30.8601 0ZM4.55077 6.0006C3.75975 6.0006 3.11981 5.36067 3.11981 4.56956C3.11981 3.78054 3.75975 3.14058 4.55077 3.14058C5.33981 3.14058 5.97979 3.78054 5.97979 4.56956C5.97979 5.36067 5.33981 6.0006 4.55077 6.0006ZM0 30.8549C0 31.4896 0.510449 32 1.13997 32H30.8549C31.4857 32 31.9948 31.4896 31.9948 30.8549V22.8557H0V30.8549ZM4.55077 26.0002C5.33981 26.0002 5.97979 26.6401 5.97979 27.4298C5.97979 28.2201 5.33981 28.8601 4.55077 28.8601C3.75975 28.8601 3.11981 28.2201 3.11981 27.4298C3.11981 26.6401 3.75975 26.0002 4.55077 26.0002ZM0 20.5706H32V11.4302H0V20.5706ZM4.55077 14.5694C5.33981 14.5694 5.97979 15.21 5.97979 15.9997C5.97979 16.7901 5.33981 17.4294 4.55077 17.4294C3.75975 17.4294 3.11981 16.7901 3.11981 15.9997C3.11981 15.21 3.75975 14.5694 4.55077 14.5694Z" fill="url(#paint0_linear_555_3915)"/>
<defs>
<linearGradient id="paint0_linear_555_3915" x1="16" y1="0" x2="16" y2="32" gradientUnits="userSpaceOnUse">
<stop stop-color="#133750"/>
<stop offset="1" stop-color="#061D2D"/>
</linearGradient>
</defs>
</svg>
