<svg width="24" height="24" viewBox="0 0 24 24" fill="none" xmlns="http://www.w3.org/2000/svg">
<path fill-rule="evenodd" clip-rule="evenodd" d="M2 8H16V22H2V8ZM7.49999 10H10.5V17.125H11.5981L8.99998 20.5L6.4019 17.125H7.49999V10Z" fill="white"/>
<rect x="2" y="5" width="11" height="2" fill="white"/>
<rect x="17" y="11" width="2" height="11" fill="white"/>
<rect x="12" y="2" width="10" height="10" rx="2" fill="#505E68"/>
<path d="M19.8096 3H14.1904C13.5452 3 13 3.54519 13 4.19038V9.80962C13 10.4548 13.5452 11 14.1904 11H19.8096C20.4548 11 21 10.4548 21 9.80962V4.19038C21 3.54519 20.4548 3 19.8096 3ZM19.9192 6.26827L18.4183 7.76923L17.8558 8.33173C17.8212 8.36635 17.7644 8.36635 17.7298 8.33173L17.1673 7.76923L16.2346 6.83654L14.7125 8.35865C14.6779 8.39327 14.6212 8.39327 14.5865 8.35865L14.0808 7.85288C14.0462 7.81827 14.0462 7.76154 14.0808 7.72692L16.1654 5.64231C16.2 5.60769 16.2567 5.60769 16.2913 5.64231L17.7933 7.14327L19.2942 5.64327C19.3288 5.60865 19.3856 5.60865 19.4202 5.64327L19.9192 6.14231C19.9548 6.17596 19.9548 6.23269 19.9192 6.26827Z" fill="white"/>
</svg>
