<svg width="20" height="20" viewBox="0 0 20 20" fill="none" xmlns="http://www.w3.org/2000/svg">
<path d="M15.444 9.75897L19.658 12.192V17.058L15.444 19.491L11.23 17.058V12.192L15.444 9.75897ZM4.61904 9.75897L8.83304 12.192V17.058L4.61854 19.491L0.404541 17.058V12.192L4.61904 9.75897ZM15.444 13.058H12.7295V16.1915H15.444H18.158V13.058H15.444ZM4.61854 13.058H1.90454V16.1915H4.61854H7.33254V13.058H4.61854ZM10.0315 0.383972L14.2455 2.81697V7.68297L10.0315 10.116L5.81754 7.68297V2.81697L10.0315 0.383972ZM10.031 3.68297H7.31704V6.81647H10.031H12.745V3.68297H10.031Z" fill="white"/>
</svg>
