<svg width="20" height="20" viewBox="0 0 20 20" fill="none" xmlns="http://www.w3.org/2000/svg">
<path d="M10 15.905C8.94714 15.9062 7.9125 15.6238 7.00002 15.0862L3.24004 17.3072C5.08465 19.0391 7.49681 20 10 20C12.5032 20 14.9154 19.0391 16.76 17.3072L13 15.0862C12.0875 15.6238 11.0529 15.9062 10 15.905ZM7.00002 4.44195V0C4.96998 0.653418 3.19654 1.95263 1.93761 3.70867C0.678687 5.46472 -6.81786e-05 7.58603 6.12037e-05 9.76409C-0.00254312 10.5113 0.0779748 11.2565 0.24006 11.9851L4.00004 9.76409C3.99936 8.68547 4.27628 7.62568 4.80292 6.69139C5.32956 5.7571 6.08734 4.98126 7.00002 4.44195ZM13 0V4.44195C13.9127 4.98126 14.6704 5.7571 15.1971 6.69139C15.7237 7.62568 16.0006 8.68547 16 9.76409L19.7599 11.9851C19.922 11.2565 20.0025 10.5113 19.9999 9.76409C20.0001 7.58603 19.3213 5.46472 18.0624 3.70867C16.8035 1.95263 15.03 0.653418 13 0ZM10 13.8581C10.7911 13.8581 11.5645 13.6179 12.2223 13.1681C12.8801 12.7182 13.3927 12.0789 13.6955 11.3308C13.9982 10.5827 14.0775 9.75955 13.9231 8.9654C13.7688 8.17125 13.3878 7.44178 12.8284 6.86923C12.269 6.29668 11.5563 5.90676 10.7804 5.7488C10.0044 5.59083 9.20018 5.67191 8.46928 5.98177C7.73838 6.29163 7.11367 6.81636 6.67414 7.48961C6.23462 8.16286 6.00002 8.95438 6.00002 9.76409C6.00002 10.8499 6.42145 11.8912 7.17159 12.659C7.92173 13.4267 8.93914 13.8581 10 13.8581ZM10 7.71711C10.3956 7.71711 10.7822 7.83717 11.1111 8.06209C11.44 8.28702 11.6964 8.60671 11.8477 8.98075C11.9991 9.35478 12.0387 9.76637 11.9616 10.1634C11.8844 10.5605 11.6939 10.9253 11.4142 11.2115C11.1345 11.4978 10.7781 11.6928 10.3902 11.7717C10.0022 11.8507 9.60009 11.8102 9.23464 11.6553C8.86919 11.5003 8.55683 11.238 8.33707 10.9013C8.11731 10.5647 8.00001 10.1689 8.00001 9.76409C8.00001 9.49528 8.05174 9.2291 8.15225 8.98075C8.25276 8.7324 8.40008 8.50674 8.5858 8.31666C8.77151 8.12658 8.99199 7.9758 9.23464 7.87293C9.47729 7.77006 9.73736 7.71711 10 7.71711Z" fill="white"/>
</svg>
