<svg width="24" height="24" viewBox="0 0 24 24" fill="none" xmlns="http://www.w3.org/2000/svg">
<path d="M1.3999 12.8119H3.521V21.8709H1.3999V12.8119ZM4.87897 13.447H3.98975V21.1153H4.87897C5.07303 21.1153 5.231 20.9573 5.231 20.7637V13.7991C5.231 13.605 5.07303 13.447 4.87897 13.447ZM22.4927 14.8739C22.2668 14.5509 21.7347 14.4277 21.3316 14.6048C21.3302 14.6053 21.3283 14.6062 21.3269 14.6067L17.014 16.3861C17.0102 16.4325 17.0037 16.4789 16.9938 16.5248C16.8747 17.1201 16.3371 17.5528 15.7165 17.5528H12.018C12.0105 17.5523 11.1372 17.5162 10.4393 18.1195C10.3947 18.1575 10.3404 18.1762 10.286 18.1762C10.2204 18.1762 10.1552 18.1491 10.1088 18.0951C10.0886 18.0719 10.0733 18.0449 10.0636 18.0157C10.0538 17.9865 10.05 17.9557 10.0522 17.925C10.0544 17.8943 10.0627 17.8643 10.0765 17.8368C10.0903 17.8093 10.1094 17.7848 10.1327 17.7647C10.9502 17.0587 11.9332 17.0798 12.0368 17.0841H15.7165C16.1149 17.0841 16.459 16.8098 16.5344 16.4316C16.5452 16.38 16.5504 16.3284 16.5504 16.2773C16.5504 16.2666 16.5499 16.2558 16.5494 16.2455C16.549 16.2436 16.549 16.2412 16.549 16.2389C16.5283 15.8076 16.1627 15.4697 15.7165 15.4697H12.0312C11.7237 15.4697 11.321 15.427 10.8972 15.3501C10.5101 15.2789 10.1491 15.1856 9.87912 15.0862C9.87729 15.0857 9.87554 15.085 9.87397 15.0839L9.85193 15.0755C9.24678 14.8542 8.30459 14.722 7.331 14.722H5.69975V19.703L12.6912 21.3253C13.1688 21.4294 13.924 21.2934 14.3369 21.0272L22.2387 15.8409C22.4224 15.7223 22.549 15.5419 22.5879 15.345C22.6212 15.1762 22.5874 15.0089 22.4927 14.8739ZM11.6769 3.92277C11.6981 3.98118 11.7417 4.02874 11.7981 4.05502C11.8544 4.08129 11.9188 4.08412 11.9772 4.06288C12.0062 4.05237 12.0327 4.03625 12.0554 4.01546C12.0781 3.99467 12.0965 3.96961 12.1095 3.94172C12.1225 3.91382 12.1299 3.88364 12.1312 3.85289C12.1326 3.82214 12.1278 3.79143 12.1173 3.76251L11.579 2.28351C11.5685 2.25458 11.5524 2.228 11.5316 2.2053C11.5108 2.18259 11.4857 2.16421 11.4578 2.15121C11.4299 2.1382 11.3998 2.13082 11.369 2.12948C11.3383 2.12815 11.3075 2.1329 11.2786 2.14345C11.2497 2.15396 11.2231 2.17008 11.2004 2.19087C11.1777 2.21166 11.1594 2.23672 11.1464 2.26461C11.1333 2.29251 11.126 2.32269 11.1246 2.35344C11.1233 2.38419 11.128 2.4149 11.1386 2.44382L11.6769 3.92277ZM7.71143 5.52871L9.07465 6.31602C9.1013 6.33143 9.13072 6.34144 9.16124 6.34547C9.19175 6.3495 9.22277 6.34748 9.2525 6.33951C9.28223 6.33155 9.31011 6.31781 9.33453 6.29907C9.35894 6.28032 9.37943 6.25695 9.39481 6.23029C9.41021 6.20364 9.4202 6.17422 9.42423 6.1437C9.42825 6.11319 9.42622 6.08218 9.41826 6.05245C9.4103 6.02272 9.39656 5.99485 9.37783 5.97043C9.35909 5.94601 9.33573 5.92552 9.30908 5.91013L7.94586 5.12282C7.91919 5.10703 7.88965 5.09669 7.85896 5.09239C7.82827 5.08809 7.79703 5.08992 7.76705 5.09777C7.73707 5.10563 7.70894 5.11935 7.6843 5.13815C7.65966 5.15695 7.63899 5.18044 7.62349 5.20728C7.60799 5.23412 7.59797 5.26376 7.594 5.2945C7.59003 5.32524 7.5922 5.35646 7.60038 5.38635C7.60856 5.41624 7.62259 5.44422 7.64165 5.46865C7.66071 5.49309 7.68443 5.5135 7.71143 5.52871ZM18.0161 6.34752C18.0559 6.34752 18.0961 6.3374 18.1331 6.31607L19.4961 5.52876C19.55 5.49767 19.5892 5.44646 19.6053 5.38641C19.6214 5.32636 19.613 5.26239 19.5819 5.20856C19.5508 5.15472 19.4996 5.11545 19.4395 5.09937C19.3795 5.08329 19.3155 5.09173 19.2617 5.12282L17.8986 5.91013C17.8539 5.93593 17.8189 5.97578 17.7992 6.02348C17.7794 6.07119 17.776 6.12408 17.7894 6.17394C17.8027 6.2238 17.8322 6.26785 17.8732 6.29924C17.9142 6.33063 17.9644 6.3476 18.0161 6.34752ZM7.02786 10.0987C7.04136 10.0987 7.05509 10.0975 7.06882 10.0951L8.61936 9.82166C8.64981 9.81647 8.67893 9.80532 8.70506 9.78883C8.73118 9.77234 8.75379 9.75086 8.77158 9.72561C8.78937 9.70035 8.80199 9.67183 8.80872 9.64168C8.81545 9.61154 8.81615 9.58036 8.81079 9.54993C8.80543 9.51951 8.7941 9.49045 8.77747 9.46442C8.76084 9.43839 8.73922 9.41591 8.71387 9.39826C8.68852 9.38061 8.65993 9.36815 8.62974 9.36159C8.59956 9.35503 8.56837 9.3545 8.53798 9.36004L6.98745 9.63346C6.95496 9.63346 6.92282 9.64021 6.89308 9.65329C6.86334 9.66636 6.83664 9.68548 6.81468 9.70943C6.79272 9.73337 6.77597 9.76162 6.76552 9.79239C6.75506 9.82315 6.75111 9.85575 6.75392 9.88812C6.75673 9.92049 6.76624 9.95192 6.78185 9.98041C6.79745 10.0089 6.81881 10.0339 6.84457 10.0537C6.87033 10.0735 6.89993 10.0877 6.93148 10.0954C6.96303 10.1032 6.99585 10.1043 7.02786 10.0987ZM18.5163 9.55012C18.5055 9.61133 18.5194 9.67433 18.5551 9.72524C18.5908 9.77616 18.6452 9.81083 18.7064 9.82162L20.2567 10.095C20.3179 10.1058 20.3809 10.0918 20.4318 10.0562C20.4827 10.0205 20.5174 9.96616 20.5282 9.90496C20.539 9.84375 20.525 9.78075 20.4894 9.72984C20.4537 9.67892 20.3993 9.64425 20.3381 9.63346L18.7878 9.36004C18.7266 9.34925 18.6636 9.36321 18.6127 9.39886C18.5617 9.4345 18.5271 9.48891 18.5163 9.55012ZM15.3486 4.06293C15.407 4.08417 15.4715 4.08135 15.5278 4.05509C15.5841 4.02882 15.6277 3.98127 15.649 3.92287L16.1875 2.44391C16.1984 2.41491 16.2034 2.38402 16.2024 2.35305C16.2013 2.32207 16.194 2.29162 16.1811 2.26346C16.1681 2.2353 16.1497 2.20998 16.127 2.18898C16.1042 2.16797 16.0774 2.1517 16.0483 2.1411C16.0192 2.13049 15.9882 2.12577 15.9573 2.1272C15.9263 2.12864 15.896 2.1362 15.8679 2.14945C15.8399 2.16269 15.8148 2.18137 15.794 2.20439C15.7733 2.22741 15.7573 2.25432 15.747 2.28356L15.2086 3.76251C15.1873 3.82091 15.1901 3.88537 15.2164 3.94171C15.2426 3.99804 15.2902 4.04165 15.3486 4.06293ZM11.1912 9.2639C11.464 9.52968 11.6271 10.0326 11.5629 10.4081L11.2076 12.4791C11.2024 12.5086 11.2015 12.5316 11.2019 12.5475C11.2169 12.5433 11.2385 12.5358 11.2657 12.5212L13.1257 11.5434C13.2897 11.4572 13.5035 11.4098 13.7271 11.4098C13.9512 11.4098 14.1649 11.4572 14.3285 11.5434L16.1885 12.5212C16.2162 12.5358 16.2372 12.5433 16.2522 12.5475C16.2532 12.5316 16.2522 12.5086 16.2471 12.4791L15.8918 10.4081C15.8276 10.0322 15.9907 9.52968 16.2635 9.2639L17.7682 7.79718C17.7897 7.77609 17.8038 7.75827 17.8127 7.74468C17.7912 7.73702 17.7688 7.73168 17.7462 7.72874L15.6663 7.4264C15.2894 7.37156 14.8619 7.06077 14.6932 6.71906L13.7632 4.83515C13.7501 4.80796 13.7374 4.78921 13.7271 4.77656C13.7172 4.78921 13.7046 4.80796 13.6915 4.83468L12.761 6.71952C12.5927 7.06124 12.1652 7.37156 11.7879 7.4264L9.7085 7.72874C9.6785 7.73296 9.65693 7.73906 9.64147 7.74468C9.65037 7.75827 9.66443 7.77609 9.686 7.79718L11.1912 9.2639Z" fill="white"/>
</svg>
