<svg width="16" height="18" viewBox="0 0 16 18" fill="none" xmlns="http://www.w3.org/2000/svg">
<path d="M15.96 4.85678C15.9483 4.64077 15.9215 4.4256 15.9016 4.20509C15.8345 4.20509 15.7828 4.20861 15.732 4.20425C15.562 4.19776 15.3924 4.18123 15.2244 4.15474C14.814 4.07692 14.4407 3.86927 14.1612 3.56339C13.9548 3.34546 13.8067 3.08044 13.7301 2.79216C13.6613 2.52201 13.6159 2.24595 13.5593 1.96764C13.5332 1.95892 13.4945 1.94655 13.4562 1.93262C12.7051 1.66158 11.9542 1.39039 11.2036 1.11907C10.6015 0.901089 10.0006 0.680455 9.39806 0.465008C9.00135 0.323345 8.6034 0.185291 8.20421 0.0508472C8.12457 0.0159962 8.03817 -0.00132925 7.95104 7.95162e-05C7.8639 0.00148828 7.77813 0.0215974 7.6997 0.0590038C7.43409 0.174009 7.16195 0.27379 6.88464 0.357846C6.44355 0.516198 6.00288 0.675064 5.56265 0.834447C4.87864 1.08252 4.19482 1.33097 3.51118 1.5798C3.14779 1.71199 2.78526 1.84529 2.4253 1.9772C2.41027 2.14152 2.38638 2.30492 2.35374 2.46674C2.30276 2.69328 2.23209 2.91507 2.1425 3.12968C2.03278 3.36412 1.87008 3.57077 1.66683 3.73383C1.43058 3.93634 1.14562 4.07596 0.83907 4.13942C0.60324 4.18625 0.359981 4.19482 0.103439 4.22239C0.0967252 4.29467 0.0881547 4.37455 0.0822982 4.45429C0.0544442 4.81192 0.019591 5.16982 0.00273572 5.52828C-0.00683463 5.73332 0.0110204 5.93991 0.0207336 6.14537C0.0398743 6.53872 0.0587295 6.93206 0.0838695 7.32513C0.0977251 7.54536 0.115009 7.76671 0.148148 7.98483C0.201428 8.3336 0.254565 8.68321 0.333842 9.02691C0.454828 9.55147 0.577243 10.077 0.738653 10.5903C0.882923 11.0497 1.07519 11.495 1.25517 11.9432C1.4661 12.4497 1.72132 12.9372 2.01794 13.4002C2.28673 13.8367 2.58864 14.2526 2.92111 14.6443C3.20201 14.992 3.5115 15.3163 3.84643 15.6141C4.13354 15.856 4.4138 16.1067 4.70919 16.3382C5.20131 16.7205 5.73119 17.0532 6.29085 17.3313C6.69452 17.5338 7.1149 17.7044 7.52571 17.8938C7.7643 18.0094 8.03855 18.0315 8.29306 17.9557C8.60386 17.8528 8.90711 17.729 9.20067 17.5851C9.83565 17.2915 10.4428 16.9427 11.015 16.5431C11.4707 16.22 11.9028 15.8659 12.3082 15.4834C12.4462 15.3519 12.5786 15.2149 12.7053 15.0724C12.8818 14.877 13.0616 14.6831 13.2233 14.4765C13.587 14.0284 13.9096 13.5495 14.1874 13.0454C14.4051 12.6344 14.637 12.2281 14.8149 11.8003C15.0306 11.2818 15.2105 10.747 15.3797 10.2113C15.5731 9.591 15.7122 8.9555 15.7953 8.3118C15.8549 7.86473 15.9162 7.41738 15.958 6.96877C15.9875 6.6396 16.0015 6.30958 15.9999 5.97872C15.9992 5.60492 15.9794 5.23056 15.9599 4.85678H15.96ZM12.0447 6.48626L7.25989 11.9951C7.25989 11.9951 6.89321 12.4885 6.45769 11.9899L4.39292 9.24951C4.39292 9.24951 4.14797 8.87825 4.45434 8.65605C4.55821 8.58181 4.79318 8.46523 5.08129 8.71893L6.92164 10.1601L11.5043 6.01078C11.5043 6.01078 11.8116 5.73486 12.0802 5.95045C12.16 6.01486 12.2523 6.19853 12.0446 6.48626H12.0447Z" fill="white"/>
</svg>
