<svg width="32" height="32" viewBox="0 0 32 32" fill="none" xmlns="http://www.w3.org/2000/svg">
<g clip-path="url(#clip0_541_657)" filter="url(#filter0_d_541_657)">
<path d="M18.2437 18.3749H22.067L19.4432 13.8002L23.1916 11.6706L27.6896 19.4003C28.2143 20.3468 27.9894 21.5299 27.1648 22.1609C26.715 22.5553 26.1902 22.713 25.6655 22.713H18.1688V23.5806L15.9947 20.5834L18.2437 17.5862V18.3749ZM18.0938 11.1974L16.1447 7.88464L13.5208 12.5382L9.69748 10.4086L14.1955 2.67893C14.7952 1.73244 15.9198 1.33807 16.8943 1.73244C17.4191 1.89019 17.7939 2.20569 18.0938 2.67893L21.8421 9.14663L22.5918 8.67338L21.0925 12.1439L17.3441 11.7495L18.0938 11.3551V11.1974ZM11.8715 14.9045L9.92238 18.2172H15.245V22.5553H6.249C5.19946 22.6341 4.22489 21.8454 3.99999 20.7412C3.92502 20.189 3.99999 19.7158 4.22489 19.2425L7.97324 12.7748L7.22357 12.3016L10.9719 11.9072L12.4713 15.3777L11.8715 14.9045Z" fill="white"/>
</g>
<defs>
<filter id="filter0_d_541_657" x="0" y="0" width="32" height="32" filterUnits="userSpaceOnUse" color-interpolation-filters="sRGB">
<feFlood flood-opacity="0" result="BackgroundImageFix"/>
<feColorMatrix in="SourceAlpha" type="matrix" values="0 0 0 0 0 0 0 0 0 0 0 0 0 0 0 0 0 0 127 0" result="hardAlpha"/>
<feOffset dy="4"/>
<feGaussianBlur stdDeviation="2"/>
<feComposite in2="hardAlpha" operator="out"/>
<feColorMatrix type="matrix" values="0 0 0 0 0 0 0 0 0 0 0 0 0 0 0 0 0 0 0.25 0"/>
<feBlend mode="normal" in2="BackgroundImageFix" result="effect1_dropShadow_541_657"/>
<feBlend mode="normal" in="SourceGraphic" in2="effect1_dropShadow_541_657" result="shape"/>
</filter>
<clipPath id="clip0_541_657">
<rect width="24" height="24" fill="white" transform="translate(4)"/>
</clipPath>
</defs>
</svg>
