<?xml version="1.0" standalone="no"?><!DOCTYPE svg PUBLIC "-//W3C//DTD SVG 1.1//EN" "http://www.w3.org/Graphics/SVG/1.1/DTD/svg11.dtd"><svg t="1721698961567" class="icon" viewBox="0 0 1024 1024" version="1.1" xmlns="http://www.w3.org/2000/svg" p-id="5826" width="32" height="32" xmlns:xlink="http://www.w3.org/1999/xlink"><path d="M981.333333 341.333333a42.666667 42.666667 0 0 0 42.666667-42.666666V42.666667a42.666667 42.666667 0 0 0-42.666667-42.666667h-256a42.666667 42.666667 0 0 0-42.666666 42.666667v85.333333H341.333333V42.666667a42.666667 42.666667 0 0 0-42.666666-42.666667H42.666667a42.666667 42.666667 0 0 0-42.666667 42.666667v256a42.666667 42.666667 0 0 0 42.666667 42.666666h85.333333v341.333334H42.666667a42.666667 42.666667 0 0 0-42.666667 42.666666v256a42.666667 42.666667 0 0 0 42.666667 42.666667h256a42.666667 42.666667 0 0 0 42.666666-42.666667v-85.333333h341.333334v85.333333a42.666667 42.666667 0 0 0 42.666666 42.666667h256a42.666667 42.666667 0 0 0 42.666667-42.666667v-256a42.666667 42.666667 0 0 0-42.666667-42.666666h-85.333333V341.333333z m-213.333333-256h170.666667v170.666667h-170.666667zM85.333333 256V85.333333h170.666667v170.666667z m170.666667 682.666667H85.333333v-170.666667h170.666667z m682.666667-170.666667v170.666667h-170.666667v-170.666667z m-128-85.333333h-85.333334a42.666667 42.666667 0 0 0-42.666666 42.666666v85.333334H341.333333v-85.333334a42.666667 42.666667 0 0 0-42.666666-42.666666H213.333333V341.333333h85.333334a42.666667 42.666667 0 0 0 42.666666-42.666666V213.333333h341.333334v85.333334a42.666667 42.666667 0 0 0 42.666666 42.666666h85.333334z" p-id="5827" fill="#707070"></path><path d="M456.96 396.373333A42.666667 42.666667 0 0 0 396.8 456.533333l149.333333 149.333334a42.666667 42.666667 0 0 0 60.16-60.16z" p-id="5828" fill="#707070"></path></svg>