<svg width="38" height="33" viewBox="0 0 38 33" fill="none" xmlns="http://www.w3.org/2000/svg">
<path fill-rule="evenodd" clip-rule="evenodd" d="M36.5114 6.88701C36.3904 7.00789 36.2837 7.11434 36.2051 7.22293H36.2063C36.3309 7.41149 36.4594 7.5351 36.5884 7.65911C36.696 7.76261 36.8039 7.86639 36.9101 8.00846C37.5329 8.84563 37.8002 10.2017 37.8002 11.3728C35.2556 11.1572 34.4928 10.4689 33.791 9.83575C33.5819 9.6471 33.3783 9.46334 33.1345 9.29845C32.9457 9.42752 32.8324 9.54707 32.7083 9.67789C32.6257 9.76498 32.5384 9.85706 32.421 9.96026C30.7569 11.3968 27.7988 12.5294 25.5143 12.5294L25.1733 12.5006L25.287 12.8165C25.4239 13.0307 25.3942 13.0733 25.2759 13.243C25.2542 13.2741 25.2295 13.3095 25.2023 13.351L23.9216 14.8356C23.4778 14.7323 23.2708 14.5035 23.0182 14.2242C22.9534 14.1526 22.8857 14.0777 22.8102 14.0008C22.7084 13.8965 22.6047 13.7956 22.5015 13.6952C22.2933 13.4926 22.0876 13.2924 21.9056 13.0723C21.1897 12.2007 21.0904 12.1868 20.7206 12.1349C20.4846 12.1017 20.1382 12.0531 19.4506 11.7559C18.5484 11.3644 17.7152 10.998 16.9642 10.4707C16.8562 10.3947 16.7558 10.326 16.6648 10.2637C16.1766 9.92974 15.9595 9.78126 16.3111 9.678C16.5022 9.62035 17.7491 9.52907 18.0067 9.52907C18.0067 9.36905 17.1487 9.39446 16.5309 9.41275C16.2676 9.42055 16.0479 9.42705 15.9568 9.41736C15.5113 9.3696 15.2864 9.11496 15.0588 8.85735C14.983 8.77159 14.907 8.6855 14.8224 8.60661C14.9216 8.41676 15.0163 8.2299 15.1094 8.04619C15.5562 7.16415 15.9663 6.35477 16.6679 5.63506C16.6843 5.61836 16.7004 5.6019 16.7163 5.58569C17.1485 5.14504 17.4066 4.88193 17.9256 4.4892L20.8583 2.61667C21.6686 2.09179 24.9677 0.488302 25.7441 0.422241C25.7441 0.777184 25.7734 0.988443 25.8023 1.19643C25.8302 1.39806 25.8578 1.59662 25.8578 1.92003C25.7012 1.95726 25.5515 1.9963 25.4019 2.03534C25.2522 2.07437 25.1026 2.11341 24.9459 2.15064C24.9725 2.16746 25.0088 2.17827 25.0282 2.18307C25.0548 2.19472 25.0819 2.20553 25.1092 2.2155L25.1963 2.24433C25.5563 2.34632 25.9029 2.38958 26.2817 2.43685C27.067 2.53486 27.9907 2.65013 29.4593 3.34214C30.5295 3.84781 31.1415 4.30784 32.0158 5.01529C32.2731 5.21651 32.4971 5.45643 32.6798 5.72635C32.9058 5.57276 33.1273 5.36404 33.3722 5.13314C34.2058 4.3474 35.3118 3.30491 37.799 3.30491C37.799 5.60177 37.0252 6.37418 36.5114 6.88701ZM19.8267 6.66201C19.8267 5.75517 18.7383 5.55099 18.2763 6.13232V6.13352C17.2544 7.41511 19.8267 8.62223 19.8267 6.66201ZM31.4192 21.2804C31.245 21.4555 31.0915 21.6098 30.9782 21.7672H30.98C31.1593 22.0405 31.3443 22.2196 31.53 22.3994C31.6849 22.5493 31.8402 22.6998 31.9931 22.9056C32.8896 24.1189 33.2743 26.0842 33.2743 27.7815C29.6117 27.469 28.5136 26.4715 27.5035 25.5539C27.2025 25.2805 26.9094 25.0142 26.5585 24.7752C26.2868 24.9623 26.1236 25.1355 25.9451 25.3251C25.8262 25.4513 25.7005 25.5848 25.5315 25.7344C23.1362 27.8163 18.8783 29.4578 15.5901 29.4578L15.0992 29.416L15.2628 29.8738C15.4599 30.1842 15.4171 30.246 15.2469 30.4919C15.2156 30.537 15.1801 30.5883 15.141 30.6485L13.2975 32.8C12.6587 32.6504 12.3608 32.3187 11.9971 31.9139C11.9039 31.8102 11.8064 31.7017 11.6978 31.5902C11.5513 31.4391 11.4019 31.2928 11.2534 31.1473C10.9537 30.8537 10.6576 30.5635 10.3957 30.2446C9.36517 28.9814 9.22231 28.9612 8.69006 28.886C8.35023 28.838 7.85168 28.7675 6.86201 28.3368C5.56342 27.7693 4.36405 27.2384 3.28305 26.4742C3.12766 26.3639 2.98306 26.2643 2.85204 26.1741C2.14933 25.6901 1.83687 25.4749 2.34305 25.3253C2.61808 25.2417 4.41279 25.1094 4.78357 25.1094C4.78357 24.8775 3.54865 24.9143 2.65935 24.9409C2.28033 24.9522 1.9641 24.9616 1.83301 24.9475C1.19177 24.8783 0.867988 24.5093 0.540426 24.1359C0.431385 24.0116 0.321925 23.8869 0.200195 23.7725C0.343021 23.4974 0.479279 23.2266 0.613238 22.9603C1.25643 21.682 1.84664 20.509 2.85657 19.4659C2.88016 19.4417 2.90339 19.4179 2.92628 19.3944C3.54835 18.7558 3.9198 18.3744 4.66694 17.8053L8.88823 15.0915C10.0545 14.3308 14.8033 12.0069 15.9208 11.9111C15.9208 12.4255 15.963 12.7317 16.0045 13.0331C16.0448 13.3254 16.0845 13.6131 16.0845 14.0818C15.859 14.1358 15.6436 14.1924 15.4282 14.2489C15.2128 14.3055 14.9974 14.3621 14.7719 14.4161C14.8102 14.4404 14.8625 14.4561 14.8903 14.4631C14.9287 14.4799 14.9676 14.4956 15.0069 14.5101L15.1323 14.5518C15.6505 14.6997 16.1494 14.7623 16.6946 14.8309C17.825 14.9729 19.1545 15.14 21.2684 16.1429C22.8089 16.8757 23.6897 17.5424 24.9483 18.5677C25.3186 18.8594 25.641 19.2071 25.904 19.5982C26.2294 19.3757 26.5481 19.0732 26.9007 18.7385C28.1005 17.5998 29.6925 16.0889 33.2725 16.0889C33.2725 19.4177 32.1587 20.5371 31.4192 21.2804ZM7.40338 20.9543C7.40338 19.64 5.83671 19.3441 5.17175 20.1866V20.1884C3.70082 22.0457 7.40338 23.7952 7.40338 20.9543Z" fill="url(#paint0_linear_623_537)"/>
<defs>
<linearGradient id="paint0_linear_623_537" x1="19.0002" y1="0.422241" x2="19.0002" y2="32.8" gradientUnits="userSpaceOnUse">
<stop stop-color="#133750"/>
<stop offset="1" stop-color="#061D2D"/>
</linearGradient>
</defs>
</svg>
