<svg width="24" height="24" viewBox="0 0 24 24" fill="none" xmlns="http://www.w3.org/2000/svg">
<g clip-path="url(#clip0_745_373)">
<path fill-rule="evenodd" clip-rule="evenodd" d="M9.32895 3.35555C7.18107 3.35555 6.32431 4.38176 5.03319 5.93539L5.03056 5.93856C4.04298 7.12651 2.8142 8.60462 0.670615 9.82544L0 8.65126C1.93548 7.55107 3.04044 6.23371 3.99505 5.07147C5.30287 3.49397 6.54148 2 9.32418 2C11.954 2 13.0422 3.28667 14.3097 4.78531L14.3478 4.83043C14.9842 5.63259 15.6928 6.37473 16.4647 7.04751L15.8871 8.32192C14.9309 7.54784 14.0661 6.66707 13.3097 5.69674C12.1307 4.2863 11.3527 3.35555 9.32895 3.35555ZM12.5627 15.0257C11.8754 15.293 11.3766 15.744 11.7751 16.0805C12.1355 16.3932 13.5412 16.9182 16.4551 17.3168C21.5432 18.0112 23.5336 18.8394 23.5336 20.0446C23.5336 21.5529 18.8799 22.7748 13.1402 22.7748C7.40063 22.7748 2.7469 21.5529 2.7469 20.0446C2.7469 19.2928 3.73731 18.6174 5.62983 18.1234C7.24074 17.6986 7.3362 17.09 7.3362 16.9826C7.3362 16.3932 6.14293 15.8419 4.30053 15.534C2.45813 15.2643 1.21474 14.7608 1.21474 14.1809C1.21474 13.3169 3.97119 12.6177 7.372 12.6177C10.7728 12.6177 13.5292 13.3169 13.5292 14.1809C13.5292 14.4911 13.1689 14.787 12.5484 15.0257H12.5627ZM19.4765 16.6652H18.1234V13.978H14.7417L18.7988 3.93548L22.8606 13.978H19.4765V16.6652Z" fill="white"/>
</g>
<defs>
<clipPath id="clip0_745_373">
<rect width="24" height="24" fill="white"/>
</clipPath>
</defs>
</svg>
