<svg width="40" height="35" viewBox="0 0 40 35" fill="none" xmlns="http://www.w3.org/2000/svg">
<path fill-rule="evenodd" clip-rule="evenodd" d="M16.1216 2.41845C12.6162 2.41845 11.2179 4.09794 9.11078 6.64062L9.10648 6.64581C7.49474 8.59001 5.48933 11.0091 1.99095 13.0071L0.896484 11.0854C4.05523 9.28484 5.85856 7.12884 7.41651 5.22672C9.55091 2.64498 11.5723 0.199951 16.1138 0.199951C20.4058 0.199951 22.1817 2.30572 24.2502 4.75838L24.3125 4.83223C25.3511 6.14506 26.5075 7.35964 27.7673 8.46072L26.8247 10.5464C25.264 9.27955 23.8527 7.83808 22.6182 6.25004C20.6942 3.94171 19.4244 2.41845 16.1216 2.41845ZM21.3991 21.5178C20.2774 21.9553 19.4634 22.6935 20.1138 23.2442C20.7019 23.7558 22.996 24.6151 27.7517 25.2674C36.0556 26.404 39.3039 27.7593 39.3039 29.7317C39.3039 32.2002 31.7089 34.2 22.3417 34.2C12.9745 34.2 5.37949 32.2002 5.37949 29.7317C5.37949 28.5014 6.99587 27.396 10.0845 26.5875C12.7135 25.8923 12.8693 24.8963 12.8693 24.7206C12.8693 23.7558 10.9219 22.8536 7.91506 22.3498C4.90821 21.9084 2.87898 21.0843 2.87898 20.1352C2.87898 18.7213 7.37756 17.5769 12.9278 17.5769C18.478 17.5769 22.9766 18.7213 22.9766 20.1352C22.9766 20.6429 22.3884 21.1272 21.3758 21.5178H21.3991ZM31.5358 24.3031H29.4369V20.1348H24.1913L30.4845 4.5574L36.785 20.1348H31.5358V24.3031Z" fill="url(#paint0_linear_623_543)"/>
<defs>
<linearGradient id="paint0_linear_623_543" x1="20.1002" y1="0.199951" x2="20.1002" y2="34.2" gradientUnits="userSpaceOnUse">
<stop stop-color="#133750"/>
<stop offset="1" stop-color="#061D2D"/>
</linearGradient>
</defs>
</svg>
