<svg width="18" height="18" viewBox="0 0 18 18" fill="none" xmlns="http://www.w3.org/2000/svg">
<path d="M17.25 0H0.75C0.3375 0 0 0.3375 0 0.75V3.75H13.5C13.9125 3.75 14.25 4.0875 14.25 4.5V7.05H12.75V5.25H0V17.325C0.0375 17.6625 0.3 17.9625 0.675 18H12.75V13.6125H14.25V18H17.25C17.6625 18 18 17.6625 18 17.25V0.75C18 0.3375 17.6625 0 17.25 0ZM11.1 12.9C10.95 13.05 10.7625 13.0875 10.575 13.0875H10.5375C10.35 13.0875 10.1625 12.975 10.0125 12.825L7.6125 10.1625L5.1 12.7125L4.0125 11.6625L7.05 8.5125C7.2 8.3625 7.3875 8.2875 7.6125 8.2875C7.8375 8.2875 8.025 8.3625 8.1375 8.55L10.575 11.2125L14.85 7.2L15.8625 8.2875L11.1 12.9Z" fill="white"/>
</svg>
