<svg width="24" height="24" viewBox="0 0 24 24" fill="none" xmlns="http://www.w3.org/2000/svg">
<path fill-rule="evenodd" clip-rule="evenodd" d="M2 3.08613C2 2.79807 2.1139 2.52181 2.31665 2.31812C2.51939 2.11443 2.79437 2 3.0811 2H19.2976C19.5843 2 19.8593 2.11443 20.062 2.31812C20.2647 2.52181 20.3787 2.79807 20.3787 3.08613V6.34451C20.3787 6.63257 20.2647 6.90883 20.062 7.11251C19.8593 7.3162 19.5843 7.43063 19.2976 7.43063H3.0811C2.79437 7.43063 2.51939 7.3162 2.31665 7.11251C2.1139 6.90883 2 6.63257 2 6.34451V3.08613ZM4.16219 4.17225V5.25838H18.2165V4.17225H4.16219ZM2 9.60289C2 9.31483 2.1139 9.03857 2.31665 8.83488C2.51939 8.63119 2.79437 8.51676 3.0811 8.51676H19.2976C19.5843 8.51676 19.8593 8.63119 20.062 8.83488C20.2647 9.03857 20.3787 9.31483 20.3787 9.60289V12.8613C20.3787 13.1493 20.2647 13.4256 20.062 13.6293C19.8593 13.833 19.5843 13.9474 19.2976 13.9474H3.0811C2.79437 13.9474 2.51939 13.833 2.31665 13.6293C2.1139 13.4256 2 13.1493 2 12.8613V9.60289ZM4.16219 10.689V11.7751H18.2165V10.689H4.16219ZM2 16.1196C2 15.8316 2.1139 15.5553 2.31665 15.3516C2.51939 15.1479 2.79437 15.0335 3.0811 15.0335H11.7299V17.2058H4.16219V18.2919H11.7299V20.4642H3.0811C2.79437 20.4642 2.51939 20.3497 2.31665 20.146C2.1139 19.9423 2 19.6661 2 19.378V16.1196ZM18.7569 14.5839L21.6835 17.524C21.8861 17.7277 22 18.0039 22 18.2919C22 18.5799 21.8861 18.8561 21.6835 19.0598L18.7569 22L17.2283 20.4642L18.3094 19.378H13.8921V17.2057H18.3093L17.2283 16.1197L18.7569 14.5839Z" fill="white"/>
</svg>
