<svg width="24" height="24" viewBox="0 0 24 24" fill="none" xmlns="http://www.w3.org/2000/svg">
<path d="M12.0527 2.85938C7.53516 2.85938 3.86133 4.03711 3.86133 5.44336V18.9258C4.16016 20.2617 7.69336 21.3164 12 21.3164C16.3242 21.3164 19.8398 20.2617 20.1387 18.9258V5.46094L20.209 5.44336C20.2266 4.03711 16.5703 2.85938 12.0527 2.85938ZM10.3652 17.6074H6.83203C6.5332 17.6074 6.28711 17.3789 6.28711 17.0801C6.28711 16.7988 6.5332 16.5527 6.83203 16.5527H10.3652C10.6641 16.5527 10.9102 16.7812 10.9102 17.0801C10.9277 17.3789 10.6816 17.6074 10.3652 17.6074ZM10.3652 15.3047H6.83203C6.5332 15.3047 6.28711 15.0762 6.28711 14.7773C6.28711 14.4961 6.5332 14.25 6.83203 14.25H10.3652C10.6641 14.25 10.9102 14.4785 10.9102 14.7773C10.9277 15.0762 10.6816 15.3047 10.3652 15.3047ZM10.3652 12.9492H6.83203C6.5332 12.9492 6.28711 12.7207 6.28711 12.4219C6.28711 12.1406 6.5332 11.8945 6.83203 11.8945H10.3652C10.6641 11.8945 10.9102 12.123 10.9102 12.4219C10.9277 12.7207 10.6816 12.9668 10.3652 12.9492ZM10.3652 10.752H6.83203C6.5332 10.752 6.28711 10.5234 6.28711 10.2246C6.28711 9.94336 6.5332 9.69727 6.83203 9.69727H10.3652C10.6641 9.69727 10.9102 9.92578 10.9102 10.2246C10.9277 10.5234 10.6816 10.752 10.3652 10.752ZM17.3438 16.7285H17.3086C16.6055 17.3789 15.5684 17.5547 14.6719 17.2207C13.7754 16.8691 13.1777 16.0605 13.1602 15.1289C13.1953 14.3027 13.5996 13.5469 14.2676 13.0195C14.9355 12.4922 15.3223 11.7188 15.3574 10.8926C15.3574 10.8223 15.4102 10.7344 15.4805 10.6992C15.5508 10.6641 15.6387 10.6641 15.709 10.6992C15.7793 10.7344 15.832 10.8047 15.832 10.8926C15.8672 11.7188 16.2539 12.4922 16.9219 13.0195C17.5898 13.5469 17.9941 14.3203 18.0293 15.1465C18.0293 15.709 17.7832 16.2891 17.3438 16.7285ZM12.1582 6.33984C8.57227 6.33984 5.6543 5.75977 5.6543 5.05664C5.6543 4.35352 8.55469 3.77344 12.1582 3.77344C15.7441 3.77344 18.6621 4.35352 18.6621 5.05664C18.6621 5.75977 15.7441 6.33984 12.1582 6.33984Z" fill="white"/>
<rect x="13" width="10" height="10" rx="2" fill="#162936"/>
<path d="M20.8096 1H15.1904C14.5452 1 14 1.54519 14 2.19038V7.80962C14 8.45481 14.5452 9 15.1904 9H20.8096C21.4548 9 22 8.45481 22 7.80962V2.19038C22 1.54519 21.4548 1 20.8096 1ZM20.9192 4.26827L19.4183 5.76923L18.8558 6.33173C18.8212 6.36635 18.7644 6.36635 18.7298 6.33173L18.1673 5.76923L17.2346 4.83654L15.7125 6.35865C15.6779 6.39327 15.6212 6.39327 15.5865 6.35865L15.0808 5.85288C15.0462 5.81827 15.0462 5.76154 15.0808 5.72692L17.1654 3.64231C17.2 3.60769 17.2567 3.60769 17.2913 3.64231L18.7933 5.14327L20.2942 3.64327C20.3288 3.60865 20.3856 3.60865 20.4202 3.64327L20.9192 4.14231C20.9548 4.17596 20.9548 4.23269 20.9192 4.26827Z" fill="white"/>
</svg>
