<svg width="24" height="24" viewBox="0 0 24 24" fill="none" xmlns="http://www.w3.org/2000/svg">
<path fill-rule="evenodd" clip-rule="evenodd" d="M16.9991 13.8461C13.6558 13.8354 10.3231 14.1131 7.14 14.8395C5.54843 15.2027 3.9996 15.6833 2.53621 16.3135C1.93804 16.5806 1.35055 16.869 0.795108 17.1788C0.7417 16.7088 0.698974 16.2495 0.656247 15.7901C0.645566 15.4163 0.645566 15.0317 0.666929 14.6579C0.682951 14.5885 0.698974 14.5217 0.714996 14.4549C0.731018 14.3882 0.747041 14.3214 0.763064 14.252C0.768404 14.2413 0.771075 14.228 0.773745 14.2146C0.776416 14.2012 0.779086 14.1879 0.784427 14.1772C0.913282 14.144 1.04052 14.1091 1.16677 14.0745C1.36496 14.0202 1.56071 13.9665 1.75646 13.9209C3.4762 13.5043 5.19594 13.2693 6.905 13.1731C10.3338 12.9702 13.7092 13.2693 16.9991 13.8461ZM19.1942 14.5938C19.2289 14.6072 19.2636 14.6205 19.2957 14.6365C18.9112 16.4524 18.6441 18.2683 18.548 20.0735C18.4946 20.928 18.4839 21.7825 18.5053 22.6157H15.4824C15.7814 21.5796 16.1446 20.5755 16.5398 19.6035C17.2769 17.8303 18.1421 16.1533 19.0927 14.5511C19.1248 14.5671 19.1595 14.5804 19.1942 14.5938ZM20.1182 14.9623C20.2143 14.997 20.3104 15.0317 20.4066 15.0638L23.3227 18.8771V19.4219C23.3013 19.518 23.2799 19.6035 23.2479 19.6996C23.1838 19.8171 23.1197 19.9239 23.0449 20.0414C22.81 20.2871 22.5643 20.5328 22.3079 20.7571C22.105 20.896 21.8913 21.0348 21.6777 21.163L19.8298 14.8608C19.9259 14.8929 20.022 14.9276 20.1182 14.9623ZM14.3286 14.2413C15.4929 14.0063 16.6679 13.8888 17.8322 13.8888C18.0885 14.049 18.3449 14.1879 18.6119 14.3267L18.5585 14.3374C17.6292 14.8181 16.764 15.4056 15.9843 16.0785C14.9375 16.9864 14.0402 18.0546 13.3139 19.1975C12.6195 20.2764 12.0748 21.4193 11.6475 22.605H8.26144C8.46439 22.2418 8.67802 21.8786 8.90234 21.5261C9.7355 20.223 10.6969 19.0053 11.7864 17.9371C12.8759 16.8689 14.1043 15.9503 15.4288 15.256C15.9843 14.9569 16.5504 14.7113 17.1379 14.4976L16.5824 14.5617C16.5824 14.5617 16.6892 14.519 16.8495 14.4442C16.0804 14.6365 15.3327 14.8928 14.6063 15.1812C13.0361 15.8115 11.5621 16.6339 10.1841 17.5846C8.8062 18.5353 7.51372 19.6034 6.3067 20.7464C5.75125 21.2805 5.20649 21.8252 4.69377 22.3807C4.51219 22.3166 4.31992 22.2632 4.12765 22.2204C3.60425 22.1136 3.09153 21.9748 2.58949 21.8039C2.39722 21.7077 2.20495 21.6009 2.02337 21.4834L1.79905 21.2591C1.78317 21.2326 1.76701 21.2059 1.75069 21.1789C1.66822 21.0424 1.58199 20.8997 1.51065 20.7571C1.49997 20.693 1.4786 20.6289 1.45724 20.5648C1.7136 20.3618 1.98064 20.1589 2.24768 19.9559C2.97403 19.4219 3.72174 18.9091 4.48014 18.4178C6.00761 17.4458 7.5885 16.5805 9.23347 15.8649C10.8784 15.1492 12.5875 14.5831 14.3286 14.2413Z" fill="white"/>
<path d="M11 11.5416C11 11.6638 11.0456 11.7808 11.1271 11.8658C11.2087 11.9522 11.3192 12 11.4353 12H14.1964C14.4369 12 14.6331 11.7941 14.6331 11.5403V9.26295H11V11.5416ZM14.1978 1H11.4367C11.1962 1 11 1.20594 11 1.45839V8.49632H14.6331V1.45972C14.6345 1.20594 14.4382 1 14.1978 1ZM12.8103 4.50103C12.404 4.50103 12.0738 4.18481 12.0738 3.79285C12.0738 3.40089 12.4027 3.08467 12.8103 3.08467C13.218 3.08467 13.5469 3.40089 13.5469 3.79285C13.5469 4.18481 13.2166 4.50103 12.8103 4.50103ZM15.3655 11.5416C15.3655 11.6638 15.4111 11.7808 15.4927 11.8658C15.5742 11.9522 15.6847 12 15.8008 12H18.5619C18.8024 12 18.9986 11.7941 18.9986 11.5403V9.26295H15.3655V11.5416ZM18.5633 1H15.8022C15.5618 1 15.3655 1.20594 15.3655 1.45839V8.49632H19V1.45972C19 1.20594 18.8038 1 18.5633 1ZM17.1759 4.50103C16.7696 4.50103 16.4393 4.18481 16.4393 3.79285C16.4393 3.40089 16.7696 3.086 17.1759 3.086C17.5821 3.086 17.9124 3.40222 17.9124 3.79418C17.9124 4.18613 17.5821 4.50103 17.1759 4.50103Z" fill="white"/>
<path d="M20 11.5416C20 11.6638 20.0377 11.7808 20.105 11.8658C20.1723 11.9522 20.2636 12 20.3595 12H22.6394C22.838 12 23 11.7941 23 11.5403V9.26295H20V11.5416ZM22.6405 1H20.3606C20.162 1 20 1.20594 20 1.45839V8.49632H23V1.45972C23.0011 1.20594 22.8402 1 22.6405 1ZM21.4949 4.50103C21.1594 4.50103 20.8866 4.18481 20.8866 3.79285C20.8866 3.40089 21.1582 3.08467 21.4949 3.08467C21.8315 3.08467 22.1031 3.40089 22.1031 3.79285C22.1031 4.18481 21.8304 4.50103 21.4949 4.50103Z" fill="white"/>
</svg>
