<svg width="24" height="24" viewBox="0 0 24 24" fill="none" xmlns="http://www.w3.org/2000/svg">
<path d="M1.03366 17.2193L1.51565 13.1697L1.76087 10.8591L2.5 2.99994C3.5 2.99994 3.54423 2.98292 4.69931 3.00013H10.9483L10.1111 4.24068L11.5655 6.58403L9.5 6.49994L12.4509 11.8209L10.7225 13.9388L11.8835 18.8813L11.541 20.9991H3.33621C2.96235 20.9758 2.60139 20.8576 2.28944 20.6564C1.9775 20.4552 1.72554 20.1782 1.55877 19.8529C1.10187 19.0506 0.918081 18.1289 1.03366 17.2193ZM11.9503 15.0809L14.1438 12.3588L12.1761 8.79372L14.3577 8.6158L11.7913 4.51044L12.8179 3.00177H19.2934C20.4477 2.98374 20 3 21.5 2.99994L22.3054 11.6708L22.6225 14.3602L22.965 17.1889C23.0834 18.106 22.8996 19.0359 22.4399 19.8455C22.2751 20.1731 22.0237 20.4525 21.7113 20.6553C21.399 20.8581 21.0368 20.977 20.6616 20.9999H12.549L12.8669 19.0051L11.9503 15.0809Z" fill="white"/>
<path d="M0.5 21L1 17.5L4.5 21H0.5Z" fill="white"/>
<path d="M23.5 21L23 17.5L19.5 21H23.5Z" fill="white"/>
<path d="M17.154 11.4088L12.5 9.5L13.1264 11.0023L15.1398 11.8152L13.9314 13.4428L17.959 14.6622L16.7506 16.6962L23.3902 19L24 18.3229L18.7649 15.8824L19.9733 13.8493L15.5423 13.0355L17.154 11.4088ZM2.58156 10.4908L0 13.3351L0.570788 14.0385L2.12788 12.5143L3.1055 14.2916L5.85188 11.0759L7.19818 13.0197L10.5 7L9.5 6.5L7.28406 10.8306L5.93863 8.88773L3.39524 12.6404L2.58156 10.4908Z" fill="#162936"/>
</svg>
