<svg width="24" height="24" viewBox="0 0 24 24" fill="none" xmlns="http://www.w3.org/2000/svg">
<path d="M2 8H16V22H2V8Z" fill="white"/>
<rect x="2" y="5" width="17" height="2" fill="white"/>
<rect x="17" y="8" width="2" height="14" fill="white"/>
<path d="M12.9834 14.111C12.9607 14.0354 12.9188 13.9681 12.8625 13.9169C12.8061 13.8658 12.7377 13.8328 12.6648 13.8217L10.3893 13.3969L9.35966 11.2297C9.32507 11.1603 9.27375 11.1022 9.21116 11.0618C9.14856 11.0214 9.07701 11 9.00411 11C8.9312 11 8.85966 11.0214 8.79706 11.0618C8.73446 11.1022 8.68315 11.1603 8.64856 11.2297L7.63027 13.3969L5.35475 13.834C5.27889 13.8418 5.20676 13.8733 5.14716 13.9246C5.08756 13.976 5.04307 14.0451 5.01911 14.1234C4.99633 14.1983 4.99386 14.2787 5.01201 14.3551C5.03016 14.4314 5.06816 14.5006 5.12151 14.5543L6.78264 16.1674L6.35598 18.5069C6.3438 18.5849 6.35229 18.6651 6.38048 18.7381C6.40868 18.8111 6.45541 18.874 6.51526 18.9194C6.57736 18.9625 6.64851 18.9879 6.7221 18.9933C6.79569 18.9986 6.86934 18.9838 6.93623 18.9502L9.00126 17.8789L11.0606 18.9502C11.1266 18.9875 11.2008 19.0044 11.2751 18.999C11.3494 18.9936 11.4208 18.966 11.4816 18.9194C11.5414 18.874 11.5882 18.8111 11.6164 18.7381C11.6445 18.6651 11.653 18.5849 11.6409 18.5069L11.2256 16.1674L12.8696 14.542C12.925 14.4897 12.9651 14.4212 12.9853 14.3447C13.0055 14.2683 13.0049 14.1871 12.9834 14.111Z" fill="white"/>
</svg>
