<svg width="16" height="22" viewBox="0 0 16 22" fill="none" xmlns="http://www.w3.org/2000/svg">
<path fill-rule="evenodd" clip-rule="evenodd" d="M0.446167 3.3048L3.75097 8.77921H10.3606L13.6654 3.3048H0.446167ZM0.446167 2.1696H13.6654V0H0.446167V2.1696ZM3.75097 9.91441V21.9984H10.3606V19.498H15.5538V17.6096H10.3606V16.1932H15.5538V14.3048H10.3606V12.8884H15.5538V11H10.3606V9.91441H3.75097ZM8.00001 12.6643C7.95455 12.5861 7.89813 12.5133 7.83075 12.4459C7.62365 12.2388 7.36533 12.1182 7.05578 12.084C6.74623 12.1182 6.4879 12.2388 6.2808 12.4459C6.0737 12.653 5.97015 12.9113 5.97015 13.2209C5.97015 13.5304 6.0737 13.7887 6.2808 13.9958C6.4879 14.2029 6.74623 14.3065 7.05578 14.3065C7.36533 14.3065 7.62365 14.2029 7.83075 13.9958C8.03785 13.7887 8.1414 13.5304 8.1414 13.2209C8.1414 13.1026 8.12628 12.9918 8.09603 12.8884H8.00001V12.6643Z" fill="white"/>
</svg>
