<svg width="24" height="24" viewBox="0 0 24 24" fill="none" xmlns="http://www.w3.org/2000/svg">
<path d="M4.63604 21V19.7585H16.3631V21H4.63604ZM13.6104 16.8046C12.7107 15.8787 12.151 14.6605 12.0264 13.3576C11.9019 12.0547 12.2203 10.7477 12.9274 9.65926C13.6345 8.57081 14.6865 7.76829 15.9042 7.38843C17.1219 7.00856 18.4299 7.07486 19.6054 7.57602C20.781 8.07719 21.7512 8.98221 22.3509 10.1369C22.9506 11.2916 23.1426 12.6245 22.8942 13.9084C22.6458 15.1924 21.9724 16.3481 20.9887 17.1785C20.005 18.0089 18.7718 18.4627 17.4994 18.4626C16.7768 18.4645 16.0609 18.3189 15.3934 18.0342C14.7258 17.7495 14.1198 17.3313 13.6104 16.804V16.8046ZM15.6354 13.8235H17.8167V16.5516L19.9997 12.2379H17.3899V9.20196L15.6354 13.8235ZM12.809 17.4327H1V2H19.4997V6.43763C18.5697 6.12951 17.5842 6.04073 16.6163 6.17787C15.6484 6.31502 14.7229 6.67457 13.9085 7.22987L12.3734 5.64993L7.80842 10.2381L6.53408 8.92638L3.66694 11.9855L4.40999 12.7517L6.63968 10.4576L7.17098 11.0043L7.80787 11.8774L12.3729 7.18063L13.0774 7.90553C12.4452 8.50879 11.9361 9.23553 11.5797 10.0434C11.2234 10.8512 11.0269 11.7239 11.0019 12.6107C10.9768 13.4975 11.1236 14.3805 11.4336 15.2083C11.7437 16.0361 12.2109 16.792 12.8079 17.4321L12.809 17.4327Z" fill="white"/>
</svg>
