<svg width="92" height="71" viewBox="0 0 92 71" fill="none" xmlns="http://www.w3.org/2000/svg">
<g opacity="0.3">
<path d="M21.8867 46.0796H69.3941V0H21.8867V46.0796Z" fill="url(#paint0_linear_52_13403)" fill-opacity="0.6"/>
<path d="M22.3867 45.5796H68.8941V0.5H22.3867V45.5796Z" stroke="url(#paint1_linear_52_13403)" stroke-opacity="0.8"/>
<path d="M68.5752 46.0797L90.6907 57.5996V11.52L68.5752 0.00012207V46.0797Z" fill="url(#paint2_linear_52_13403)" fill-opacity="0.6"/>
<path d="M69.0752 0.824341V45.7764L90.1907 56.7754V11.8233L69.0752 0.824341Z" stroke="url(#paint3_linear_52_13403)" stroke-opacity="0.3"/>
<path d="M22.7061 46.0797L1.0001 57.5996V11.52L22.7061 0.00012207V46.0797Z" fill="url(#paint4_linear_52_13403)" fill-opacity="0.6"/>
<path d="M22.2061 0.831539V45.779L1.5001 56.7682V11.8207L22.2061 0.831539Z" stroke="url(#paint5_linear_52_13403)" stroke-opacity="0.8"/>
</g>
<path d="M38.8516 7.40575L45.4344 3.2915L52.4286 7.40575" stroke="#2CADFF" stroke-width="0.5"/>
<path d="M22.3941 69.9422L1 57.5995L22.3941 46.0796H68.4737L90.2792 57.5995L68.4737 69.9422H22.3941Z" fill="url(#paint6_radial_52_13403)" stroke="url(#paint7_linear_52_13403)" stroke-width="0.5"/>
<path d="M27.4372 65.005L10.874 56.8588L27.4372 46.9023H63.1117L79.9934 56.8588L63.1117 65.005H27.4372Z" stroke="url(#paint8_linear_52_13403)" stroke-width="0.5"/>
<path d="M29.5796 60.8911L14.9883 54.5963L28.1539 46.4912L63.125 46.9026L75.8792 54.5963L61.0072 60.8911H29.5796Z" stroke="url(#paint9_linear_52_13403)" stroke-width="0.5"/>
<path d="M31.7221 57.5994L19.1025 52.7857L28.5653 46.9023H62.3022L71.7649 52.7857L58.9027 57.5994H31.7221Z" fill="url(#paint10_linear_52_13403)" stroke="url(#paint11_linear_52_13403)" stroke-width="0.5"/>
<path d="M38.8516 48.5483L45.4344 52.6626L52.4286 48.5483" stroke="#2CADFF" stroke-width="0.5"/>
<path d="M65.5938 39.0853L45.4339 51.0166L25.6855 39.0853V16.4569L45.4339 4.93701L65.5938 16.4569V39.0853Z" fill="url(#paint12_linear_52_13403)" stroke="#4279F4" stroke-width="0.5"/>
<path d="M45.4336 51.0165L41.3193 48.5308H49.6335L45.4336 51.0165Z" fill="white"/>
<path d="M31.0343 48.5476L19.9258 41.9648V13.5765L31.8571 6.99365" stroke="#2CADFF" stroke-width="0.5"/>
<circle cx="32.2682" cy="6.58262" r="0.57285" stroke="#2CADFF" stroke-width="0.5"/>
<circle cx="31.4459" cy="48.5479" r="0.57285" stroke="#2CADFF" stroke-width="0.5"/>
<path d="M59.0107 48.5476L70.1191 41.9648V13.5765L58.1878 6.99365" stroke="#2CADFF" stroke-width="0.5"/>
<circle cx="0.82285" cy="0.82285" r="0.57285" transform="matrix(-1 0 0 1 58.5986 5.75977)" stroke="#2CADFF" stroke-width="0.5"/>
<circle cx="0.82285" cy="0.82285" r="0.57285" transform="matrix(-1 0 0 1 59.4219 47.7251)" stroke="#2CADFF" stroke-width="0.5"/>
<path d="M53.6621 9.87402L65.5934 16.4568V30.0338M12.5196 51.4279L1.41113 57.5993L12.1082 64.1821" stroke="white"/>
<path d="M78.3479 51.4277L90.2793 57.5991L77.9365 64.5933" stroke="white"/>
<path d="M31.8564 69.5303H57.3648" stroke="white"/>
<path d="M37.2054 9.87402L25.6855 16.4568V29.6224" stroke="white"/>
<g clip-path="url(#clip0_52_13403)">
<g filter="url(#filter0_dd_52_13403)">
<path fill-rule="evenodd" clip-rule="evenodd" d="M55.518 18.7443C55.4698 18.6279 55.445 18.503 55.445 18.377C55.445 18.2509 55.4698 18.1261 55.518 18.0096C55.5662 17.8932 55.637 17.7873 55.7261 17.6982C55.8153 17.609 55.9211 17.5383 56.0376 17.4901C56.154 17.4418 56.2789 17.417 56.405 17.417C56.531 17.417 56.6559 17.4418 56.7724 17.4901C56.8889 17.5383 56.9947 17.609 57.0838 17.6982C57.173 17.7873 57.2437 17.8932 57.2919 18.0096C57.3402 18.1261 57.365 18.2509 57.365 18.377C57.365 18.503 57.3402 18.6279 57.2919 18.7443C57.2437 18.8608 57.173 18.9666 57.0838 19.0558C56.9947 19.1449 56.8889 19.2157 56.7724 19.2639C56.6559 19.3121 56.531 19.337 56.405 19.337C56.2789 19.337 56.154 19.3121 56.0376 19.2639C55.9211 19.2157 55.8153 19.1449 55.7261 19.0558C55.637 18.9666 55.5662 18.8608 55.518 18.7443ZM41.4123 18.7832C41.3633 18.6648 41.3381 18.5378 41.3381 18.4096C41.3381 18.2814 41.3633 18.1544 41.4123 18.0359C41.4614 17.9175 41.5333 17.8098 41.624 17.7192C41.7146 17.6285 41.8222 17.5566 41.9407 17.5075C42.0592 17.4584 42.1861 17.4332 42.3143 17.4332C42.4426 17.4332 42.5695 17.4584 42.688 17.5075C42.8064 17.5566 42.9141 17.6285 43.0047 17.7192C43.0954 17.8098 43.1673 17.9175 43.2163 18.0359C43.2654 18.1544 43.2906 18.2814 43.2906 18.4096C43.2906 18.5378 43.2654 18.6648 43.2163 18.7832C43.1673 18.9017 43.0954 19.0093 43.0047 19.1C42.9141 19.1907 42.8064 19.2626 42.688 19.3117C42.5695 19.3607 42.4426 19.386 42.3143 19.386C42.1861 19.386 42.0592 19.3607 41.9407 19.3117C41.8222 19.2626 41.7146 19.1907 41.624 19.1C41.5333 19.0093 41.4614 18.9017 41.4123 18.7832ZM35.2852 20.5573C35.2852 21.0752 35.4909 21.5718 35.857 21.938C36.2232 22.3041 36.7198 22.5098 37.2377 22.5098C37.7555 22.5098 38.2522 22.3041 38.6183 21.938C38.9845 21.5718 39.1902 21.0752 39.1902 20.5573C39.1902 20.0395 38.9845 19.5428 38.6183 19.1767C38.2522 18.8105 37.7555 18.6048 37.2377 18.6048C36.7198 18.6048 36.2232 18.8105 35.857 19.1767C35.4909 19.5428 35.2852 20.0395 35.2852 20.5573ZM40.1446 22.6896C41.6537 21.6813 43.4279 21.1431 45.243 21.1431C47.6768 21.1431 50.011 22.1099 51.732 23.8309C53.453 25.5519 54.4198 27.8861 54.4198 30.3199C54.4198 32.1349 53.8816 33.9092 52.8732 35.4183C51.8649 36.9274 50.4316 38.1037 48.7548 38.7982C47.0779 39.4928 45.2328 39.6745 43.4526 39.3205C41.6725 38.9664 40.0373 38.0924 38.7539 36.8089C37.4705 35.5255 36.5965 33.8904 36.2424 32.1102C35.8883 30.3301 36.0701 28.4849 36.7646 26.8081C37.4592 25.1312 38.6354 23.698 40.1446 22.6896ZM44.541 34.4144C44.893 34.24 45.2001 33.9868 45.4382 33.6744C46.1884 32.763 46.1882 31.6405 46.188 30.0975L46.188 30.0153L46.188 29.9557C46.1881 28.4011 46.1882 27.2721 45.4382 26.3563C45.2001 26.0439 44.893 25.7906 44.541 25.6163C44.1889 25.442 43.8014 25.3513 43.4086 25.3513C43.0157 25.3513 42.6282 25.442 42.2761 25.6163C41.9241 25.7906 41.617 26.0439 41.3789 26.3563C40.6399 27.2568 40.6403 28.3681 40.6408 29.888L40.6409 30.0153L40.6408 30.1426C40.6403 31.6624 40.6399 32.7719 41.3789 33.6744C41.617 33.9868 41.9241 34.24 42.2761 34.4144C42.6282 34.5887 43.0157 34.6794 43.4086 34.6794C43.8014 34.6794 44.1889 34.5887 44.541 34.4144ZM49.7338 34.9923V34.307H48.1171L49.2886 32.9539C49.5756 32.62 49.7338 32.4033 49.7338 31.9991C49.7338 31.2493 49.1812 30.7866 48.4666 30.7866C47.752 30.7866 47.1955 31.2435 47.1955 32.0049H47.9609C47.9559 31.9359 47.965 31.8665 47.9878 31.8011C48.0106 31.7357 48.0466 31.6756 48.0935 31.6246C48.1403 31.5736 48.1972 31.5328 48.2604 31.5045C48.3237 31.4763 48.3921 31.4614 48.4613 31.4606C48.5306 31.4598 48.5993 31.4731 48.6632 31.4999C48.7271 31.5266 48.7848 31.5662 48.8329 31.6161C48.8809 31.666 48.9183 31.7252 48.9426 31.79C48.9669 31.8549 48.9777 31.924 48.9742 31.9932C48.9714 32.1832 48.8935 32.3643 48.7575 32.497L47.1955 34.307V34.9923H49.7338ZM42.8838 27.0761C43.0494 26.9908 43.2332 26.9468 43.4195 26.9479C43.6038 26.9468 43.7856 26.9909 43.949 27.0764C44.1124 27.1618 44.2524 27.286 44.3567 27.438C44.6417 27.8246 44.7257 28.2502 44.7257 30.0153C44.7257 31.7804 44.6417 32.2021 44.3567 32.5927C44.2524 32.7447 44.1124 32.8688 43.949 32.9543C43.7856 33.0397 43.6038 33.0838 43.4195 33.0827C43.2332 33.0839 43.0494 33.0399 42.8838 32.9545C42.7182 32.8692 42.5757 32.745 42.4686 32.5927C42.1855 32.2061 42.1113 31.7804 42.1113 30.0153C42.1113 28.2502 42.1855 27.8285 42.4686 27.438C42.5757 27.2856 42.7182 27.1614 42.8838 27.0761ZM53.0532 21.1431C53.0532 21.6092 53.2383 22.0561 53.5679 22.3857C53.8974 22.7152 54.3444 22.9004 54.8105 22.9004C55.2765 22.9004 55.7235 22.7152 56.0531 22.3857C56.3826 22.0561 56.5677 21.6092 56.5677 21.1431C56.5677 20.6771 56.3826 20.2301 56.0531 19.9005C55.7235 19.571 55.2765 19.3858 54.8105 19.3858C54.3444 19.3858 53.8974 19.571 53.5679 19.9005C53.2383 20.2301 53.0532 20.6771 53.0532 21.1431Z" fill="white"/>
</g>
</g>
<defs>
<filter id="filter0_dd_52_13403" x="31.2852" y="14.417" width="30.0801" height="30.0796" filterUnits="userSpaceOnUse" color-interpolation-filters="sRGB">
<feFlood flood-opacity="0" result="BackgroundImageFix"/>
<feColorMatrix in="SourceAlpha" type="matrix" values="0 0 0 0 0 0 0 0 0 0 0 0 0 0 0 0 0 0 127 0" result="hardAlpha"/>
<feMorphology radius="1" operator="dilate" in="SourceAlpha" result="effect1_dropShadow_52_13403"/>
<feOffset dy="1"/>
<feGaussianBlur stdDeviation="1.5"/>
<feColorMatrix type="matrix" values="0 0 0 0 0 0 0 0 0 0 0 0 0 0 0 0 0 0 0.15 0"/>
<feBlend mode="normal" in2="BackgroundImageFix" result="effect1_dropShadow_52_13403"/>
<feColorMatrix in="SourceAlpha" type="matrix" values="0 0 0 0 0 0 0 0 0 0 0 0 0 0 0 0 0 0 127 0" result="hardAlpha"/>
<feOffset dy="1"/>
<feGaussianBlur stdDeviation="1"/>
<feColorMatrix type="matrix" values="0 0 0 0 0 0 0 0 0 0 0 0 0 0 0 0 0 0 0.3 0"/>
<feBlend mode="normal" in2="effect1_dropShadow_52_13403" result="effect2_dropShadow_52_13403"/>
<feBlend mode="normal" in="SourceGraphic" in2="effect2_dropShadow_52_13403" result="shape"/>
</filter>
<linearGradient id="paint0_linear_52_13403" x1="45.6404" y1="46.0796" x2="45.6404" y2="0" gradientUnits="userSpaceOnUse">
<stop stop-color="#3274C0"/>
<stop offset="0.477779" stop-color="#3274C0" stop-opacity="0.367452"/>
<stop offset="1" stop-color="#3274C0" stop-opacity="0"/>
</linearGradient>
<linearGradient id="paint1_linear_52_13403" x1="45.6404" y1="46.0796" x2="45.6404" y2="0" gradientUnits="userSpaceOnUse">
<stop stop-color="#10ABA1" stop-opacity="0.8"/>
<stop offset="0.399094" stop-color="#10ABA1" stop-opacity="0.352129"/>
<stop offset="1" stop-color="#10ABA1" stop-opacity="0"/>
</linearGradient>
<linearGradient id="paint2_linear_52_13403" x1="79.6329" y1="57.5996" x2="79.6329" y2="0.00012207" gradientUnits="userSpaceOnUse">
<stop stop-color="#3274C0"/>
<stop offset="0.477779" stop-color="#3274C0" stop-opacity="0.367452"/>
<stop offset="1" stop-color="#3274C0" stop-opacity="0"/>
</linearGradient>
<linearGradient id="paint3_linear_52_13403" x1="79.6329" y1="57.5996" x2="86.6579" y2="10.295" gradientUnits="userSpaceOnUse">
<stop stop-color="#3274C0" stop-opacity="0.8"/>
<stop offset="1" stop-color="#3274C0" stop-opacity="0"/>
</linearGradient>
<linearGradient id="paint4_linear_52_13403" x1="11.8531" y1="57.5996" x2="11.8531" y2="0.00012207" gradientUnits="userSpaceOnUse">
<stop stop-color="#3274C0"/>
<stop offset="0.477779" stop-color="#3274C0" stop-opacity="0.367452"/>
<stop offset="1" stop-color="#3274C0" stop-opacity="0"/>
</linearGradient>
<linearGradient id="paint5_linear_52_13403" x1="11.8531" y1="57.5996" x2="14.9527" y2="23.8653" gradientUnits="userSpaceOnUse">
<stop stop-color="#3274C0" stop-opacity="0.8"/>
<stop offset="1" stop-color="#3274C0" stop-opacity="0"/>
</linearGradient>
<radialGradient id="paint6_radial_52_13403" cx="0" cy="0" r="1" gradientUnits="userSpaceOnUse" gradientTransform="translate(45.6396 58.0109) scale(44.6396 11.9313)">
<stop stop-color="#195C94" stop-opacity="0"/>
<stop offset="0.480827" stop-color="#195C94" stop-opacity="0"/>
<stop offset="1" stop-color="#195C94"/>
</radialGradient>
<linearGradient id="paint7_linear_52_13403" x1="45.6396" y1="46.0796" x2="45.6396" y2="69.9422" gradientUnits="userSpaceOnUse">
<stop stop-color="#2CADFF" stop-opacity="0"/>
<stop offset="1" stop-color="#2CADFF"/>
</linearGradient>
<linearGradient id="paint8_linear_52_13403" x1="45.4337" y1="46.9023" x2="45.4337" y2="65.005" gradientUnits="userSpaceOnUse">
<stop stop-color="#339FBB" stop-opacity="0"/>
<stop offset="1" stop-color="#339FBB"/>
</linearGradient>
<linearGradient id="paint9_linear_52_13403" x1="45.4337" y1="46.4912" x2="45.4337" y2="60.8911" gradientUnits="userSpaceOnUse">
<stop stop-color="#339FBB" stop-opacity="0"/>
<stop offset="1" stop-color="#339FBB"/>
</linearGradient>
<linearGradient id="paint10_linear_52_13403" x1="45.4337" y1="50.1937" x2="45.4337" y2="57.5994" gradientUnits="userSpaceOnUse">
<stop stop-color="#319DCB" stop-opacity="0"/>
<stop offset="1" stop-color="#319DCB"/>
</linearGradient>
<linearGradient id="paint11_linear_52_13403" x1="45.4337" y1="57.5994" x2="45.4337" y2="46.9023" gradientUnits="userSpaceOnUse">
<stop stop-color="#39A4E5"/>
<stop offset="1" stop-color="#39A4E5" stop-opacity="0"/>
</linearGradient>
<linearGradient id="paint12_linear_52_13403" x1="45.6397" y1="4.93701" x2="45.6397" y2="51.0166" gradientUnits="userSpaceOnUse">
<stop stop-color="#3274C0" stop-opacity="0"/>
<stop offset="1" stop-color="#3274C0"/>
</linearGradient>
<clipPath id="clip0_52_13403">
<rect width="23.0398" height="23.0398" fill="white" transform="translate(34.3252 16.457)"/>
</clipPath>
</defs>
</svg>
