<?xml version="1.0" standalone="no"?><!DOCTYPE svg PUBLIC "-//W3C//DTD SVG 1.1//EN" "http://www.w3.org/Graphics/SVG/1.1/DTD/svg11.dtd"><svg t="1710491841693" class="icon" viewBox="0 0 1024 1024" version="1.1" xmlns="http://www.w3.org/2000/svg" p-id="4247" width="30" height="30" xmlns:xlink="http://www.w3.org/1999/xlink"><path d="M512 512m-512 0a512 512 0 1 0 1024 0 512 512 0 1 0-1024 0Z" fill="#858C94" p-id="4248" data-spm-anchor-id="a313x.search_index.0.i0.10e63a81aqYRHL" class=""></path><path d="M258.56 358.912l434.432 434.432a51.2 51.2 0 0 0 72.3968-72.3968L330.9568 286.5152A51.2 51.2 0 1 0 258.56 358.912z" fill="#ffffff" p-id="4249" data-spm-anchor-id="a313x.search_index.0.i4.10e63a81aqYRHL" class=""></path><path d="M258.56 712.192l434.432-434.432a51.2 51.2 0 0 1 72.448 72.3968l-434.4832 434.432A51.2 51.2 0 1 1 258.56 712.192z" fill="#ffffff" p-id="4250" data-spm-anchor-id="a313x.search_index.0.i2.10e63a81aqYRHL" class=""></path></svg>